EnclosedAlnum-Medium.sfdir
StartChar: uF1D88
Encoding: 990600 990600 6
Width: 1000
Flags: MW
LayerCount: 2
Fore
SplineSet
300 303 m 0
 300 475 421 563 561 563 c 0
 602 563 630 553 649 539 c 0
 670 524 680 503 680 479 c 0
 680 450 658 440 642 440 c 0
 621 440 596 454 596 478 c 0
 596 509 631 513 646 514 c 1
 630 538 587 541 563 541 c 0
 523 541 463 527 423 483 c 0
 397 456 377 410 377 331 c 2
 377 314 l 1
 403 355 448 384 510 384 c 0
 630 384 700 317 700 219 c 0
 700 120 626 51 502 51 c 0
 438 51 369 70 336 130 c 1
 313 172 300 230 300 303 c 0
379 232 m 0
 379 218 379 159 398 127 c 0
 405 116 437 75 502 75 c 0
 534 75 578 82 606 122 c 0
 624 148 623 184 623 220 c 0
 623 258 623 294 605 321 c 0
 577 361 531 365 507 365 c 0
 418 365 379 299 379 232 c 0
50 300 m 0
 50 555 246 770 500 770 c 0
 741 770 950 566 950 300 c 0
 950 46 754 -170 500 -170 c 0
 259 -170 50 34 50 300 c 0
95 299 m 0
 95 67 276 -125 499 -125 c 0
 721 -125 905 62 905 300 c 0
 905 533 725 725 501 725 c 0
 282 725 95 542 95 299 c 0
EndSplineSet
EndChar
StartChar: uF1D89
Encoding: 990601 990601 7
Width: 1000
Flags: MW
LayerCount: 2
Fore
SplineSet
304 410 m 1
 328 574 l 1
 351 574 l 1
 353 565 354 558 374 554 c 1
 387 552 439 550 483 550 c 2
 696 550 l 1
 696 532 692 529 684 521 c 2
 564 381 l 2
 524 334 510 291 504 267 c 0
 489 223 484 174 484 134 c 2
 484 96 l 2
 484 86 482 71 472 62 c 0
 466 56 457 52 447 52 c 0
 437 52 428 56 422 62 c 0
 412 71 409 86 409 96 c 0
 409 206 462 298 542 398 c 2
 610 483 l 1
 429 483 l 2
 415 483 351 482 345 478 c 0
 337 471 330 433 326 410 c 1
 304 410 l 1
50 300 m 0
 50 555 246 770 500 770 c 0
 741 770 950 566 950 300 c 0
 950 46 754 -170 500 -170 c 0
 259 -170 50 34 50 300 c 0
95 299 m 0
 95 67 276 -125 499 -125 c 0
 721 -125 905 62 905 300 c 0
 905 533 725 725 501 725 c 0
 282 725 95 542 95 299 c 0
EndSplineSet
EndChar
StartChar: uF1D8A
Encoding: 990602 990602 8
Width: 1000
Flags: MW
LayerCount: 2
Fore
SplineSet
288 181 m 0
 288 251 355 292 421 316 c 1
 394 328 358 344 346 354 c 0
 311 387 308 420 308 436 c 0
 308 506 385 563 501 563 c 0
 604 563 692 523 692 452 c 0
 692 404 651 366 575 338 c 1
 635 313 655 305 676 288 c 0
 702 258 712 226 712 195 c 0
 712 115 632 51 499 51 c 0
 380 51 288 98 288 181 c 0
332 181 m 0
 332 120 405 75 501 75 c 0
 583 75 668 107 668 165 c 0
 668 209 621 229 587 244 c 1
 574 250 458 298 450 302 c 1
 370 272 332 229 332 181 c 0
354 469 m 0
 354 453 363 430 406 412 c 2
 546 352 l 1
 607 377 646 409 646 451 c 0
 646 504 580 541 499 541 c 0
 429 541 354 517 354 469 c 0
50 300 m 0
 50 555 246 770 500 770 c 0
 741 770 950 566 950 300 c 0
 950 46 754 -170 500 -170 c 0
 259 -170 50 34 50 300 c 0
95 299 m 0
 95 67 276 -125 499 -125 c 0
 721 -125 905 62 905 300 c 0
 905 533 725 725 501 725 c 0
 282 725 95 542 95 299 c 0
EndSplineSet
EndChar
StartChar: uF1D8B
Encoding: 990603 990603 9
Width: 1000
Flags: MW
LayerCount: 2
Fore
SplineSet
300 396 m 0
 300 451 318 486 350 518 c 1
 387 550 442 563 504 563 c 0
 628 563 700 476 700 312 c 0
 700 143 590 51 445 51 c 0
 406 51 376 59 356 71 c 0
 332 85 320 108 320 135 c 0
 320 164 342 174 358 174 c 0
 377 174 395 160 395 136 c 0
 395 118 384 99 357 99 c 1
 361 94 367 91 373 88 c 0
 396 76 429 75 444 75 c 0
 490 75 545 92 581 134 c 0
 606 164 623 211 623 279 c 2
 623 301 l 1
 595 255 550 231 490 231 c 0
 369 231 300 300 300 396 c 0
377 395 m 0
 377 357 378 321 396 294 c 0
 424 254 468 250 492 250 c 0
 586 250 622 324 622 382 c 0
 622 414 618 461 605 485 c 0
 589 513 557 541 504 541 c 0
 463 541 424 532 398 498 c 0
 376 471 377 435 377 395 c 0
50 300 m 0
 50 555 246 770 500 770 c 0
 741 770 950 566 950 300 c 0
 950 46 754 -170 500 -170 c 0
 259 -170 50 34 50 300 c 0
95 299 m 0
 95 67 276 -125 499 -125 c 0
 721 -125 905 62 905 300 c 0
 905 533 725 725 501 725 c 0
 282 725 95 542 95 299 c 0
EndSplineSet
EndChar
StartChar: uF1D90
Encoding: 990608 990608 14
Width: 1000
Flags: MW
LayerCount: 2
Fore
SplineSet
528 191 m 1
 528 218 l 1
 758 563 l 2
 764 573 766 572 775 572 c 0
 789 572 789 568 789 552 c 2
 789 218 l 1
 861 218 l 1
 861 191 l 1
 789 191 l 1
 789 122 l 1
 789 102 805 95 847 95 c 1
 858 95 l 1
 858 69 l 1
 829 71 786 71 756 71 c 0
 725 71 682 71 652 69 c 1
 652 95 l 1
 664 95 l 1
 706 95 725 102 725 122 c 1
 725 191 l 1
 528 191 l 1
552 218 m 1
 730 218 l 1
 730 485 l 1
 552 218 l 1
196 492 m 1
 196 518 l 1
 199 518 l 1
 223 518 285 520 330 561 c 0
 333 564 334 564 338 566 c 1
 355 566 355 564 355 546 c 2
 355 122 l 1
 355 101 379 95 430 95 c 1
 448 95 l 1
 448 69 l 1
 422 71 355 71 325 71 c 0
 295 71 228 71 202 69 c 1
 202 95 l 1
 220 95 l 1
 271 95 294 102 294 122 c 1
 294 510 l 1
 258 494 215 492 199 492 c 1
 196 492 l 1
50 300 m 0
 50 555 246 770 500 770 c 0
 741 770 950 566 950 300 c 0
 950 46 754 -170 500 -170 c 0
 259 -170 50 34 50 300 c 0
95 299 m 0
 95 67 276 -125 499 -125 c 0
 721 -125 905 62 905 300 c 0
 905 533 725 725 501 725 c 0
 282 725 95 542 95 299 c 0
EndSplineSet
EndChar
StartChar: uF1D91
Encoding: 990609 990609 15
Width: 1000
Flags: MW
LayerCount: 2
Fore
SplineSet
542 186 m 0
 542 223 570 229 580 229 c 0
 603 229 619 212 619 188 c 0
 619 168 607 150 583 149 c 0
 577 149 573 149 571 150 c 1
 588 106 629 75 674 75 c 0
 706 75 734 92 750 118 c 1
 769 149 768 192 768 220 c 0
 768 258 766 290 754 317 c 0
 748 331 731 359 696 359 c 0
 644 359 613 327 601 309 c 0
 598 305 596 302 590 302 c 0
 579 302 578 308 578 322 c 2
 578 544 l 2
 578 556 578 562 586 562 c 0
 588 562 590 562 596 560 c 0
 626 546 661 539 696 539 c 0
 740 539 776 552 797 561 c 0
 802 563 803 563 804 563 c 0
 810 563 812 558 812 554 c 0
 812 542 758 469 665 469 c 0
 641 469 621 474 605 478 c 1
 605 343 l 1
 633 369 666 379 698 379 c 0
 783 379 842 304 842 216 c 0
 842 122 767 51 676 51 c 0
 593 51 542 122 542 186 c 0
193 489 m 1
 193 515 l 1
 196 515 l 1
 220 515 283 517 328 558 c 0
 331 561 331 561 335 563 c 1
 352 563 352 560 352 542 c 2
 352 119 l 1
 352 98 377 92 428 92 c 1
 446 92 l 1
 446 65 l 1
 420 67 352 68 322 68 c 0
 292 68 224 67 198 65 c 1
 198 92 l 1
 216 92 l 1
 267 92 292 99 292 119 c 1
 292 507 l 1
 256 491 212 489 196 489 c 1
 193 489 l 1
50 300 m 0
 50 555 246 770 500 770 c 0
 741 770 950 566 950 300 c 0
 950 46 754 -170 500 -170 c 0
 259 -170 50 34 50 300 c 0
95 299 m 0
 95 67 276 -125 499 -125 c 0
 721 -125 905 62 905 300 c 0
 905 533 725 725 501 725 c 0
 282 725 95 542 95 299 c 0
EndSplineSet
EndChar
StartChar: uF1D95
Encoding: 990613 990613 19
Width: 1000
Flags: MW
LayerCount: 2
Fore
SplineSet
537 396 m 0
 537 451 554 486 585 518 c 1
 616 550 653 563 695 563 c 0
 784 563 848 476 848 312 c 0
 848 143 754 51 660 51 c 0
 594 51 556 85 556 135 c 0
 556 164 576 174 592 174 c 0
 610 174 628 160 628 136 c 0
 628 118 617 99 590 99 c 1
 610 76 647 75 660 75 c 0
 691 75 725 92 748 134 c 0
 765 164 776 211 776 279 c 2
 776 301 l 1
 757 255 725 231 685 231 c 0
 602 231 537 300 537 396 c 0
610 395 m 0
 610 357 609 321 622 294 c 0
 641 254 672 250 688 250 c 0
 751 250 774 324 774 382 c 0
 774 414 773 461 764 485 c 0
 754 513 731 541 696 541 c 0
 668 541 642 532 624 498 c 0
 609 471 610 435 610 395 c 0
194 489 m 1
 194 515 l 1
 198 515 l 1
 222 515 284 517 329 558 c 0
 332 561 332 561 336 563 c 1
 353 563 353 560 353 542 c 2
 353 119 l 1
 353 98 378 92 429 92 c 1
 447 92 l 1
 447 65 l 1
 421 67 354 68 324 68 c 0
 294 68 226 67 200 65 c 1
 200 92 l 1
 218 92 l 1
 269 92 293 99 293 119 c 1
 293 507 l 1
 257 491 214 489 198 489 c 1
 194 489 l 1
50 300 m 0
 50 555 246 770 500 770 c 0
 741 770 950 566 950 300 c 0
 950 46 754 -170 500 -170 c 0
 259 -170 50 34 50 300 c 0
95 299 m 0
 95 67 276 -125 499 -125 c 0
 721 -125 905 62 905 300 c 0
 905 533 725 725 501 725 c 0
 282 725 95 542 95 299 c 0
EndSplineSet
EndChar
StartChar: uF1F93
Encoding: 991123 991123 1005
Width: 1000
Flags: MW
LayerCount: 2
Fore
SplineSet
49 300 m 0
 49 384 61 495 112 605 c 0
 171 732 261 800 271 800 c 0
 277 800 281 797 281 790 c 0
 281 787 281 785 268 773 c 0
 145 648 107 474 107 300 c 0
 107 223 115 137 139 54 c 0
 162 -28 202 -106 264 -168 c 0
 281 -185 281 -187 281 -190 c 0
 281 -197 277 -200 271 -200 c 0
 261 -200 175 -135 115 -12 c 0
 60 101 49 222 49 300 c 0
720 -190 m 0
 720 -187 720 -185 733 -173 c 0
 857 -47 894 129 894 300 c 0
 894 509 837 668 739 767 c 0
 720 785 720 787 720 790 c 0
 720 796 724 800 730 800 c 0
 740 800 826 735 886 612 c 0
 941 499 952 378 952 300 c 0
 952 216 940 105 889 -5 c 0
 830 -132 740 -200 730 -200 c 0
 724 -200 720 -196 720 -190 c 0
537 168 m 0
 537 202 561 214 581 214 c 0
 605 214 624 198 624 169 c 0
 624 140 603 123 578 124 c 1
 606 86 656 75 684 75 c 0
 726 75 765 111 765 196 c 0
 765 261 744 317 680 317 c 2
 649 317 l 2
 636 317 630 317 630 327 c 0
 630 334 635 335 641 336 c 0
 645 336 660 338 671 339 c 0
 691 340 714 345 733 377 c 1
 753 409 754 452 754 460 c 0
 754 517 723 541 686 541 c 0
 661 541 616 533 593 500 c 1
 602 500 637 498 637 458 c 0
 637 434 622 417 598 417 c 0
 575 417 558 433 558 460 c 0
 558 518 613 563 689 563 c 0
 766 563 828 520 828 459 c 0
 828 399 784 348 726 329 c 1
 808 311 848 253 848 196 c 0
 848 122 786 51 688 51 c 0
 606 51 537 100 537 168 c 0
194 489 m 1
 194 515 l 1
 198 515 l 1
 222 515 284 517 329 558 c 0
 332 561 332 561 336 563 c 1
 353 563 353 560 353 542 c 2
 353 119 l 1
 353 98 378 92 429 92 c 1
 447 92 l 1
 447 65 l 1
 421 67 354 68 324 68 c 0
 294 68 226 67 200 65 c 1
 200 92 l 1
 218 92 l 1
 269 92 293 99 293 119 c 1
 293 507 l 1
 257 491 214 489 198 489 c 1
 194 489 l 1
EndSplineSet
EndChar
StartChar: uF1F96
Encoding: 991126 991126 1008
Width: 1000
Flags: MW
LayerCount: 2
Fore
SplineSet
49 300 m 0
 49 384 61 495 112 605 c 0
 171 732 261 800 271 800 c 0
 277 800 281 797 281 790 c 0
 281 787 281 785 268 773 c 0
 145 648 107 474 107 300 c 0
 107 223 115 137 139 54 c 0
 162 -28 202 -106 264 -168 c 0
 281 -185 281 -187 281 -190 c 0
 281 -197 277 -200 271 -200 c 0
 261 -200 175 -135 115 -12 c 0
 60 101 49 222 49 300 c 0
720 -190 m 0
 720 -187 720 -185 733 -173 c 0
 857 -47 894 129 894 300 c 0
 894 509 837 668 739 767 c 0
 720 785 720 787 720 790 c 0
 720 796 724 800 730 800 c 0
 740 800 826 735 886 612 c 0
 941 499 952 378 952 300 c 0
 952 216 940 105 889 -5 c 0
 830 -132 740 -200 730 -200 c 0
 724 -200 720 -196 720 -190 c 0
537 303 m 0
 537 475 640 563 734 563 c 0
 798 563 830 524 830 479 c 0
 830 450 809 440 793 440 c 0
 775 440 758 454 758 478 c 0
 758 509 783 513 797 514 c 1
 781 538 752 541 736 541 c 0
 710 541 669 527 642 483 c 0
 625 456 610 410 610 331 c 2
 610 314 l 1
 628 355 657 384 699 384 c 0
 781 384 848 317 848 219 c 0
 848 120 779 51 694 51 c 0
 650 51 602 70 570 130 c 1
 548 172 537 230 537 303 c 0
611 232 m 0
 611 218 611 159 624 127 c 0
 628 116 650 75 694 75 c 0
 715 75 746 82 764 122 c 0
 776 148 776 184 776 220 c 0
 776 258 777 294 764 321 c 0
 745 361 714 365 698 365 c 0
 638 365 611 299 611 232 c 0
194 489 m 1
 194 515 l 1
 198 515 l 1
 222 515 284 517 329 558 c 0
 332 561 332 561 336 563 c 1
 353 563 353 560 353 542 c 2
 353 119 l 1
 353 98 378 92 429 92 c 1
 447 92 l 1
 447 65 l 1
 421 67 354 68 324 68 c 0
 294 68 226 67 200 65 c 1
 200 92 l 1
 218 92 l 1
 269 92 293 99 293 119 c 1
 293 507 l 1
 257 491 214 489 198 489 c 1
 194 489 l 1
EndSplineSet
EndChar
StartChar: uF1F97
Encoding: 991127 991127 1009
Width: 1000
Flags: MW
LayerCount: 2
Fore
SplineSet
49 300 m 0
 49 384 61 495 112 605 c 0
 171 732 261 800 271 800 c 0
 277 800 281 797 281 790 c 0
 281 787 281 785 268 773 c 0
 145 648 107 474 107 300 c 0
 107 223 115 137 139 54 c 0
 162 -28 202 -106 264 -168 c 0
 281 -185 281 -187 281 -190 c 0
 281 -197 277 -200 271 -200 c 0
 261 -200 175 -135 115 -12 c 0
 60 101 49 222 49 300 c 0
720 -190 m 0
 720 -187 720 -185 733 -173 c 0
 857 -47 894 129 894 300 c 0
 894 509 837 668 739 767 c 0
 720 785 720 787 720 790 c 0
 720 796 724 800 730 800 c 0
 740 800 826 735 886 612 c 0
 941 499 952 378 952 300 c 0
 952 216 940 105 889 -5 c 0
 830 -132 740 -200 730 -200 c 0
 724 -200 720 -196 720 -190 c 0
551 410 m 1
 575 574 l 1
 597 574 l 1
 599 565 600 558 620 554 c 1
 633 552 674 550 703 550 c 2
 873 550 l 1
 873 532 873 530 866 521 c 2
 765 381 l 2
 735 339 723 279 719 254 c 0
 713 215 711 174 711 134 c 2
 711 96 l 2
 711 78 704 52 676 52 c 0
 650 52 639 77 639 96 c 0
 639 181 669 285 736 382 c 1
 748 401 802 474 808 483 c 1
 664 483 l 2
 654 483 597 482 591 478 c 0
 583 471 575 433 572 410 c 1
 551 410 l 1
198 490 m 1
 198 516 l 1
 201 516 l 1
 225 516 287 518 332 559 c 0
 335 562 336 562 340 564 c 1
 357 564 357 562 357 544 c 2
 357 120 l 1
 357 99 381 93 432 93 c 1
 450 93 l 1
 450 67 l 1
 424 69 356 69 326 69 c 0
 296 69 230 69 204 67 c 1
 204 93 l 1
 222 93 l 1
 273 93 296 100 296 120 c 1
 296 509 l 1
 260 493 217 490 201 490 c 1
 198 490 l 1
EndSplineSet
EndChar
StartChar: uF1F98
Encoding: 991128 991128 1010
Width: 1000
Flags: MW
LayerCount: 2
Fore
SplineSet
49 300 m 0
 49 384 61 495 112 605 c 0
 171 732 261 800 271 800 c 0
 277 800 281 797 281 790 c 0
 281 787 281 785 268 773 c 0
 145 648 107 474 107 300 c 0
 107 223 115 137 139 54 c 0
 162 -28 202 -106 264 -168 c 0
 281 -185 281 -187 281 -190 c 0
 281 -197 277 -200 271 -200 c 0
 261 -200 175 -135 115 -12 c 0
 60 101 49 222 49 300 c 0
720 -190 m 0
 720 -187 720 -185 733 -173 c 0
 857 -47 894 129 894 300 c 0
 894 509 837 668 739 767 c 0
 720 785 720 787 720 790 c 0
 720 796 724 800 730 800 c 0
 740 800 826 735 886 612 c 0
 941 499 952 378 952 300 c 0
 952 216 940 105 889 -5 c 0
 830 -132 740 -200 730 -200 c 0
 724 -200 720 -196 720 -190 c 0
537 181 m 0
 537 251 591 292 638 316 c 1
 620 328 596 344 588 354 c 0
 559 387 558 420 558 436 c 0
 558 506 614 563 693 563 c 0
 763 563 828 523 828 452 c 0
 828 404 796 366 744 338 c 1
 784 313 797 305 812 288 c 0
 838 258 848 226 848 195 c 0
 848 115 782 51 692 51 c 0
 612 51 537 98 537 181 c 0
579 181 m 0
 579 120 629 75 693 75 c 0
 749 75 806 107 806 165 c 0
 806 209 774 229 751 244 c 1
 742 250 665 298 659 302 c 1
 605 272 579 229 579 181 c 0
594 469 m 0
 594 453 602 430 630 412 c 2
 724 352 l 1
 765 377 791 409 791 451 c 0
 791 504 747 541 692 541 c 0
 646 541 594 517 594 469 c 0
194 489 m 1
 194 515 l 1
 198 515 l 1
 222 515 284 517 329 558 c 0
 332 561 332 561 336 563 c 1
 353 563 353 560 353 542 c 2
 353 119 l 1
 353 98 378 92 429 92 c 1
 447 92 l 1
 447 65 l 1
 421 67 354 68 324 68 c 0
 294 68 226 67 200 65 c 1
 200 92 l 1
 218 92 l 1
 269 92 293 99 293 119 c 1
 293 507 l 1
 257 491 214 489 198 489 c 1
 194 489 l 1
EndSplineSet
EndChar
StartChar: uF1F9B
Encoding: 991131 991131 21
Width: 1000
Flags: MW
LayerCount: 2
Fore
SplineSet
560 492 m 1
 560 518 l 1
 564 518 l 1
 588 518 650 519 695 560 c 0
 698 563 698 564 702 566 c 1
 719 566 720 562 720 544 c 2
 720 121 l 1
 720 100 743 94 794 94 c 1
 812 94 l 1
 812 68 l 1
 786 70 719 70 689 70 c 0
 659 70 591 70 565 68 c 1
 565 94 l 1
 583 94 l 1
 634 94 658 101 658 121 c 1
 658 510 l 1
 622 494 580 492 564 492 c 1
 560 492 l 1
159 68 m 1
 159 72 159 78 159 80 c 2
 159 90 161 91 167 98 c 2
 308 258 l 2
 350 306 385 362 385 420 c 0
 385 480 353 540 288 540 c 0
 249 540 213 516 195 475 c 1
 197 475 199 475 204 475 c 0
 227 473 241 456 241 433 c 0
 241 400 215 390 200 390 c 0
 194 390 159 393 159 435 c 0
 159 502 215 566 299 566 c 0
 391 566 458 506 458 420 c 0
 458 346 414 308 308 214 c 1
 301 208 232 142 224 135 c 1
 350 135 l 2
 364 135 414 134 420 140 c 1
 428 150 432 188 436 208 c 1
 458 208 l 1
 438 68 l 1
 159 68 l 1
50 300 m 0
 50 555 246 770 500 770 c 0
 741 770 950 566 950 300 c 0
 950 46 754 -170 500 -170 c 0
 259 -170 50 34 50 300 c 0
95 299 m 0
 95 67 276 -125 499 -125 c 0
 721 -125 905 62 905 300 c 0
 905 533 725 725 501 725 c 0
 282 725 95 542 95 299 c 0
EndSplineSet
EndChar
StartChar: uF1FAE
Encoding: 991150 991150 30
Width: 1000
Flags: MW
LayerCount: 2
Fore
SplineSet
530 305 m 0
 530 362 532 428 561 482 c 1
 590 542 640 563 688 563 c 0
 724 563 779 549 810 489 c 0
 842 433 845 363 845 305 c 0
 845 248 843 181 813 128 c 0
 783 68 730 51 687 51 c 0
 646 51 597 67 567 120 c 0
 532 177 530 251 530 305 c 0
598 315 m 0
 598 272 597 200 605 156 c 0
 617 88 659 70 687 70 c 0
 717 70 761 89 771 160 c 0
 778 206 778 263 778 315 c 0
 778 366 779 428 770 466 c 0
 756 530 712 544 687 544 c 0
 669 544 615 538 603 454 c 0
 597 414 598 365 598 315 c 0
157 168 m 0
 157 202 181 214 201 214 c 0
 225 214 245 198 245 169 c 0
 245 140 223 123 198 124 c 1
 226 86 277 75 305 75 c 0
 347 75 386 111 386 196 c 0
 386 261 365 317 301 317 c 2
 268 317 l 2
 255 317 250 317 250 327 c 0
 250 334 255 335 261 336 c 0
 265 336 280 338 291 339 c 0
 311 340 335 345 354 377 c 1
 374 409 374 452 374 460 c 0
 374 517 343 541 306 541 c 0
 281 541 236 533 213 500 c 1
 222 500 258 498 258 458 c 0
 258 434 241 417 217 417 c 0
 194 417 177 433 177 460 c 0
 177 518 233 563 309 563 c 0
 386 563 448 520 448 459 c 0
 448 399 404 348 346 329 c 1
 428 311 468 253 468 196 c 0
 468 122 405 51 307 51 c 0
 225 51 157 100 157 168 c 0
50 300 m 0
 50 555 246 770 500 770 c 0
 741 770 950 566 950 300 c 0
 950 46 754 -170 500 -170 c 0
 259 -170 50 34 50 300 c 0
95 299 m 0
 95 67 276 -125 499 -125 c 0
 721 -125 905 62 905 300 c 0
 905 533 725 725 501 725 c 0
 282 725 95 542 95 299 c 0
EndSplineSet
EndChar
StartChar: uF1FB0
Encoding: 991152 991152 1013
Width: 1000
Flags: MW
LayerCount: 2
Fore
SplineSet
49 300 m 0
 49 384 61 495 112 605 c 0
 171 732 261 800 271 800 c 0
 277 800 281 797 281 790 c 0
 281 787 281 785 268 773 c 0
 145 648 107 474 107 300 c 0
 107 223 115 137 139 54 c 0
 162 -28 202 -106 264 -168 c 0
 281 -185 281 -187 281 -190 c 0
 281 -197 277 -200 271 -200 c 0
 261 -200 175 -135 115 -12 c 0
 60 101 49 222 49 300 c 0
720 -190 m 0
 720 -187 720 -185 733 -173 c 0
 857 -47 894 129 894 300 c 0
 894 509 837 668 739 767 c 0
 720 785 720 787 720 790 c 0
 720 796 724 800 730 800 c 0
 740 800 826 735 886 612 c 0
 941 499 952 378 952 300 c 0
 952 216 940 105 889 -5 c 0
 830 -132 740 -200 730 -200 c 0
 724 -200 720 -196 720 -190 c 0
334 129 m 0
 334 168 361 204 418 227 c 1
 466 247 519 249 554 251 c 1
 554 278 l 2
 554 342 516 373 474 373 c 0
 454 373 420 366 400 346 c 1
 426 345 434 322 434 310 c 0
 434 287 418 273 396 273 c 0
 376 273 358 286 358 311 c 0
 358 331 366 346 380 358 c 0
 402 380 440 392 476 392 c 0
 517 392 556 379 584 352 c 0
 611 326 616 298 616 266 c 2
 616 113 l 2
 616 106 616 78 646 78 c 0
 656 78 666 79 666 66 c 0
 666 52 657 52 642 52 c 2
 626 52 l 2
 580 52 564 84 562 112 c 1
 548 78 512 47 460 47 c 0
 412 47 334 65 334 129 c 0
399 130 m 0
 399 93 430 67 467 67 c 0
 497 67 554 89 554 160 c 2
 554 234 l 1
 452 230 399 181 399 130 c 0
EndSplineSet
EndChar
StartChar: uF1FB2
Encoding: 991154 991154 1015
Width: 1000
Flags: MW
LayerCount: 2
Fore
SplineSet
49 300 m 0
 49 384 61 495 112 605 c 0
 171 732 261 800 271 800 c 0
 277 800 281 797 281 790 c 0
 281 787 281 785 268 773 c 0
 145 648 107 474 107 300 c 0
 107 223 115 137 139 54 c 0
 162 -28 202 -106 264 -168 c 0
 281 -185 281 -187 281 -190 c 0
 281 -197 277 -200 271 -200 c 0
 261 -200 175 -135 115 -12 c 0
 60 101 49 222 49 300 c 0
720 -190 m 0
 720 -187 720 -185 733 -173 c 0
 857 -47 894 129 894 300 c 0
 894 509 837 668 739 767 c 0
 720 785 720 787 720 790 c 0
 720 796 724 800 730 800 c 0
 740 800 826 735 886 612 c 0
 941 499 952 378 952 300 c 0
 952 216 940 105 889 -5 c 0
 830 -132 740 -200 730 -200 c 0
 724 -200 720 -196 720 -190 c 0
352 218 m 0
 352 310 417 392 521 392 c 0
 558 392 598 382 621 358 c 0
 633 347 640 332 640 314 c 0
 640 290 623 276 602 276 c 0
 581 276 565 291 565 314 c 0
 565 323 567 344 594 348 c 1
 572 369 535 370 523 370 c 0
 469 370 422 322 422 220 c 0
 422 121 472 69 528 69 c 0
 558 69 602 80 624 144 c 0
 626 150 628 152 637 152 c 0
 641 152 648 152 648 144 c 0
 648 137 625 47 519 47 c 0
 425 47 352 121 352 218 c 0
EndSplineSet
EndChar
StartChar: uF1FB8
Encoding: 991160 991160 1021
Width: 1000
Flags: MW
LayerCount: 2
Fore
SplineSet
49 300 m 0
 49 384 61 495 112 605 c 0
 171 732 261 800 271 800 c 0
 277 800 281 797 281 790 c 0
 281 787 281 785 268 773 c 0
 145 648 107 474 107 300 c 0
 107 223 115 137 139 54 c 0
 162 -28 202 -106 264 -168 c 0
 281 -185 281 -187 281 -190 c 0
 281 -197 277 -200 271 -200 c 0
 261 -200 175 -135 115 -12 c 0
 60 101 49 222 49 300 c 0
720 -190 m 0
 720 -187 720 -185 733 -173 c 0
 857 -47 894 129 894 300 c 0
 894 509 837 668 739 767 c 0
 720 785 720 787 720 790 c 0
 720 796 724 800 730 800 c 0
 740 800 826 735 886 612 c 0
 941 499 952 378 952 300 c 0
 952 216 940 105 889 -5 c 0
 830 -132 740 -200 730 -200 c 0
 724 -200 720 -196 720 -190 c 0
418 55 m 1
 418 81 l 1
 439 81 463 81 469 85 c 1
 473 88 474 95 474 106 c 1
 474 315 l 2
 474 350 468 354 420 354 c 1
 420 380 l 1
 532 387 l 1
 532 106 l 1
 532 96 532 89 536 86 c 1
 541 82 562 81 582 81 c 1
 582 55 l 1
 556 56 527 57 502 57 c 0
 480 57 442 56 418 55 c 1
447 517 m 0
 447 540 466 561 491 561 c 0
 515 561 536 543 536 517 c 0
 536 491 515 472 491 472 c 0
 466 472 447 494 447 517 c 0
EndSplineSet
EndChar
StartChar: uF1FBB
Encoding: 991163 991163 1024
Width: 1000
Flags: MW
LayerCount: 2
Fore
SplineSet
49 300 m 0
 49 384 61 495 112 605 c 0
 171 732 261 800 271 800 c 0
 277 800 281 797 281 790 c 0
 281 787 281 785 268 773 c 0
 145 648 107 474 107 300 c 0
 107 223 115 137 139 54 c 0
 162 -28 202 -106 264 -168 c 0
 281 -185 281 -187 281 -190 c 0
 281 -197 277 -200 271 -200 c 0
 261 -200 175 -135 115 -12 c 0
 60 101 49 222 49 300 c 0
720 -190 m 0
 720 -187 720 -185 733 -173 c 0
 857 -47 894 129 894 300 c 0
 894 509 837 668 739 767 c 0
 720 785 720 787 720 790 c 0
 720 796 724 800 730 800 c 0
 740 800 826 735 886 612 c 0
 941 499 952 378 952 300 c 0
 952 216 940 105 889 -5 c 0
 830 -132 740 -200 730 -200 c 0
 724 -200 720 -196 720 -190 c 0
415 57 m 1
 415 83 l 1
 436 83 459 83 465 87 c 1
 470 90 471 97 471 108 c 1
 471 505 l 2
 471 540 465 544 415 544 c 1
 415 570 l 1
 529 577 l 1
 529 108 l 1
 529 96 530 89 536 86 c 1
 542 83 565 83 585 83 c 1
 585 57 l 1
 557 58 522 59 500 59 c 0
 478 59 440 58 415 57 c 1
EndSplineSet
EndChar
StartChar: uF1FBF
Encoding: 991167 991167 1028
Width: 1000
Flags: MW
LayerCount: 2
Fore
SplineSet
49 300 m 0
 49 384 61 495 112 605 c 0
 171 732 261 800 271 800 c 0
 277 800 281 797 281 790 c 0
 281 787 281 785 268 773 c 0
 145 648 107 474 107 300 c 0
 107 223 115 137 139 54 c 0
 162 -28 202 -106 264 -168 c 0
 281 -185 281 -187 281 -190 c 0
 281 -197 277 -200 271 -200 c 0
 261 -200 175 -135 115 -12 c 0
 60 101 49 222 49 300 c 0
720 -190 m 0
 720 -187 720 -185 733 -173 c 0
 857 -47 894 129 894 300 c 0
 894 509 837 668 739 767 c 0
 720 785 720 787 720 790 c 0
 720 796 724 800 730 800 c 0
 740 800 826 735 886 612 c 0
 941 499 952 378 952 300 c 0
 952 216 940 105 889 -5 c 0
 830 -132 740 -200 730 -200 c 0
 724 -200 720 -196 720 -190 c 0
309 -63 m 1
 331 -63 355 -63 361 -57 c 1
 364 -54 366 -48 366 -38 c 1
 366 321 l 2
 366 353 360 355 309 355 c 1
 309 381 l 1
 424 389 l 1
 424 343 l 1
 440 359 472 389 530 389 c 0
 620 389 691 315 691 219 c 0
 691 120 614 49 519 49 c 0
 469 49 436 81 425 97 c 1
 425 91 l 1
 425 -38 l 1
 425 -49 427 -56 432 -59 c 1
 438 -63 461 -63 482 -63 c 1
 482 -89 l 1
 457 -88 418 -87 396 -87 c 0
 374 -87 334 -88 309 -89 c 1
 309 -63 l 1
425 142 m 2
 425 127 426 127 436 113 c 0
 460 80 490 68 515 68 c 0
 569 68 621 124 621 219 c 0
 621 306 576 368 522 368 c 0
 490 368 452 350 428 314 c 1
 426 312 425 312 425 308 c 1
 425 142 l 2
EndSplineSet
EndChar
StartChar: uF1FC0
Encoding: 991168 991168 1029
Width: 1000
Flags: MW
LayerCount: 2
Fore
SplineSet
49 300 m 0
 49 384 61 495 112 605 c 0
 171 732 261 800 271 800 c 0
 277 800 281 797 281 790 c 0
 281 787 281 785 268 773 c 0
 145 648 107 474 107 300 c 0
 107 223 115 137 139 54 c 0
 162 -28 202 -106 264 -168 c 0
 281 -185 281 -187 281 -190 c 0
 281 -197 277 -200 271 -200 c 0
 261 -200 175 -135 115 -12 c 0
 60 101 49 222 49 300 c 0
720 -190 m 0
 720 -187 720 -185 733 -173 c 0
 857 -47 894 129 894 300 c 0
 894 509 837 668 739 767 c 0
 720 785 720 787 720 790 c 0
 720 796 724 800 730 800 c 0
 740 800 826 735 886 612 c 0
 941 499 952 378 952 300 c 0
 952 216 940 105 889 -5 c 0
 830 -132 740 -200 730 -200 c 0
 724 -200 720 -196 720 -190 c 0
309 219 m 0
 309 319 386 389 479 389 c 0
 535 389 569 348 583 323 c 1
 615 389 l 1
 634 389 l 1
 634 -38 l 1
 634 -51 636 -58 643 -61 c 1
 649 -64 673 -63 691 -63 c 1
 691 -89 l 1
 666 -88 626 -87 604 -87 c 0
 582 -87 543 -88 518 -89 c 1
 518 -63 l 1
 538 -63 562 -63 568 -59 c 1
 574 -56 575 -50 575 -38 c 1
 575 100 l 1
 555 76 520 49 472 49 c 0
 381 49 309 122 309 219 c 0
379 219 m 0
 379 129 425 68 478 68 c 0
 510 68 537 86 552 104 c 0
 567 122 576 137 576 159 c 2
 576 265 l 2
 576 305 544 368 485 368 c 0
 432 368 379 312 379 219 c 0
EndSplineSet
EndChar
StartChar: uF1FC7
Encoding: 991175 991175 1036
Width: 1000
Flags: MW
LayerCount: 2
Fore
SplineSet
49 300 m 0
 49 384 61 495 112 605 c 0
 171 732 261 800 271 800 c 0
 277 800 281 797 281 790 c 0
 281 787 281 785 268 773 c 0
 145 648 107 474 107 300 c 0
 107 223 115 137 139 54 c 0
 162 -28 202 -106 264 -168 c 0
 281 -185 281 -187 281 -190 c 0
 281 -197 277 -200 271 -200 c 0
 261 -200 175 -135 115 -12 c 0
 60 101 49 222 49 300 c 0
720 -190 m 0
 720 -187 720 -185 733 -173 c 0
 857 -47 894 129 894 300 c 0
 894 509 837 668 739 767 c 0
 720 785 720 787 720 790 c 0
 720 796 724 800 730 800 c 0
 740 800 826 735 886 612 c 0
 941 499 952 378 952 300 c 0
 952 216 940 105 889 -5 c 0
 830 -132 740 -200 730 -200 c 0
 724 -200 720 -196 720 -190 c 0
305 54 m 1
 305 80 l 1
 326 80 366 82 396 118 c 1
 474 212 l 1
 389 319 l 1
 377 335 370 344 362 348 c 1
 353 354 331 354 310 354 c 1
 310 380 l 1
 331 378 366 378 384 378 c 0
 399 378 447 379 467 380 c 1
 467 354 l 1
 456 353 440 348 440 340 c 1
 440 337 440 336 445 330 c 1
 507 251 l 1
 557 312 l 2
 561 316 567 325 568 335 c 1
 566 345 558 352 544 354 c 1
 544 380 l 1
 557 379 597 378 618 378 c 0
 634 378 659 378 681 380 c 1
 681 354 l 1
 639 353 614 344 594 321 c 1
 580 306 537 253 521 232 c 1
 628 98 l 1
 641 82 665 80 695 80 c 1
 695 54 l 1
 672 56 641 56 620 56 c 0
 602 56 559 55 537 54 c 1
 537 80 l 1
 552 81 564 90 564 95 c 1
 564 98 556 108 552 114 c 1
 489 194 l 1
 464 165 431 126 424 114 c 1
 420 107 419 103 419 100 c 0
 419 91 426 82 442 80 c 1
 442 54 l 1
 425 55 390 56 369 56 c 0
 353 56 327 56 305 54 c 1
EndSplineSet
EndChar
StartChar: uF2060
Encoding: 991328 991328 167
Width: 1000
Flags: MW
LayerCount: 2
Fore
SplineSet
50 300 m 0
 50 555 246 770 500 770 c 0
 741 770 950 566 950 300 c 0
 950 46 754 -170 500 -170 c 0
 259 -170 50 34 50 300 c 0
306 168 m 0
 306 139 319 114 343 95 c 0
 374 67 424 51 491 51 c 0
 629 51 694 122 694 196 c 0
 694 253 652 311 548 329 c 1
 626 348 672 399 672 459 c 0
 672 520 605 563 493 563 c 0
 433 563 389 549 362 527 c 0
 339 509 328 486 328 460 c 0
 328 433 345 417 369 417 c 0
 395 417 416 434 416 458 c 0
 416 498 375 500 366 500 c 1
 370 506 374 510 380 514 c 0
 409 535 458 541 489 541 c 0
 543 541 590 517 590 460 c 0
 590 452 588 409 560 377 c 1
 531 345 496 340 466 339 c 0
 450 338 429 336 422 336 c 0
 413 335 408 334 408 327 c 0
 408 317 414 317 433 317 c 2
 481 317 l 2
 575 317 607 261 607 196 c 0
 607 111 550 75 488 75 c 0
 446 75 378 86 350 124 c 1
 376 123 397 140 397 169 c 0
 397 198 377 214 352 214 c 0
 330 214 306 202 306 168 c 0
EndSplineSet
EndChar
StartChar: uF2063
Encoding: 991331 991331 170
Width: 1000
Flags: MW
LayerCount: 2
Fore
SplineSet
50 300 m 0
 50 555 246 770 500 770 c 0
 741 770 950 566 950 300 c 0
 950 46 754 -170 500 -170 c 0
 259 -170 50 34 50 300 c 0
300 303 m 0
 300 230 313 172 336 130 c 1
 369 70 438 51 502 51 c 0
 626 51 700 120 700 219 c 0
 700 317 630 384 510 384 c 0
 448 384 403 355 377 314 c 1
 377 331 l 2
 377 410 397 456 423 483 c 0
 463 527 523 541 563 541 c 0
 587 541 630 538 646 514 c 1
 631 513 596 509 596 478 c 0
 596 454 621 440 642 440 c 0
 658 440 680 450 680 479 c 0
 680 503 670 524 649 539 c 0
 630 553 602 563 561 563 c 0
 421 563 300 475 300 303 c 0
379 232 m 0
 379 299 418 365 507 365 c 0
 531 365 577 361 605 321 c 0
 623 294 623 258 623 220 c 0
 623 184 624 148 606 122 c 0
 578 82 534 75 502 75 c 0
 437 75 405 116 398 127 c 0
 379 159 379 218 379 232 c 0
EndSplineSet
EndChar
StartChar: uF2065
Encoding: 991333 991333 172
Width: 1000
Flags: MW
LayerCount: 2
Fore
SplineSet
50 300 m 0
 50 555 246 770 500 770 c 0
 741 770 950 566 950 300 c 0
 950 46 754 -170 500 -170 c 0
 259 -170 50 34 50 300 c 0
288 181 m 0
 288 98 380 51 499 51 c 0
 632 51 712 115 712 195 c 0
 712 226 702 258 676 288 c 0
 655 305 635 313 575 338 c 1
 651 366 692 404 692 452 c 0
 692 523 604 563 501 563 c 0
 385 563 308 506 308 436 c 0
 308 420 311 387 346 354 c 0
 358 344 394 328 421 316 c 1
 355 292 288 251 288 181 c 0
332 181 m 0
 332 229 370 272 450 302 c 1
 458 298 574 250 587 244 c 1
 621 229 668 209 668 165 c 0
 668 107 583 75 501 75 c 0
 405 75 332 120 332 181 c 0
354 469 m 0
 354 517 429 541 499 541 c 0
 580 541 646 504 646 451 c 0
 646 409 607 377 546 352 c 1
 406 412 l 2
 363 430 354 453 354 469 c 0
EndSplineSet
EndChar
StartChar: uF269C
Encoding: 992924 992924 1040
Width: 1000
Flags: MW
LayerCount: 2
Fore
SplineSet
49 300 m 0
 49 384 61 495 112 605 c 0
 171 732 261 800 271 800 c 0
 277 800 281 797 281 790 c 0
 281 787 281 785 268 773 c 0
 145 648 107 474 107 300 c 0
 107 223 115 137 139 54 c 0
 162 -28 202 -106 264 -168 c 0
 281 -185 281 -187 281 -190 c 0
 281 -197 277 -200 271 -200 c 0
 261 -200 175 -135 115 -12 c 0
 60 101 49 222 49 300 c 0
720 -190 m 0
 720 -187 720 -185 733 -173 c 0
 857 -47 894 129 894 300 c 0
 894 509 837 668 739 767 c 0
 720 785 720 787 720 790 c 0
 720 796 724 800 730 800 c 0
 740 800 826 735 886 612 c 0
 941 499 952 378 952 300 c 0
 952 216 940 105 889 -5 c 0
 830 -132 740 -200 730 -200 c 0
 724 -200 720 -196 720 -190 c 0
529 305 m 0
 529 362 532 428 561 482 c 1
 590 542 639 563 687 563 c 0
 723 563 779 549 810 489 c 0
 842 433 845 363 845 305 c 0
 845 248 842 181 812 128 c 0
 782 68 730 51 687 51 c 0
 646 51 596 67 566 120 c 0
 531 177 529 251 529 305 c 0
596 315 m 0
 596 272 597 200 605 156 c 0
 617 88 659 70 687 70 c 0
 717 70 760 89 770 160 c 0
 777 206 778 263 778 315 c 0
 778 366 778 428 769 466 c 0
 755 530 712 544 687 544 c 0
 669 544 614 538 602 454 c 0
 596 414 596 365 596 315 c 0
154 305 m 0
 154 362 157 428 186 482 c 1
 215 542 264 563 312 563 c 0
 348 563 404 549 435 489 c 0
 467 433 470 363 470 305 c 0
 470 248 467 181 437 128 c 0
 407 68 355 51 312 51 c 0
 271 51 222 67 192 120 c 0
 157 177 154 251 154 305 c 0
222 315 m 0
 222 272 222 200 230 156 c 0
 242 88 284 70 312 70 c 0
 342 70 385 89 395 160 c 0
 402 206 403 263 403 315 c 0
 403 366 403 428 394 466 c 0
 380 530 337 544 312 544 c 0
 294 544 240 538 228 454 c 0
 222 414 222 365 222 315 c 0
EndSplineSet
EndChar
StartChar: uF269E
Encoding: 992926 992926 1042
Width: 1000
Flags: MW
LayerCount: 2
Fore
SplineSet
49 300 m 0
 49 384 61 495 112 605 c 0
 171 732 261 800 271 800 c 0
 277 800 281 797 281 790 c 0
 281 787 281 785 268 773 c 0
 145 648 107 474 107 300 c 0
 107 223 115 137 139 54 c 0
 162 -28 202 -106 264 -168 c 0
 281 -185 281 -187 281 -190 c 0
 281 -197 277 -200 271 -200 c 0
 261 -200 175 -135 115 -12 c 0
 60 101 49 222 49 300 c 0
720 -190 m 0
 720 -187 720 -185 733 -173 c 0
 857 -47 894 129 894 300 c 0
 894 509 837 668 739 767 c 0
 720 785 720 787 720 790 c 0
 720 796 724 800 730 800 c 0
 740 800 826 735 886 612 c 0
 941 499 952 378 952 300 c 0
 952 216 940 105 889 -5 c 0
 830 -132 740 -200 730 -200 c 0
 724 -200 720 -196 720 -190 c 0
536 65 m 1
 536 69 536 76 536 78 c 2
 536 88 538 89 544 96 c 2
 685 255 l 2
 727 303 762 360 762 418 c 0
 762 478 729 537 664 537 c 0
 625 537 590 513 572 472 c 1
 574 472 577 472 582 472 c 0
 605 470 619 453 619 430 c 0
 619 397 593 387 578 387 c 0
 572 387 536 390 536 432 c 0
 536 499 592 563 676 563 c 0
 768 563 835 504 835 418 c 0
 835 344 791 306 685 212 c 1
 678 206 610 139 602 132 c 1
 727 132 l 2
 741 132 791 132 797 138 c 1
 805 148 809 185 813 205 c 1
 835 205 l 1
 814 65 l 1
 536 65 l 1
153 305 m 0
 153 362 155 428 184 482 c 1
 213 542 263 563 311 563 c 0
 347 563 402 549 433 489 c 0
 465 433 468 363 468 305 c 0
 468 248 466 181 436 128 c 0
 406 68 353 51 310 51 c 0
 269 51 220 67 190 120 c 0
 155 177 153 251 153 305 c 0
220 315 m 0
 220 272 220 200 228 156 c 0
 240 88 282 70 310 70 c 0
 340 70 384 89 394 160 c 0
 401 206 401 263 401 315 c 0
 401 366 402 428 393 466 c 0
 379 530 335 544 310 544 c 0
 292 544 238 538 226 454 c 0
 220 414 220 365 220 315 c 0
EndSplineSet
EndChar
StartChar: uF26A3
Encoding: 992931 992931 1047
Width: 1000
Flags: MW
LayerCount: 2
Fore
SplineSet
49 300 m 0
 49 384 61 495 112 605 c 0
 171 732 261 800 271 800 c 0
 277 800 281 797 281 790 c 0
 281 787 281 785 268 773 c 0
 145 648 107 474 107 300 c 0
 107 223 115 137 139 54 c 0
 162 -28 202 -106 264 -168 c 0
 281 -185 281 -187 281 -190 c 0
 281 -197 277 -200 271 -200 c 0
 261 -200 175 -135 115 -12 c 0
 60 101 49 222 49 300 c 0
720 -190 m 0
 720 -187 720 -185 733 -173 c 0
 857 -47 894 129 894 300 c 0
 894 509 837 668 739 767 c 0
 720 785 720 787 720 790 c 0
 720 796 724 800 730 800 c 0
 740 800 826 735 886 612 c 0
 941 499 952 378 952 300 c 0
 952 216 940 105 889 -5 c 0
 830 -132 740 -200 730 -200 c 0
 724 -200 720 -196 720 -190 c 0
545 410 m 1
 570 574 l 1
 590 574 l 1
 592 565 594 558 614 554 c 1
 627 552 667 550 696 550 c 2
 867 550 l 1
 867 532 867 530 860 521 c 2
 759 381 l 2
 729 339 718 279 714 254 c 0
 708 215 706 174 706 134 c 2
 706 96 l 2
 706 78 698 52 670 52 c 0
 644 52 634 77 634 96 c 0
 634 181 663 285 730 382 c 1
 742 401 796 474 802 483 c 1
 658 483 l 2
 648 483 591 482 585 478 c 0
 577 471 570 433 567 410 c 1
 545 410 l 1
157 307 m 0
 157 364 160 430 189 484 c 1
 218 544 268 564 316 564 c 0
 352 564 407 550 438 490 c 0
 470 434 473 365 473 307 c 0
 473 250 470 183 440 130 c 0
 410 70 358 52 315 52 c 0
 274 52 224 68 194 121 c 0
 159 178 157 253 157 307 c 0
225 316 m 0
 225 273 225 201 233 157 c 0
 245 89 287 72 315 72 c 0
 345 72 388 91 398 162 c 0
 405 208 406 264 406 316 c 0
 406 367 406 430 397 468 c 0
 383 532 340 546 315 546 c 0
 297 546 243 539 231 455 c 0
 225 415 225 366 225 316 c 0
EndSplineSet
EndChar
StartChar: uF26A4
Encoding: 992932 992932 1048
Width: 1000
Flags: MW
LayerCount: 2
Fore
SplineSet
49 300 m 0
 49 384 61 495 112 605 c 0
 171 732 261 800 271 800 c 0
 277 800 281 797 281 790 c 0
 281 787 281 785 268 773 c 0
 145 648 107 474 107 300 c 0
 107 223 115 137 139 54 c 0
 162 -28 202 -106 264 -168 c 0
 281 -185 281 -187 281 -190 c 0
 281 -197 277 -200 271 -200 c 0
 261 -200 175 -135 115 -12 c 0
 60 101 49 222 49 300 c 0
720 -190 m 0
 720 -187 720 -185 733 -173 c 0
 857 -47 894 129 894 300 c 0
 894 509 837 668 739 767 c 0
 720 785 720 787 720 790 c 0
 720 796 724 800 730 800 c 0
 740 800 826 735 886 612 c 0
 941 499 952 378 952 300 c 0
 952 216 940 105 889 -5 c 0
 830 -132 740 -200 730 -200 c 0
 724 -200 720 -196 720 -190 c 0
531 181 m 0
 531 251 586 292 633 316 c 1
 615 328 590 344 582 354 c 0
 553 387 551 420 551 436 c 0
 551 506 609 563 688 563 c 0
 758 563 822 523 822 452 c 0
 822 404 789 366 737 338 c 1
 777 313 792 305 807 288 c 0
 833 258 842 226 842 195 c 0
 842 115 776 51 686 51 c 0
 606 51 531 98 531 181 c 0
573 181 m 0
 573 120 624 75 688 75 c 0
 744 75 800 107 800 165 c 0
 800 209 767 229 744 244 c 1
 735 250 659 298 653 302 c 1
 599 272 573 229 573 181 c 0
588 469 m 0
 588 453 596 430 624 412 c 2
 718 352 l 1
 759 377 785 409 785 451 c 0
 785 504 741 541 686 541 c 0
 640 541 588 517 588 469 c 0
154 305 m 0
 154 362 157 428 186 482 c 1
 215 542 264 563 312 563 c 0
 348 563 404 549 435 489 c 0
 467 433 470 363 470 305 c 0
 470 248 467 181 437 128 c 0
 407 68 354 51 311 51 c 0
 270 51 222 67 192 120 c 0
 157 177 154 251 154 305 c 0
222 315 m 0
 222 272 221 200 229 156 c 0
 241 88 283 70 311 70 c 0
 341 70 385 89 395 160 c 0
 402 206 402 263 402 315 c 0
 402 366 403 428 394 466 c 0
 380 530 336 544 311 544 c 0
 293 544 239 538 227 454 c 0
 221 414 222 365 222 315 c 0
EndSplineSet
EndChar
StartChar: uF26A5
Encoding: 992933 992933 1049
Width: 1000
Flags: MW
LayerCount: 2
Fore
SplineSet
49 300 m 0
 49 384 61 495 112 605 c 0
 171 732 261 800 271 800 c 0
 277 800 281 797 281 790 c 0
 281 787 281 785 268 773 c 0
 145 648 107 474 107 300 c 0
 107 223 115 137 139 54 c 0
 162 -28 202 -106 264 -168 c 0
 281 -185 281 -187 281 -190 c 0
 281 -197 277 -200 271 -200 c 0
 261 -200 175 -135 115 -12 c 0
 60 101 49 222 49 300 c 0
720 -190 m 0
 720 -187 720 -185 733 -173 c 0
 857 -47 894 129 894 300 c 0
 894 509 837 668 739 767 c 0
 720 785 720 787 720 790 c 0
 720 796 724 800 730 800 c 0
 740 800 826 735 886 612 c 0
 941 499 952 378 952 300 c 0
 952 216 940 105 889 -5 c 0
 830 -132 740 -200 730 -200 c 0
 724 -200 720 -196 720 -190 c 0
531 396 m 0
 531 451 548 486 579 518 c 1
 610 550 647 563 689 563 c 0
 778 563 842 476 842 312 c 0
 842 143 748 51 654 51 c 0
 588 51 550 85 550 135 c 0
 550 164 570 174 586 174 c 0
 604 174 622 160 622 136 c 0
 622 118 612 99 585 99 c 1
 605 76 640 75 653 75 c 0
 684 75 719 92 742 134 c 0
 759 164 770 211 770 279 c 2
 770 301 l 1
 751 255 720 231 680 231 c 0
 597 231 531 300 531 396 c 0
604 395 m 0
 604 357 603 321 616 294 c 0
 635 254 666 250 682 250 c 0
 745 250 768 324 768 382 c 0
 768 414 766 461 757 485 c 0
 747 513 724 541 689 541 c 0
 661 541 636 532 618 498 c 0
 603 471 604 435 604 395 c 0
154 305 m 0
 154 362 157 428 186 482 c 1
 215 542 264 563 312 563 c 0
 348 563 404 549 435 489 c 0
 467 433 470 363 470 305 c 0
 470 248 467 181 437 128 c 0
 407 68 354 51 311 51 c 0
 270 51 222 67 192 120 c 0
 157 177 154 251 154 305 c 0
222 315 m 0
 222 272 221 200 229 156 c 0
 241 88 283 70 311 70 c 0
 341 70 385 89 395 160 c 0
 402 206 402 263 402 315 c 0
 402 366 403 428 394 466 c 0
 380 530 336 544 311 544 c 0
 293 544 239 538 227 454 c 0
 221 414 222 365 222 315 c 0
EndSplineSet
EndChar
StartChar: uF26A6
Encoding: 992934 992934 1050
Width: 1000
Flags: MW
LayerCount: 2
Fore
SplineSet
49 300 m 0
 49 384 61 495 112 605 c 0
 171 732 261 800 271 800 c 0
 277 800 281 797 281 790 c 0
 281 787 281 785 268 773 c 0
 145 648 107 474 107 300 c 0
 107 223 115 137 139 54 c 0
 162 -28 202 -106 264 -168 c 0
 281 -185 281 -187 281 -190 c 0
 281 -197 277 -200 271 -200 c 0
 261 -200 175 -135 115 -12 c 0
 60 101 49 222 49 300 c 0
720 -190 m 0
 720 -187 720 -185 733 -173 c 0
 857 -47 894 129 894 300 c 0
 894 509 837 668 739 767 c 0
 720 785 720 787 720 790 c 0
 720 796 724 800 730 800 c 0
 740 800 826 735 886 612 c 0
 941 499 952 378 952 300 c 0
 952 216 940 105 889 -5 c 0
 830 -132 740 -200 730 -200 c 0
 724 -200 720 -196 720 -190 c 0
560 492 m 1
 560 518 l 1
 564 518 l 1
 588 518 650 519 695 560 c 0
 698 563 698 564 702 566 c 1
 719 566 720 562 720 544 c 2
 720 121 l 1
 720 100 743 94 794 94 c 1
 812 94 l 1
 812 68 l 1
 786 70 719 70 689 70 c 0
 659 70 591 70 565 68 c 1
 565 94 l 1
 583 94 l 1
 634 94 658 101 658 121 c 1
 658 510 l 1
 622 494 580 492 564 492 c 1
 560 492 l 1
159 68 m 1
 159 72 159 78 159 80 c 2
 159 90 161 91 167 98 c 2
 308 258 l 2
 350 306 385 362 385 420 c 0
 385 480 353 540 288 540 c 0
 249 540 213 516 195 475 c 1
 197 475 199 475 204 475 c 0
 227 473 241 456 241 433 c 0
 241 400 215 390 200 390 c 0
 194 390 159 393 159 435 c 0
 159 502 215 566 299 566 c 0
 391 566 458 506 458 420 c 0
 458 346 414 308 308 214 c 1
 301 208 232 142 224 135 c 1
 350 135 l 2
 364 135 414 134 420 140 c 1
 428 150 432 188 436 208 c 1
 458 208 l 1
 438 68 l 1
 159 68 l 1
EndSplineSet
EndChar
StartChar: uF26A7
Encoding: 992935 992935 1051
Width: 1000
Flags: MW
LayerCount: 2
Fore
SplineSet
49 300 m 0
 49 384 61 495 112 605 c 0
 171 732 261 800 271 800 c 0
 277 800 281 797 281 790 c 0
 281 787 281 785 268 773 c 0
 145 648 107 474 107 300 c 0
 107 223 115 137 139 54 c 0
 162 -28 202 -106 264 -168 c 0
 281 -185 281 -187 281 -190 c 0
 281 -197 277 -200 271 -200 c 0
 261 -200 175 -135 115 -12 c 0
 60 101 49 222 49 300 c 0
720 -190 m 0
 720 -187 720 -185 733 -173 c 0
 857 -47 894 129 894 300 c 0
 894 509 837 668 739 767 c 0
 720 785 720 787 720 790 c 0
 720 796 724 800 730 800 c 0
 740 800 826 735 886 612 c 0
 941 499 952 378 952 300 c 0
 952 216 940 105 889 -5 c 0
 830 -132 740 -200 730 -200 c 0
 724 -200 720 -196 720 -190 c 0
537 68 m 1
 537 72 537 78 537 80 c 2
 537 90 540 91 546 98 c 2
 687 258 l 2
 729 306 763 362 763 420 c 0
 763 480 731 540 666 540 c 0
 627 540 592 516 574 475 c 1
 576 475 577 475 582 475 c 0
 605 473 620 456 620 433 c 0
 620 400 594 390 579 390 c 0
 573 390 537 393 537 435 c 0
 537 502 594 566 678 566 c 0
 770 566 837 506 837 420 c 0
 837 346 792 308 686 214 c 1
 679 208 611 142 603 135 c 1
 728 135 l 2
 742 135 792 134 798 140 c 1
 806 150 811 188 815 208 c 1
 837 208 l 1
 816 68 l 1
 537 68 l 1
162 68 m 1
 162 72 162 78 162 80 c 2
 162 90 165 91 171 98 c 2
 312 258 l 2
 354 306 388 362 388 420 c 0
 388 480 356 540 291 540 c 0
 252 540 217 516 199 475 c 1
 201 475 203 475 208 475 c 0
 231 473 245 456 245 433 c 0
 245 400 219 390 204 390 c 0
 198 390 162 393 162 435 c 0
 162 502 219 566 303 566 c 0
 395 566 462 506 462 420 c 0
 462 346 418 308 312 214 c 1
 305 208 236 142 228 135 c 1
 353 135 l 2
 367 135 417 134 423 140 c 1
 431 150 436 188 440 208 c 1
 462 208 l 1
 441 68 l 1
 162 68 l 1
EndSplineSet
EndChar
StartChar: uF26AD
Encoding: 992941 992941 1057
Width: 1000
Flags: MW
LayerCount: 2
Fore
SplineSet
49 300 m 0
 49 384 61 495 112 605 c 0
 171 732 261 800 271 800 c 0
 277 800 281 797 281 790 c 0
 281 787 281 785 268 773 c 0
 145 648 107 474 107 300 c 0
 107 223 115 137 139 54 c 0
 162 -28 202 -106 264 -168 c 0
 281 -185 281 -187 281 -190 c 0
 281 -197 277 -200 271 -200 c 0
 261 -200 175 -135 115 -12 c 0
 60 101 49 222 49 300 c 0
720 -190 m 0
 720 -187 720 -185 733 -173 c 0
 857 -47 894 129 894 300 c 0
 894 509 837 668 739 767 c 0
 720 785 720 787 720 790 c 0
 720 796 724 800 730 800 c 0
 740 800 826 735 886 612 c 0
 941 499 952 378 952 300 c 0
 952 216 940 105 889 -5 c 0
 830 -132 740 -200 730 -200 c 0
 724 -200 720 -196 720 -190 c 0
532 181 m 0
 532 251 587 292 634 316 c 1
 616 328 592 344 584 354 c 0
 555 387 553 420 553 436 c 0
 553 506 609 563 688 563 c 0
 758 563 823 523 823 452 c 0
 823 404 791 366 739 338 c 1
 779 313 793 305 808 288 c 0
 834 258 844 226 844 195 c 0
 844 115 778 51 688 51 c 0
 608 51 532 98 532 181 c 0
575 181 m 0
 575 120 624 75 688 75 c 0
 744 75 802 107 802 165 c 0
 802 209 769 229 746 244 c 1
 737 250 661 298 655 302 c 1
 601 272 575 229 575 181 c 0
590 469 m 0
 590 453 597 430 625 412 c 2
 719 352 l 1
 760 377 786 409 786 451 c 0
 786 504 743 541 688 541 c 0
 642 541 590 517 590 469 c 0
163 65 m 1
 163 69 163 76 163 78 c 2
 163 88 166 89 172 96 c 2
 313 255 l 2
 355 303 389 360 389 418 c 0
 389 478 357 537 292 537 c 0
 253 537 218 513 200 472 c 1
 202 472 203 472 208 472 c 0
 231 470 246 453 246 430 c 0
 246 397 220 387 205 387 c 0
 199 387 163 390 163 432 c 0
 163 499 220 563 304 563 c 0
 396 563 463 504 463 418 c 0
 463 344 418 306 312 212 c 1
 305 206 237 139 229 132 c 1
 354 132 l 2
 368 132 418 132 424 138 c 1
 432 148 437 185 441 205 c 1
 463 205 l 1
 442 65 l 1
 163 65 l 1
EndSplineSet
EndChar
StartChar: uF26B0
Encoding: 992944 992944 1060
Width: 1000
Flags: MW
LayerCount: 2
Fore
SplineSet
49 300 m 0
 49 384 61 495 112 605 c 0
 171 732 261 800 271 800 c 0
 277 800 281 797 281 790 c 0
 281 787 281 785 268 773 c 0
 145 648 107 474 107 300 c 0
 107 223 115 137 139 54 c 0
 162 -28 202 -106 264 -168 c 0
 281 -185 281 -187 281 -190 c 0
 281 -197 277 -200 271 -200 c 0
 261 -200 175 -135 115 -12 c 0
 60 101 49 222 49 300 c 0
720 -190 m 0
 720 -187 720 -185 733 -173 c 0
 857 -47 894 129 894 300 c 0
 894 509 837 668 739 767 c 0
 720 785 720 787 720 790 c 0
 720 796 724 800 730 800 c 0
 740 800 826 735 886 612 c 0
 941 499 952 378 952 300 c 0
 952 216 940 105 889 -5 c 0
 830 -132 740 -200 730 -200 c 0
 724 -200 720 -196 720 -190 c 0
560 489 m 1
 560 515 l 1
 563 515 l 1
 587 515 649 517 694 558 c 0
 697 561 697 561 701 563 c 1
 718 563 719 560 719 542 c 2
 719 119 l 1
 719 98 743 92 794 92 c 1
 812 92 l 1
 812 65 l 1
 786 67 718 68 688 68 c 0
 658 68 590 67 564 65 c 1
 564 92 l 1
 582 92 l 1
 633 92 658 99 658 119 c 1
 658 507 l 1
 622 491 579 489 563 489 c 1
 560 489 l 1
152 168 m 0
 152 202 176 214 196 214 c 0
 220 214 240 198 240 169 c 0
 240 140 218 123 193 124 c 1
 221 86 272 75 300 75 c 0
 342 75 381 111 381 196 c 0
 381 261 360 317 296 317 c 2
 264 317 l 2
 251 317 246 317 246 327 c 0
 246 334 250 335 256 336 c 0
 260 336 275 338 286 339 c 0
 306 340 330 345 349 377 c 1
 369 409 369 452 369 460 c 0
 369 517 338 541 301 541 c 0
 276 541 231 533 208 500 c 1
 217 500 252 498 252 458 c 0
 252 434 236 417 212 417 c 0
 189 417 172 433 172 460 c 0
 172 518 228 563 304 563 c 0
 381 563 443 520 443 459 c 0
 443 399 400 348 342 329 c 1
 424 311 464 253 464 196 c 0
 464 122 400 51 302 51 c 0
 220 51 152 100 152 168 c 0
EndSplineSet
EndChar
StartChar: uF26B3
Encoding: 992947 992947 1063
Width: 1000
Flags: MW
LayerCount: 2
Fore
SplineSet
49 300 m 0
 49 384 61 495 112 605 c 0
 171 732 261 800 271 800 c 0
 277 800 281 797 281 790 c 0
 281 787 281 785 268 773 c 0
 145 648 107 474 107 300 c 0
 107 223 115 137 139 54 c 0
 162 -28 202 -106 264 -168 c 0
 281 -185 281 -187 281 -190 c 0
 281 -197 277 -200 271 -200 c 0
 261 -200 175 -135 115 -12 c 0
 60 101 49 222 49 300 c 0
720 -190 m 0
 720 -187 720 -185 733 -173 c 0
 857 -47 894 129 894 300 c 0
 894 509 837 668 739 767 c 0
 720 785 720 787 720 790 c 0
 720 796 724 800 730 800 c 0
 740 800 826 735 886 612 c 0
 941 499 952 378 952 300 c 0
 952 216 940 105 889 -5 c 0
 830 -132 740 -200 730 -200 c 0
 724 -200 720 -196 720 -190 c 0
523 189 m 1
 523 215 l 1
 752 561 l 2
 758 571 760 571 769 571 c 0
 783 571 783 566 783 550 c 2
 783 215 l 1
 855 215 l 1
 855 189 l 1
 783 189 l 1
 783 119 l 1
 783 99 800 93 842 93 c 1
 854 93 l 1
 854 67 l 1
 825 69 781 69 751 69 c 0
 720 69 676 69 646 67 c 1
 646 93 l 1
 658 93 l 1
 700 93 719 99 719 119 c 1
 719 189 l 1
 523 189 l 1
547 215 m 1
 725 215 l 1
 725 483 l 1
 547 215 l 1
158 168 m 0
 158 202 182 216 202 216 c 0
 226 216 246 199 246 170 c 0
 246 141 225 124 200 125 c 1
 228 87 278 76 306 76 c 0
 348 76 386 111 386 196 c 0
 386 261 366 318 302 318 c 2
 270 318 l 2
 257 318 252 318 252 328 c 0
 252 335 256 337 262 338 c 0
 266 338 281 339 292 340 c 0
 312 341 336 346 355 378 c 1
 375 410 375 454 375 462 c 0
 375 519 344 543 307 543 c 0
 282 543 237 534 214 501 c 1
 223 501 259 500 259 460 c 0
 259 436 243 418 219 418 c 0
 196 418 178 433 178 460 c 0
 178 518 234 564 310 564 c 0
 387 564 449 521 449 460 c 0
 449 400 405 350 347 331 c 1
 429 313 469 253 469 196 c 0
 469 122 407 52 309 52 c 0
 227 52 158 100 158 168 c 0
EndSplineSet
EndChar
StartChar: uF26B7
Encoding: 992951 992951 1067
Width: 1000
Flags: MW
LayerCount: 2
Fore
SplineSet
49 300 m 0
 49 384 61 495 112 605 c 0
 171 732 261 800 271 800 c 0
 277 800 281 797 281 790 c 0
 281 787 281 785 268 773 c 0
 145 648 107 474 107 300 c 0
 107 223 115 137 139 54 c 0
 162 -28 202 -106 264 -168 c 0
 281 -185 281 -187 281 -190 c 0
 281 -197 277 -200 271 -200 c 0
 261 -200 175 -135 115 -12 c 0
 60 101 49 222 49 300 c 0
720 -190 m 0
 720 -187 720 -185 733 -173 c 0
 857 -47 894 129 894 300 c 0
 894 509 837 668 739 767 c 0
 720 785 720 787 720 790 c 0
 720 796 724 800 730 800 c 0
 740 800 826 735 886 612 c 0
 941 499 952 378 952 300 c 0
 952 216 940 105 889 -5 c 0
 830 -132 740 -200 730 -200 c 0
 724 -200 720 -196 720 -190 c 0
531 181 m 0
 531 251 586 292 633 316 c 1
 615 328 591 344 583 354 c 0
 554 387 552 420 552 436 c 0
 552 506 609 563 688 563 c 0
 758 563 822 523 822 452 c 0
 822 404 790 366 738 338 c 1
 778 313 792 305 807 288 c 0
 833 258 843 226 843 195 c 0
 843 115 777 51 687 51 c 0
 607 51 531 98 531 181 c 0
574 181 m 0
 574 120 624 75 688 75 c 0
 744 75 800 107 800 165 c 0
 800 209 769 229 746 244 c 1
 737 250 660 298 654 302 c 1
 600 272 574 229 574 181 c 0
589 469 m 0
 589 453 596 430 624 412 c 2
 718 352 l 1
 759 377 785 409 785 451 c 0
 785 504 742 541 687 541 c 0
 641 541 589 517 589 469 c 0
156 168 m 0
 156 202 180 214 200 214 c 0
 224 214 244 198 244 169 c 0
 244 140 223 123 198 124 c 1
 226 86 276 75 304 75 c 0
 346 75 385 111 385 196 c 0
 385 261 364 317 300 317 c 2
 268 317 l 2
 255 317 250 317 250 327 c 0
 250 334 254 335 260 336 c 0
 264 336 280 338 291 339 c 0
 311 340 334 345 353 377 c 1
 373 409 373 452 373 460 c 0
 373 517 342 541 305 541 c 0
 280 541 236 533 213 500 c 1
 222 500 257 498 257 458 c 0
 257 434 241 417 217 417 c 0
 194 417 177 433 177 460 c 0
 177 518 232 563 308 563 c 0
 385 563 447 520 447 459 c 0
 447 399 403 348 345 329 c 1
 427 311 468 253 468 196 c 0
 468 122 405 51 307 51 c 0
 225 51 156 100 156 168 c 0
EndSplineSet
EndChar
StartChar: uF26B8
Encoding: 992952 992952 1068
Width: 1000
Flags: MW
LayerCount: 2
Fore
SplineSet
49 300 m 0
 49 384 61 495 112 605 c 0
 171 732 261 800 271 800 c 0
 277 800 281 797 281 790 c 0
 281 787 281 785 268 773 c 0
 145 648 107 474 107 300 c 0
 107 223 115 137 139 54 c 0
 162 -28 202 -106 264 -168 c 0
 281 -185 281 -187 281 -190 c 0
 281 -197 277 -200 271 -200 c 0
 261 -200 175 -135 115 -12 c 0
 60 101 49 222 49 300 c 0
720 -190 m 0
 720 -187 720 -185 733 -173 c 0
 857 -47 894 129 894 300 c 0
 894 509 837 668 739 767 c 0
 720 785 720 787 720 790 c 0
 720 796 724 800 730 800 c 0
 740 800 826 735 886 612 c 0
 941 499 952 378 952 300 c 0
 952 216 940 105 889 -5 c 0
 830 -132 740 -200 730 -200 c 0
 724 -200 720 -196 720 -190 c 0
531 396 m 0
 531 451 548 486 579 518 c 1
 610 550 648 563 690 563 c 0
 779 563 843 476 843 312 c 0
 843 143 748 51 654 51 c 0
 588 51 550 85 550 135 c 0
 550 164 571 174 587 174 c 0
 605 174 622 160 622 136 c 0
 622 118 612 99 585 99 c 1
 605 76 641 75 654 75 c 0
 685 75 720 92 743 134 c 0
 760 164 770 211 770 279 c 2
 770 301 l 1
 751 255 720 231 680 231 c 0
 597 231 531 300 531 396 c 0
604 395 m 0
 604 357 603 321 616 294 c 0
 635 254 666 250 682 250 c 0
 745 250 769 324 769 382 c 0
 769 414 767 461 758 485 c 0
 748 513 725 541 690 541 c 0
 662 541 637 532 619 498 c 0
 604 471 604 435 604 395 c 0
156 168 m 0
 156 202 180 214 200 214 c 0
 224 214 244 198 244 169 c 0
 244 140 223 123 198 124 c 1
 226 86 276 75 304 75 c 0
 346 75 385 111 385 196 c 0
 385 261 364 317 300 317 c 2
 268 317 l 2
 255 317 250 317 250 327 c 0
 250 334 254 335 260 336 c 0
 264 336 280 338 291 339 c 0
 311 340 334 345 353 377 c 1
 373 409 373 452 373 460 c 0
 373 517 342 541 305 541 c 0
 280 541 236 533 213 500 c 1
 222 500 257 498 257 458 c 0
 257 434 241 417 217 417 c 0
 194 417 177 433 177 460 c 0
 177 518 232 563 308 563 c 0
 385 563 447 520 447 459 c 0
 447 399 403 348 345 329 c 1
 427 311 468 253 468 196 c 0
 468 122 405 51 307 51 c 0
 225 51 156 100 156 168 c 0
EndSplineSet
EndChar
StartChar: uF26B9
Encoding: 992953 992953 1069
Width: 1000
Flags: MW
LayerCount: 2
Fore
SplineSet
49 300 m 0
 49 384 61 495 112 605 c 0
 171 732 261 800 271 800 c 0
 277 800 281 797 281 790 c 0
 281 787 281 785 268 773 c 0
 145 648 107 474 107 300 c 0
 107 223 115 137 139 54 c 0
 162 -28 202 -106 264 -168 c 0
 281 -185 281 -187 281 -190 c 0
 281 -197 277 -200 271 -200 c 0
 261 -200 175 -135 115 -12 c 0
 60 101 49 222 49 300 c 0
720 -190 m 0
 720 -187 720 -185 733 -173 c 0
 857 -47 894 129 894 300 c 0
 894 509 837 668 739 767 c 0
 720 785 720 787 720 790 c 0
 720 796 724 800 730 800 c 0
 740 800 826 735 886 612 c 0
 941 499 952 378 952 300 c 0
 952 216 940 105 889 -5 c 0
 830 -132 740 -200 730 -200 c 0
 724 -200 720 -196 720 -190 c 0
528 306 m 0
 528 363 531 429 560 483 c 1
 589 543 638 564 686 564 c 0
 722 564 778 550 809 490 c 0
 841 434 844 364 844 306 c 0
 844 249 841 182 811 129 c 0
 781 69 728 52 685 52 c 0
 644 52 596 68 566 121 c 0
 531 178 528 252 528 306 c 0
596 316 m 0
 596 273 595 202 603 158 c 0
 615 90 657 71 685 71 c 0
 715 71 759 91 769 162 c 0
 776 208 776 264 776 316 c 0
 776 367 777 429 768 467 c 0
 754 531 710 545 685 545 c 0
 667 545 613 538 601 454 c 0
 595 414 596 366 596 316 c 0
144 189 m 1
 144 215 l 1
 374 561 l 2
 380 571 382 571 391 571 c 0
 405 571 405 566 405 550 c 2
 405 215 l 1
 477 215 l 1
 477 189 l 1
 405 189 l 1
 405 119 l 1
 405 99 422 93 464 93 c 1
 475 93 l 1
 475 67 l 1
 446 69 402 69 372 69 c 0
 341 69 298 69 268 67 c 1
 268 93 l 1
 280 93 l 1
 322 93 341 99 341 119 c 1
 341 189 l 1
 144 189 l 1
169 215 m 1
 346 215 l 1
 346 483 l 1
 169 215 l 1
EndSplineSet
EndChar
StartChar: uF26BA
Encoding: 992954 992954 1070
Width: 1000
Flags: MW
LayerCount: 2
Fore
SplineSet
49 300 m 0
 49 384 61 495 112 605 c 0
 171 732 261 800 271 800 c 0
 277 800 281 797 281 790 c 0
 281 787 281 785 268 773 c 0
 145 648 107 474 107 300 c 0
 107 223 115 137 139 54 c 0
 162 -28 202 -106 264 -168 c 0
 281 -185 281 -187 281 -190 c 0
 281 -197 277 -200 271 -200 c 0
 261 -200 175 -135 115 -12 c 0
 60 101 49 222 49 300 c 0
720 -190 m 0
 720 -187 720 -185 733 -173 c 0
 857 -47 894 129 894 300 c 0
 894 509 837 668 739 767 c 0
 720 785 720 787 720 790 c 0
 720 796 724 800 730 800 c 0
 740 800 826 735 886 612 c 0
 941 499 952 378 952 300 c 0
 952 216 940 105 889 -5 c 0
 830 -132 740 -200 730 -200 c 0
 724 -200 720 -196 720 -190 c 0
558 492 m 1
 558 518 l 1
 561 518 l 1
 585 518 647 520 692 561 c 0
 695 564 696 564 700 566 c 1
 717 566 717 564 717 546 c 2
 717 122 l 1
 717 101 741 95 792 95 c 1
 810 95 l 1
 810 69 l 1
 784 71 716 71 686 71 c 0
 656 71 589 71 563 69 c 1
 563 95 l 1
 581 95 l 1
 632 95 656 102 656 122 c 1
 656 510 l 1
 620 494 577 492 561 492 c 1
 558 492 l 1
140 191 m 1
 140 218 l 1
 370 563 l 2
 376 573 377 572 386 572 c 0
 400 572 400 568 400 552 c 2
 400 218 l 1
 472 218 l 1
 472 191 l 1
 400 191 l 1
 400 122 l 1
 400 102 417 95 459 95 c 1
 470 95 l 1
 470 69 l 1
 441 71 397 71 367 71 c 0
 336 71 294 71 264 69 c 1
 264 95 l 1
 276 95 l 1
 318 95 336 102 336 122 c 1
 336 191 l 1
 140 191 l 1
164 218 m 1
 341 218 l 1
 341 485 l 1
 164 218 l 1
EndSplineSet
EndChar
StartChar: uF26C0
Encoding: 992960 992960 1076
Width: 1000
Flags: MW
LayerCount: 2
Fore
SplineSet
49 300 m 0
 49 384 61 495 112 605 c 0
 171 732 261 800 271 800 c 0
 277 800 281 797 281 790 c 0
 281 787 281 785 268 773 c 0
 145 648 107 474 107 300 c 0
 107 223 115 137 139 54 c 0
 162 -28 202 -106 264 -168 c 0
 281 -185 281 -187 281 -190 c 0
 281 -197 277 -200 271 -200 c 0
 261 -200 175 -135 115 -12 c 0
 60 101 49 222 49 300 c 0
720 -190 m 0
 720 -187 720 -185 733 -173 c 0
 857 -47 894 129 894 300 c 0
 894 509 837 668 739 767 c 0
 720 785 720 787 720 790 c 0
 720 796 724 800 730 800 c 0
 740 800 826 735 886 612 c 0
 941 499 952 378 952 300 c 0
 952 216 940 105 889 -5 c 0
 830 -132 740 -200 730 -200 c 0
 724 -200 720 -196 720 -190 c 0
544 410 m 1
 568 574 l 1
 590 574 l 1
 592 565 593 559 613 555 c 1
 626 553 667 550 696 550 c 2
 865 550 l 1
 865 532 866 531 859 522 c 2
 757 381 l 2
 727 339 716 279 712 254 c 0
 706 215 705 174 705 134 c 2
 705 97 l 2
 705 79 696 52 668 52 c 0
 642 52 632 78 632 97 c 0
 632 182 662 286 729 383 c 1
 741 402 795 474 801 483 c 1
 657 483 l 2
 647 483 590 483 584 479 c 0
 576 472 568 433 565 410 c 1
 544 410 l 1
148 190 m 1
 148 216 l 1
 378 562 l 2
 384 572 385 571 394 571 c 0
 408 571 408 566 408 550 c 2
 408 216 l 1
 480 216 l 1
 480 190 l 1
 408 190 l 1
 408 120 l 1
 408 100 425 93 467 93 c 1
 479 93 l 1
 479 67 l 1
 450 69 406 69 376 69 c 0
 345 69 301 69 271 67 c 1
 271 93 l 1
 283 93 l 1
 325 93 344 100 344 120 c 1
 344 190 l 1
 148 190 l 1
172 216 m 1
 350 216 l 1
 350 484 l 1
 172 216 l 1
EndSplineSet
EndChar
StartChar: uF26C3
Encoding: 992963 992963 1079
Width: 1000
Flags: MW
LayerCount: 2
Fore
SplineSet
49 300 m 0
 49 384 61 495 112 605 c 0
 171 732 261 800 271 800 c 0
 277 800 281 797 281 790 c 0
 281 787 281 785 268 773 c 0
 145 648 107 474 107 300 c 0
 107 223 115 137 139 54 c 0
 162 -28 202 -106 264 -168 c 0
 281 -185 281 -187 281 -190 c 0
 281 -197 277 -200 271 -200 c 0
 261 -200 175 -135 115 -12 c 0
 60 101 49 222 49 300 c 0
720 -190 m 0
 720 -187 720 -185 733 -173 c 0
 857 -47 894 129 894 300 c 0
 894 509 837 668 739 767 c 0
 720 785 720 787 720 790 c 0
 720 796 724 800 730 800 c 0
 740 800 826 735 886 612 c 0
 941 499 952 378 952 300 c 0
 952 216 940 105 889 -5 c 0
 830 -132 740 -200 730 -200 c 0
 724 -200 720 -196 720 -190 c 0
530 305 m 0
 530 362 533 428 562 482 c 1
 591 542 641 563 689 563 c 0
 725 563 780 549 811 489 c 0
 843 433 846 363 846 305 c 0
 846 248 843 181 813 128 c 0
 783 68 731 51 688 51 c 0
 647 51 598 67 568 120 c 0
 533 177 530 251 530 305 c 0
598 315 m 0
 598 272 598 200 606 156 c 0
 618 88 660 70 688 70 c 0
 718 70 762 89 772 160 c 0
 779 206 779 263 779 315 c 0
 779 366 779 428 770 466 c 0
 756 530 713 544 688 544 c 0
 670 544 616 538 604 454 c 0
 598 414 598 365 598 315 c 0
164 186 m 0
 164 223 192 229 202 229 c 0
 225 229 241 212 241 188 c 0
 241 168 228 150 204 149 c 0
 198 149 195 149 193 150 c 1
 210 106 252 75 297 75 c 0
 329 75 355 92 371 118 c 1
 390 149 390 192 390 220 c 0
 390 258 388 290 376 317 c 0
 370 331 353 359 318 359 c 0
 266 359 235 327 223 309 c 0
 220 305 218 302 212 302 c 0
 201 302 201 308 201 322 c 2
 201 544 l 2
 201 556 201 562 209 562 c 0
 211 562 211 562 217 560 c 0
 247 546 283 539 318 539 c 0
 362 539 398 552 419 561 c 0
 424 563 425 563 426 563 c 0
 432 563 434 558 434 554 c 0
 434 542 379 469 286 469 c 0
 262 469 242 474 226 478 c 1
 226 343 l 1
 254 369 287 379 319 379 c 0
 404 379 463 304 463 216 c 0
 463 122 390 51 299 51 c 0
 216 51 164 122 164 186 c 0
EndSplineSet
EndChar
StartChar: uF26C6
Encoding: 992966 992966 1082
Width: 1000
Flags: MW
LayerCount: 2
Fore
SplineSet
49 300 m 0
 49 384 61 495 112 605 c 0
 171 732 261 800 271 800 c 0
 277 800 281 797 281 790 c 0
 281 787 281 785 268 773 c 0
 145 648 107 474 107 300 c 0
 107 223 115 137 139 54 c 0
 162 -28 202 -106 264 -168 c 0
 281 -185 281 -187 281 -190 c 0
 281 -197 277 -200 271 -200 c 0
 261 -200 175 -135 115 -12 c 0
 60 101 49 222 49 300 c 0
720 -190 m 0
 720 -187 720 -185 733 -173 c 0
 857 -47 894 129 894 300 c 0
 894 509 837 668 739 767 c 0
 720 785 720 787 720 790 c 0
 720 796 724 800 730 800 c 0
 740 800 826 735 886 612 c 0
 941 499 952 378 952 300 c 0
 952 216 940 105 889 -5 c 0
 830 -132 740 -200 730 -200 c 0
 724 -200 720 -196 720 -190 c 0
532 168 m 0
 532 202 556 214 576 214 c 0
 600 214 620 198 620 169 c 0
 620 140 599 123 574 124 c 1
 602 86 652 75 680 75 c 0
 722 75 761 111 761 196 c 0
 761 261 740 317 676 317 c 2
 644 317 l 2
 631 317 626 317 626 327 c 0
 626 334 630 335 636 336 c 0
 640 336 656 338 667 339 c 0
 687 340 710 345 729 377 c 1
 749 409 749 452 749 460 c 0
 749 517 718 541 681 541 c 0
 656 541 612 533 589 500 c 1
 598 500 633 498 633 458 c 0
 633 434 617 417 593 417 c 0
 570 417 553 433 553 460 c 0
 553 518 608 563 684 563 c 0
 761 563 823 520 823 459 c 0
 823 399 779 348 721 329 c 1
 803 311 844 253 844 196 c 0
 844 122 781 51 683 51 c 0
 601 51 532 100 532 168 c 0
163 186 m 0
 163 223 192 229 202 229 c 0
 225 229 241 212 241 188 c 0
 241 168 228 150 204 149 c 0
 198 149 194 149 192 150 c 1
 209 106 251 75 296 75 c 0
 328 75 355 92 371 118 c 1
 390 149 390 192 390 220 c 0
 390 258 388 290 376 317 c 0
 370 331 353 359 318 359 c 0
 266 359 235 327 223 309 c 0
 220 305 218 302 212 302 c 0
 201 302 200 308 200 322 c 2
 200 544 l 2
 200 556 200 562 208 562 c 0
 210 562 211 562 217 560 c 0
 247 546 283 539 318 539 c 0
 362 539 398 552 419 561 c 0
 424 563 425 563 426 563 c 0
 432 563 433 558 433 554 c 0
 433 542 379 469 286 469 c 0
 262 469 242 474 226 478 c 1
 226 343 l 1
 254 369 287 379 319 379 c 0
 404 379 463 304 463 216 c 0
 463 122 389 51 298 51 c 0
 215 51 163 122 163 186 c 0
EndSplineSet
EndChar
StartChar: uF26CB
Encoding: 992971 992971 1087
Width: 1000
Flags: MW
LayerCount: 2
Fore
SplineSet
49 300 m 0
 49 384 61 495 112 605 c 0
 171 732 261 800 271 800 c 0
 277 800 281 797 281 790 c 0
 281 787 281 785 268 773 c 0
 145 648 107 474 107 300 c 0
 107 223 115 137 139 54 c 0
 162 -28 202 -106 264 -168 c 0
 281 -185 281 -187 281 -190 c 0
 281 -197 277 -200 271 -200 c 0
 261 -200 175 -135 115 -12 c 0
 60 101 49 222 49 300 c 0
720 -190 m 0
 720 -187 720 -185 733 -173 c 0
 857 -47 894 129 894 300 c 0
 894 509 837 668 739 767 c 0
 720 785 720 787 720 790 c 0
 720 796 724 800 730 800 c 0
 740 800 826 735 886 612 c 0
 941 499 952 378 952 300 c 0
 952 216 940 105 889 -5 c 0
 830 -132 740 -200 730 -200 c 0
 724 -200 720 -196 720 -190 c 0
532 181 m 0
 532 251 587 292 634 316 c 1
 616 328 592 344 584 354 c 0
 555 387 553 420 553 436 c 0
 553 506 609 563 688 563 c 0
 758 563 823 523 823 452 c 0
 823 404 791 366 739 338 c 1
 779 313 793 305 808 288 c 0
 834 258 844 226 844 195 c 0
 844 115 778 51 688 51 c 0
 608 51 532 98 532 181 c 0
575 181 m 0
 575 120 624 75 688 75 c 0
 744 75 802 107 802 165 c 0
 802 209 769 229 746 244 c 1
 737 250 661 298 655 302 c 1
 601 272 575 229 575 181 c 0
590 469 m 0
 590 453 597 430 625 412 c 2
 719 352 l 1
 760 377 786 409 786 451 c 0
 786 504 743 541 688 541 c 0
 642 541 590 517 590 469 c 0
163 186 m 0
 163 223 192 229 202 229 c 0
 225 229 241 212 241 188 c 0
 241 168 228 150 204 149 c 0
 198 149 194 149 192 150 c 1
 209 106 251 75 296 75 c 0
 328 75 355 92 371 118 c 1
 390 149 390 192 390 220 c 0
 390 258 388 290 376 317 c 0
 370 331 353 359 318 359 c 0
 266 359 235 327 223 309 c 0
 220 305 218 302 212 302 c 0
 201 302 200 308 200 322 c 2
 200 544 l 2
 200 556 200 562 208 562 c 0
 210 562 211 562 217 560 c 0
 247 546 283 539 318 539 c 0
 362 539 398 552 419 561 c 0
 424 563 425 563 426 563 c 0
 432 563 433 558 433 554 c 0
 433 542 379 469 286 469 c 0
 262 469 242 474 226 478 c 1
 226 343 l 1
 254 369 287 379 319 379 c 0
 404 379 463 304 463 216 c 0
 463 122 389 51 298 51 c 0
 215 51 163 122 163 186 c 0
EndSplineSet
EndChar
StartChar: uF26D2
Encoding: 992978 992978 1094
Width: 1000
Flags: MW
LayerCount: 2
Fore
SplineSet
49 300 m 0
 49 384 61 495 112 605 c 0
 171 732 261 800 271 800 c 0
 277 800 281 797 281 790 c 0
 281 787 281 785 268 773 c 0
 145 648 107 474 107 300 c 0
 107 223 115 137 139 54 c 0
 162 -28 202 -106 264 -168 c 0
 281 -185 281 -187 281 -190 c 0
 281 -197 277 -200 271 -200 c 0
 261 -200 175 -135 115 -12 c 0
 60 101 49 222 49 300 c 0
720 -190 m 0
 720 -187 720 -185 733 -173 c 0
 857 -47 894 129 894 300 c 0
 894 509 837 668 739 767 c 0
 720 785 720 787 720 790 c 0
 720 796 724 800 730 800 c 0
 740 800 826 735 886 612 c 0
 941 499 952 378 952 300 c 0
 952 216 940 105 889 -5 c 0
 830 -132 740 -200 730 -200 c 0
 724 -200 720 -196 720 -190 c 0
536 186 m 0
 536 223 565 229 575 229 c 0
 598 229 614 212 614 188 c 0
 614 168 601 150 577 149 c 0
 571 149 568 149 566 150 c 1
 583 106 625 75 670 75 c 0
 702 75 728 92 744 118 c 1
 763 149 763 192 763 220 c 0
 763 258 761 290 749 317 c 0
 743 331 725 359 690 359 c 0
 638 359 608 327 596 309 c 0
 593 305 591 302 585 302 c 0
 574 302 574 308 574 322 c 2
 574 544 l 2
 574 556 573 562 581 562 c 0
 583 562 584 562 590 560 c 0
 620 546 655 539 690 539 c 0
 734 539 771 552 792 561 c 0
 797 563 798 563 799 563 c 0
 805 563 806 558 806 554 c 0
 806 542 753 469 660 469 c 0
 636 469 616 474 600 478 c 1
 600 343 l 1
 628 369 660 379 692 379 c 0
 777 379 836 304 836 216 c 0
 836 122 762 51 671 51 c 0
 588 51 536 122 536 186 c 0
155 303 m 0
 155 475 259 563 353 563 c 0
 417 563 448 524 448 479 c 0
 448 450 428 440 412 440 c 0
 394 440 376 454 376 478 c 0
 376 509 402 513 416 514 c 1
 400 538 370 541 354 541 c 0
 328 541 287 527 260 483 c 0
 243 456 228 410 228 331 c 2
 228 314 l 1
 246 355 276 384 318 384 c 0
 400 384 467 317 467 219 c 0
 467 120 397 51 312 51 c 0
 268 51 221 70 189 130 c 1
 167 172 155 230 155 303 c 0
230 232 m 0
 230 218 229 159 242 127 c 0
 246 116 268 75 312 75 c 0
 333 75 364 82 382 122 c 0
 394 148 394 184 394 220 c 0
 394 258 395 294 382 321 c 0
 363 361 332 365 316 365 c 0
 256 365 230 299 230 232 c 0
EndSplineSet
EndChar
StartChar: uF26D5
Encoding: 992981 992981 1097
Width: 1000
Flags: MW
LayerCount: 2
Fore
SplineSet
49 300 m 0
 49 384 61 495 112 605 c 0
 171 732 261 800 271 800 c 0
 277 800 281 797 281 790 c 0
 281 787 281 785 268 773 c 0
 145 648 107 474 107 300 c 0
 107 223 115 137 139 54 c 0
 162 -28 202 -106 264 -168 c 0
 281 -185 281 -187 281 -190 c 0
 281 -197 277 -200 271 -200 c 0
 261 -200 175 -135 115 -12 c 0
 60 101 49 222 49 300 c 0
720 -190 m 0
 720 -187 720 -185 733 -173 c 0
 857 -47 894 129 894 300 c 0
 894 509 837 668 739 767 c 0
 720 785 720 787 720 790 c 0
 720 796 724 800 730 800 c 0
 740 800 826 735 886 612 c 0
 941 499 952 378 952 300 c 0
 952 216 940 105 889 -5 c 0
 830 -132 740 -200 730 -200 c 0
 724 -200 720 -196 720 -190 c 0
531 181 m 0
 531 251 586 292 633 316 c 1
 615 328 591 344 583 354 c 0
 554 387 552 420 552 436 c 0
 552 506 609 563 688 563 c 0
 758 563 822 523 822 452 c 0
 822 404 790 366 738 338 c 1
 778 313 792 305 807 288 c 0
 833 258 843 226 843 195 c 0
 843 115 777 51 687 51 c 0
 607 51 531 98 531 181 c 0
574 181 m 0
 574 120 624 75 688 75 c 0
 744 75 800 107 800 165 c 0
 800 209 769 229 746 244 c 1
 737 250 660 298 654 302 c 1
 600 272 574 229 574 181 c 0
589 469 m 0
 589 453 596 430 624 412 c 2
 718 352 l 1
 759 377 785 409 785 451 c 0
 785 504 742 541 687 541 c 0
 641 541 589 517 589 469 c 0
156 303 m 0
 156 475 260 563 354 563 c 0
 418 563 449 524 449 479 c 0
 449 450 428 440 412 440 c 0
 394 440 377 454 377 478 c 0
 377 509 402 513 416 514 c 1
 400 538 371 541 355 541 c 0
 329 541 288 527 261 483 c 0
 244 456 229 410 229 331 c 2
 229 314 l 1
 247 355 278 384 320 384 c 0
 402 384 468 317 468 219 c 0
 468 120 399 51 314 51 c 0
 270 51 222 70 190 130 c 1
 168 172 156 230 156 303 c 0
230 232 m 0
 230 218 231 159 244 127 c 0
 248 116 269 75 313 75 c 0
 334 75 365 82 383 122 c 0
 395 148 395 184 395 220 c 0
 395 258 396 294 383 321 c 0
 364 361 333 365 317 365 c 0
 257 365 230 299 230 232 c 0
EndSplineSet
EndChar
StartChar: uF26DD
Encoding: 992989 992989 1105
Width: 1000
Flags: MW
LayerCount: 2
Fore
SplineSet
49 300 m 0
 49 384 61 495 112 605 c 0
 171 732 261 800 271 800 c 0
 277 800 281 797 281 790 c 0
 281 787 281 785 268 773 c 0
 145 648 107 474 107 300 c 0
 107 223 115 137 139 54 c 0
 162 -28 202 -106 264 -168 c 0
 281 -185 281 -187 281 -190 c 0
 281 -197 277 -200 271 -200 c 0
 261 -200 175 -135 115 -12 c 0
 60 101 49 222 49 300 c 0
720 -190 m 0
 720 -187 720 -185 733 -173 c 0
 857 -47 894 129 894 300 c 0
 894 509 837 668 739 767 c 0
 720 785 720 787 720 790 c 0
 720 796 724 800 730 800 c 0
 740 800 826 735 886 612 c 0
 941 499 952 378 952 300 c 0
 952 216 940 105 889 -5 c 0
 830 -132 740 -200 730 -200 c 0
 724 -200 720 -196 720 -190 c 0
533 304 m 0
 533 476 636 564 730 564 c 0
 794 564 826 525 826 480 c 0
 826 451 806 441 790 441 c 0
 772 441 754 455 754 479 c 0
 754 510 780 515 794 516 c 1
 778 540 748 543 732 543 c 0
 706 543 665 529 638 485 c 0
 621 458 606 412 606 333 c 2
 606 316 l 1
 624 357 654 386 696 386 c 0
 778 386 844 318 844 220 c 0
 844 121 775 52 690 52 c 0
 646 52 599 72 567 132 c 1
 545 174 533 231 533 304 c 0
607 234 m 0
 607 220 607 160 620 128 c 0
 624 117 646 76 690 76 c 0
 711 76 742 83 760 123 c 0
 772 149 772 186 772 222 c 0
 772 260 772 295 759 322 c 0
 740 362 710 366 694 366 c 0
 634 366 607 301 607 234 c 0
169 410 m 1
 192 574 l 1
 214 574 l 1
 216 565 218 558 238 554 c 1
 251 552 291 550 320 550 c 2
 490 550 l 1
 490 532 491 530 484 521 c 2
 382 381 l 2
 352 339 341 279 337 254 c 0
 331 215 330 174 330 134 c 2
 330 96 l 2
 330 78 321 52 293 52 c 0
 267 52 258 77 258 96 c 0
 258 181 287 285 354 382 c 1
 366 401 420 474 426 483 c 1
 282 483 l 2
 272 483 215 482 209 478 c 0
 201 471 193 433 190 410 c 1
 169 410 l 1
EndSplineSet
EndChar
StartChar: uF26E1
Encoding: 992993 992993 1109
Width: 1000
Flags: MW
LayerCount: 2
Fore
SplineSet
49 300 m 0
 49 384 61 495 112 605 c 0
 171 732 261 800 271 800 c 0
 277 800 281 797 281 790 c 0
 281 787 281 785 268 773 c 0
 145 648 107 474 107 300 c 0
 107 223 115 137 139 54 c 0
 162 -28 202 -106 264 -168 c 0
 281 -185 281 -187 281 -190 c 0
 281 -197 277 -200 271 -200 c 0
 261 -200 175 -135 115 -12 c 0
 60 101 49 222 49 300 c 0
720 -190 m 0
 720 -187 720 -185 733 -173 c 0
 857 -47 894 129 894 300 c 0
 894 509 837 668 739 767 c 0
 720 785 720 787 720 790 c 0
 720 796 724 800 730 800 c 0
 740 800 826 735 886 612 c 0
 941 499 952 378 952 300 c 0
 952 216 940 105 889 -5 c 0
 830 -132 740 -200 730 -200 c 0
 724 -200 720 -196 720 -190 c 0
530 305 m 0
 530 362 532 428 561 482 c 1
 590 542 640 563 688 563 c 0
 724 563 779 549 810 489 c 0
 842 433 845 363 845 305 c 0
 845 248 843 181 813 128 c 0
 783 68 730 51 687 51 c 0
 646 51 597 67 567 120 c 0
 532 177 530 251 530 305 c 0
598 315 m 0
 598 272 597 200 605 156 c 0
 617 88 659 70 687 70 c 0
 717 70 761 89 771 160 c 0
 778 206 778 263 778 315 c 0
 778 366 779 428 770 466 c 0
 756 530 712 544 687 544 c 0
 669 544 615 538 603 454 c 0
 597 414 598 365 598 315 c 0
157 181 m 0
 157 251 212 292 259 316 c 1
 241 328 216 344 208 354 c 0
 179 387 177 420 177 436 c 0
 177 506 234 563 313 563 c 0
 383 563 448 523 448 452 c 0
 448 404 415 366 363 338 c 1
 403 313 417 305 432 288 c 0
 458 258 468 226 468 195 c 0
 468 115 402 51 312 51 c 0
 232 51 157 98 157 181 c 0
199 181 m 0
 199 120 249 75 313 75 c 0
 369 75 426 107 426 165 c 0
 426 209 393 229 370 244 c 1
 361 250 285 298 279 302 c 1
 225 272 199 229 199 181 c 0
214 469 m 0
 214 453 222 430 250 412 c 2
 343 352 l 1
 384 377 411 409 411 451 c 0
 411 504 367 541 312 541 c 0
 266 541 214 517 214 469 c 0
EndSplineSet
EndChar
StartChar: uF26E4
Encoding: 992996 992996 1112
Width: 1000
Flags: MW
LayerCount: 2
Fore
SplineSet
49 300 m 0
 49 384 61 495 112 605 c 0
 171 732 261 800 271 800 c 0
 277 800 281 797 281 790 c 0
 281 787 281 785 268 773 c 0
 145 648 107 474 107 300 c 0
 107 223 115 137 139 54 c 0
 162 -28 202 -106 264 -168 c 0
 281 -185 281 -187 281 -190 c 0
 281 -197 277 -200 271 -200 c 0
 261 -200 175 -135 115 -12 c 0
 60 101 49 222 49 300 c 0
720 -190 m 0
 720 -187 720 -185 733 -173 c 0
 857 -47 894 129 894 300 c 0
 894 509 837 668 739 767 c 0
 720 785 720 787 720 790 c 0
 720 796 724 800 730 800 c 0
 740 800 826 735 886 612 c 0
 941 499 952 378 952 300 c 0
 952 216 940 105 889 -5 c 0
 830 -132 740 -200 730 -200 c 0
 724 -200 720 -196 720 -190 c 0
531 168 m 0
 531 202 555 214 575 214 c 0
 599 214 619 198 619 169 c 0
 619 140 598 123 573 124 c 1
 601 86 652 75 680 75 c 0
 722 75 760 111 760 196 c 0
 760 261 739 317 675 317 c 2
 643 317 l 2
 630 317 625 317 625 327 c 0
 625 334 630 335 636 336 c 0
 640 336 655 338 666 339 c 0
 686 340 709 345 728 377 c 1
 748 409 748 452 748 460 c 0
 748 517 717 541 680 541 c 0
 655 541 611 533 588 500 c 1
 597 500 632 498 632 458 c 0
 632 434 616 417 592 417 c 0
 569 417 552 433 552 460 c 0
 552 518 607 563 683 563 c 0
 760 563 822 520 822 459 c 0
 822 399 778 348 720 329 c 1
 802 311 843 253 843 196 c 0
 843 122 780 51 682 51 c 0
 600 51 531 100 531 168 c 0
156 181 m 0
 156 251 211 292 258 316 c 1
 240 328 216 344 208 354 c 0
 179 387 177 420 177 436 c 0
 177 506 233 563 312 563 c 0
 382 563 447 523 447 452 c 0
 447 404 415 366 363 338 c 1
 403 313 417 305 432 288 c 0
 458 258 468 226 468 195 c 0
 468 115 402 51 312 51 c 0
 232 51 156 98 156 181 c 0
199 181 m 0
 199 120 248 75 312 75 c 0
 368 75 426 107 426 165 c 0
 426 209 393 229 370 244 c 1
 361 250 285 298 279 302 c 1
 225 272 199 229 199 181 c 0
214 469 m 0
 214 453 221 430 249 412 c 2
 343 352 l 1
 384 377 410 409 410 451 c 0
 410 504 367 541 312 541 c 0
 266 541 214 517 214 469 c 0
EndSplineSet
EndChar
StartChar: uF26E5
Encoding: 992997 992997 1113
Width: 1000
Flags: MW
LayerCount: 2
Fore
SplineSet
49 300 m 0
 49 384 61 495 112 605 c 0
 171 732 261 800 271 800 c 0
 277 800 281 797 281 790 c 0
 281 787 281 785 268 773 c 0
 145 648 107 474 107 300 c 0
 107 223 115 137 139 54 c 0
 162 -28 202 -106 264 -168 c 0
 281 -185 281 -187 281 -190 c 0
 281 -197 277 -200 271 -200 c 0
 261 -200 175 -135 115 -12 c 0
 60 101 49 222 49 300 c 0
720 -190 m 0
 720 -187 720 -185 733 -173 c 0
 857 -47 894 129 894 300 c 0
 894 509 837 668 739 767 c 0
 720 785 720 787 720 790 c 0
 720 796 724 800 730 800 c 0
 740 800 826 735 886 612 c 0
 941 499 952 378 952 300 c 0
 952 216 940 105 889 -5 c 0
 830 -132 740 -200 730 -200 c 0
 724 -200 720 -196 720 -190 c 0
523 189 m 1
 523 215 l 1
 752 561 l 2
 758 571 760 571 769 571 c 0
 783 571 783 566 783 550 c 2
 783 215 l 1
 855 215 l 1
 855 189 l 1
 783 189 l 1
 783 119 l 1
 783 99 800 93 842 93 c 1
 854 93 l 1
 854 67 l 1
 825 69 781 69 751 69 c 0
 720 69 676 69 646 67 c 1
 646 93 l 1
 658 93 l 1
 700 93 719 99 719 119 c 1
 719 189 l 1
 523 189 l 1
547 215 m 1
 725 215 l 1
 725 483 l 1
 547 215 l 1
158 182 m 0
 158 252 213 292 260 316 c 1
 242 328 217 346 209 356 c 0
 180 389 178 421 178 437 c 0
 178 507 235 564 314 564 c 0
 384 564 449 524 449 453 c 0
 449 405 416 367 364 339 c 1
 404 314 419 306 434 289 c 0
 460 259 469 227 469 196 c 0
 469 116 403 52 313 52 c 0
 233 52 158 99 158 182 c 0
200 182 m 0
 200 121 250 76 314 76 c 0
 370 76 428 108 428 166 c 0
 428 210 395 230 372 245 c 1
 363 251 286 299 280 303 c 1
 226 273 200 230 200 182 c 0
215 470 m 0
 215 454 223 432 251 414 c 2
 345 353 l 1
 386 378 412 411 412 453 c 0
 412 506 368 543 313 543 c 0
 267 543 215 518 215 470 c 0
EndSplineSet
EndChar
StartChar: uF26EA
Encoding: 993002 993002 1118
Width: 1000
Flags: MW
LayerCount: 2
Fore
SplineSet
49 300 m 0
 49 384 61 495 112 605 c 0
 171 732 261 800 271 800 c 0
 277 800 281 797 281 790 c 0
 281 787 281 785 268 773 c 0
 145 648 107 474 107 300 c 0
 107 223 115 137 139 54 c 0
 162 -28 202 -106 264 -168 c 0
 281 -185 281 -187 281 -190 c 0
 281 -197 277 -200 271 -200 c 0
 261 -200 175 -135 115 -12 c 0
 60 101 49 222 49 300 c 0
720 -190 m 0
 720 -187 720 -185 733 -173 c 0
 857 -47 894 129 894 300 c 0
 894 509 837 668 739 767 c 0
 720 785 720 787 720 790 c 0
 720 796 724 800 730 800 c 0
 740 800 826 735 886 612 c 0
 941 499 952 378 952 300 c 0
 952 216 940 105 889 -5 c 0
 830 -132 740 -200 730 -200 c 0
 724 -200 720 -196 720 -190 c 0
531 396 m 0
 531 451 548 486 579 518 c 1
 610 550 648 563 690 563 c 0
 779 563 843 476 843 312 c 0
 843 143 748 51 654 51 c 0
 588 51 550 85 550 135 c 0
 550 164 571 174 587 174 c 0
 605 174 622 160 622 136 c 0
 622 118 612 99 585 99 c 1
 605 76 641 75 654 75 c 0
 685 75 720 92 743 134 c 0
 760 164 770 211 770 279 c 2
 770 301 l 1
 751 255 720 231 680 231 c 0
 597 231 531 300 531 396 c 0
604 395 m 0
 604 357 603 321 616 294 c 0
 635 254 666 250 682 250 c 0
 745 250 769 324 769 382 c 0
 769 414 767 461 758 485 c 0
 748 513 725 541 690 541 c 0
 662 541 637 532 619 498 c 0
 604 471 604 435 604 395 c 0
156 181 m 0
 156 251 211 292 258 316 c 1
 240 328 216 344 208 354 c 0
 179 387 177 420 177 436 c 0
 177 506 233 563 312 563 c 0
 382 563 447 523 447 452 c 0
 447 404 415 366 363 338 c 1
 403 313 417 305 432 288 c 0
 458 258 468 226 468 195 c 0
 468 115 402 51 312 51 c 0
 232 51 156 98 156 181 c 0
199 181 m 0
 199 120 248 75 312 75 c 0
 368 75 426 107 426 165 c 0
 426 209 393 229 370 244 c 1
 361 250 285 298 279 302 c 1
 225 272 199 229 199 181 c 0
214 469 m 0
 214 453 221 430 249 412 c 2
 343 352 l 1
 384 377 410 409 410 451 c 0
 410 504 367 541 312 541 c 0
 266 541 214 517 214 469 c 0
EndSplineSet
EndChar
StartChar: uF26ED
Encoding: 993005 993005 1121
Width: 1000
Flags: MW
LayerCount: 2
Fore
SplineSet
49 300 m 0
 49 384 61 495 112 605 c 0
 171 732 261 800 271 800 c 0
 277 800 281 797 281 790 c 0
 281 787 281 785 268 773 c 0
 145 648 107 474 107 300 c 0
 107 223 115 137 139 54 c 0
 162 -28 202 -106 264 -168 c 0
 281 -185 281 -187 281 -190 c 0
 281 -197 277 -200 271 -200 c 0
 261 -200 175 -135 115 -12 c 0
 60 101 49 222 49 300 c 0
720 -190 m 0
 720 -187 720 -185 733 -173 c 0
 857 -47 894 129 894 300 c 0
 894 509 837 668 739 767 c 0
 720 785 720 787 720 790 c 0
 720 796 724 800 730 800 c 0
 740 800 826 735 886 612 c 0
 941 499 952 378 952 300 c 0
 952 216 940 105 889 -5 c 0
 830 -132 740 -200 730 -200 c 0
 724 -200 720 -196 720 -190 c 0
536 65 m 1
 536 69 536 76 536 78 c 2
 536 88 539 89 545 96 c 2
 686 255 l 2
 728 303 762 360 762 418 c 0
 762 478 730 537 665 537 c 0
 626 537 591 513 573 472 c 1
 575 472 577 472 582 472 c 0
 605 470 619 453 619 430 c 0
 619 397 593 387 578 387 c 0
 572 387 536 390 536 432 c 0
 536 499 593 563 677 563 c 0
 769 563 836 504 836 418 c 0
 836 344 792 306 686 212 c 1
 679 206 610 139 602 132 c 1
 727 132 l 2
 741 132 791 132 797 138 c 1
 805 148 810 185 814 205 c 1
 836 205 l 1
 815 65 l 1
 536 65 l 1
155 396 m 0
 155 451 172 486 203 518 c 1
 234 550 272 563 314 563 c 0
 403 563 467 476 467 312 c 0
 467 143 372 51 278 51 c 0
 212 51 174 85 174 135 c 0
 174 164 195 174 211 174 c 0
 229 174 246 160 246 136 c 0
 246 118 236 99 209 99 c 1
 229 76 265 75 278 75 c 0
 309 75 344 92 367 134 c 0
 384 164 394 211 394 279 c 2
 394 301 l 1
 375 255 344 231 304 231 c 0
 221 231 155 300 155 396 c 0
228 395 m 0
 228 357 227 321 240 294 c 0
 259 254 290 250 306 250 c 0
 369 250 393 324 393 382 c 0
 393 414 391 461 382 485 c 0
 372 513 349 541 314 541 c 0
 286 541 261 532 243 498 c 0
 228 471 228 435 228 395 c 0
EndSplineSet
EndChar
StartChar: uF26EE
Encoding: 993006 993006 1122
Width: 1000
Flags: MW
LayerCount: 2
Fore
SplineSet
49 300 m 0
 49 384 61 495 112 605 c 0
 171 732 261 800 271 800 c 0
 277 800 281 797 281 790 c 0
 281 787 281 785 268 773 c 0
 145 648 107 474 107 300 c 0
 107 223 115 137 139 54 c 0
 162 -28 202 -106 264 -168 c 0
 281 -185 281 -187 281 -190 c 0
 281 -197 277 -200 271 -200 c 0
 261 -200 175 -135 115 -12 c 0
 60 101 49 222 49 300 c 0
720 -190 m 0
 720 -187 720 -185 733 -173 c 0
 857 -47 894 129 894 300 c 0
 894 509 837 668 739 767 c 0
 720 785 720 787 720 790 c 0
 720 796 724 800 730 800 c 0
 740 800 826 735 886 612 c 0
 941 499 952 378 952 300 c 0
 952 216 940 105 889 -5 c 0
 830 -132 740 -200 730 -200 c 0
 724 -200 720 -196 720 -190 c 0
531 168 m 0
 531 202 555 214 575 214 c 0
 599 214 619 198 619 169 c 0
 619 140 598 123 573 124 c 1
 601 86 652 75 680 75 c 0
 722 75 760 111 760 196 c 0
 760 261 739 317 675 317 c 2
 643 317 l 2
 630 317 625 317 625 327 c 0
 625 334 630 335 636 336 c 0
 640 336 655 338 666 339 c 0
 686 340 709 345 728 377 c 1
 748 409 748 452 748 460 c 0
 748 517 717 541 680 541 c 0
 655 541 611 533 588 500 c 1
 597 500 632 498 632 458 c 0
 632 434 616 417 592 417 c 0
 569 417 552 433 552 460 c 0
 552 518 607 563 683 563 c 0
 760 563 822 520 822 459 c 0
 822 399 778 348 720 329 c 1
 802 311 843 253 843 196 c 0
 843 122 780 51 682 51 c 0
 600 51 531 100 531 168 c 0
156 396 m 0
 156 451 173 486 204 518 c 1
 235 550 273 563 315 563 c 0
 404 563 468 476 468 312 c 0
 468 143 374 51 280 51 c 0
 214 51 175 85 175 135 c 0
 175 164 196 174 212 174 c 0
 230 174 247 160 247 136 c 0
 247 118 237 99 210 99 c 1
 230 76 266 75 279 75 c 0
 310 75 345 92 368 134 c 0
 385 164 395 211 395 279 c 2
 395 301 l 1
 376 255 345 231 305 231 c 0
 222 231 156 300 156 396 c 0
229 395 m 0
 229 357 229 321 242 294 c 0
 261 254 291 250 307 250 c 0
 370 250 394 324 394 382 c 0
 394 414 392 461 383 485 c 0
 373 513 350 541 315 541 c 0
 287 541 262 532 244 498 c 0
 229 471 229 435 229 395 c 0
EndSplineSet
EndChar
StartChar: uF26F0
Encoding: 993008 993008 1124
Width: 1000
Flags: MW
LayerCount: 2
Fore
SplineSet
49 300 m 0
 49 384 61 495 112 605 c 0
 171 732 261 800 271 800 c 0
 277 800 281 797 281 790 c 0
 281 787 281 785 268 773 c 0
 145 648 107 474 107 300 c 0
 107 223 115 137 139 54 c 0
 162 -28 202 -106 264 -168 c 0
 281 -185 281 -187 281 -190 c 0
 281 -197 277 -200 271 -200 c 0
 261 -200 175 -135 115 -12 c 0
 60 101 49 222 49 300 c 0
720 -190 m 0
 720 -187 720 -185 733 -173 c 0
 857 -47 894 129 894 300 c 0
 894 509 837 668 739 767 c 0
 720 785 720 787 720 790 c 0
 720 796 724 800 730 800 c 0
 740 800 826 735 886 612 c 0
 941 499 952 378 952 300 c 0
 952 216 940 105 889 -5 c 0
 830 -132 740 -200 730 -200 c 0
 724 -200 720 -196 720 -190 c 0
536 186 m 0
 536 223 565 229 575 229 c 0
 598 229 614 212 614 188 c 0
 614 168 601 150 577 149 c 0
 571 149 568 149 566 150 c 1
 583 106 625 75 670 75 c 0
 702 75 728 92 744 118 c 1
 763 149 763 192 763 220 c 0
 763 258 761 290 749 317 c 0
 743 331 725 359 690 359 c 0
 638 359 608 327 596 309 c 0
 593 305 591 302 585 302 c 0
 574 302 574 308 574 322 c 2
 574 544 l 2
 574 556 573 562 581 562 c 0
 583 562 584 562 590 560 c 0
 620 546 655 539 690 539 c 0
 734 539 771 552 792 561 c 0
 797 563 798 563 799 563 c 0
 805 563 806 558 806 554 c 0
 806 542 753 469 660 469 c 0
 636 469 616 474 600 478 c 1
 600 343 l 1
 628 369 660 379 692 379 c 0
 777 379 836 304 836 216 c 0
 836 122 762 51 671 51 c 0
 588 51 536 122 536 186 c 0
155 396 m 0
 155 451 172 486 203 518 c 1
 234 550 272 563 314 563 c 0
 403 563 467 476 467 312 c 0
 467 143 372 51 278 51 c 0
 212 51 174 85 174 135 c 0
 174 164 195 174 211 174 c 0
 229 174 246 160 246 136 c 0
 246 118 236 99 209 99 c 1
 229 76 265 75 278 75 c 0
 309 75 344 92 367 134 c 0
 384 164 394 211 394 279 c 2
 394 301 l 1
 375 255 344 231 304 231 c 0
 221 231 155 300 155 396 c 0
228 395 m 0
 228 357 227 321 240 294 c 0
 259 254 290 250 306 250 c 0
 369 250 393 324 393 382 c 0
 393 414 391 461 382 485 c 0
 372 513 349 541 314 541 c 0
 286 541 261 532 243 498 c 0
 228 471 228 435 228 395 c 0
EndSplineSet
EndChar
StartChar: uF26F1
Encoding: 993009 993009 1125
Width: 1000
Flags: MW
LayerCount: 2
Fore
SplineSet
49 300 m 0
 49 384 61 495 112 605 c 0
 171 732 261 800 271 800 c 0
 277 800 281 797 281 790 c 0
 281 787 281 785 268 773 c 0
 145 648 107 474 107 300 c 0
 107 223 115 137 139 54 c 0
 162 -28 202 -106 264 -168 c 0
 281 -185 281 -187 281 -190 c 0
 281 -197 277 -200 271 -200 c 0
 261 -200 175 -135 115 -12 c 0
 60 101 49 222 49 300 c 0
720 -190 m 0
 720 -187 720 -185 733 -173 c 0
 857 -47 894 129 894 300 c 0
 894 509 837 668 739 767 c 0
 720 785 720 787 720 790 c 0
 720 796 724 800 730 800 c 0
 740 800 826 735 886 612 c 0
 941 499 952 378 952 300 c 0
 952 216 940 105 889 -5 c 0
 830 -132 740 -200 730 -200 c 0
 724 -200 720 -196 720 -190 c 0
531 303 m 0
 531 475 635 563 729 563 c 0
 793 563 824 524 824 479 c 0
 824 450 804 440 788 440 c 0
 770 440 752 454 752 478 c 0
 752 509 778 513 792 514 c 1
 776 538 746 541 730 541 c 0
 704 541 663 527 636 483 c 0
 619 456 604 410 604 331 c 2
 604 314 l 1
 622 355 652 384 694 384 c 0
 776 384 843 317 843 219 c 0
 843 120 773 51 688 51 c 0
 644 51 597 70 565 130 c 1
 543 172 531 230 531 303 c 0
606 232 m 0
 606 218 605 159 618 127 c 0
 622 116 644 75 688 75 c 0
 709 75 740 82 758 122 c 0
 770 148 770 184 770 220 c 0
 770 258 771 294 758 321 c 0
 739 361 708 365 692 365 c 0
 632 365 606 299 606 232 c 0
156 396 m 0
 156 451 173 486 204 518 c 1
 235 550 273 563 315 563 c 0
 404 563 468 476 468 312 c 0
 468 143 374 51 280 51 c 0
 214 51 175 85 175 135 c 0
 175 164 196 174 212 174 c 0
 230 174 247 160 247 136 c 0
 247 118 237 99 210 99 c 1
 230 76 266 75 279 75 c 0
 310 75 345 92 368 134 c 0
 385 164 395 211 395 279 c 2
 395 301 l 1
 376 255 345 231 305 231 c 0
 222 231 156 300 156 396 c 0
229 395 m 0
 229 357 229 321 242 294 c 0
 261 254 291 250 307 250 c 0
 370 250 394 324 394 382 c 0
 394 414 392 461 383 485 c 0
 373 513 350 541 315 541 c 0
 287 541 262 532 244 498 c 0
 229 471 229 435 229 395 c 0
EndSplineSet
EndChar
StartChar: uF26F2
Encoding: 993010 993010 1126
Width: 1000
Flags: MW
LayerCount: 2
Fore
SplineSet
49 300 m 0
 49 384 61 495 112 605 c 0
 171 732 261 800 271 800 c 0
 277 800 281 797 281 790 c 0
 281 787 281 785 268 773 c 0
 145 648 107 474 107 300 c 0
 107 223 115 137 139 54 c 0
 162 -28 202 -106 264 -168 c 0
 281 -185 281 -187 281 -190 c 0
 281 -197 277 -200 271 -200 c 0
 261 -200 175 -135 115 -12 c 0
 60 101 49 222 49 300 c 0
720 -190 m 0
 720 -187 720 -185 733 -173 c 0
 857 -47 894 129 894 300 c 0
 894 509 837 668 739 767 c 0
 720 785 720 787 720 790 c 0
 720 796 724 800 730 800 c 0
 740 800 826 735 886 612 c 0
 941 499 952 378 952 300 c 0
 952 216 940 105 889 -5 c 0
 830 -132 740 -200 730 -200 c 0
 724 -200 720 -196 720 -190 c 0
545 410 m 1
 570 574 l 1
 592 574 l 1
 594 565 594 558 614 554 c 1
 627 552 668 550 697 550 c 2
 867 550 l 1
 867 532 867 530 860 521 c 2
 759 381 l 2
 729 339 718 279 714 254 c 0
 708 215 706 174 706 134 c 2
 706 96 l 2
 706 78 698 52 670 52 c 0
 644 52 634 77 634 96 c 0
 634 181 664 285 731 382 c 1
 743 401 797 474 803 483 c 1
 658 483 l 2
 648 483 592 482 586 478 c 0
 578 471 570 433 567 410 c 1
 545 410 l 1
160 397 m 0
 160 452 177 488 208 520 c 1
 239 552 276 564 318 564 c 0
 407 564 471 478 471 314 c 0
 471 145 377 52 283 52 c 0
 217 52 179 87 179 137 c 0
 179 166 199 176 215 176 c 0
 233 176 251 162 251 138 c 0
 251 120 241 101 214 101 c 1
 234 78 269 76 282 76 c 0
 313 76 348 94 371 136 c 0
 388 166 399 213 399 281 c 2
 399 303 l 1
 380 257 349 232 309 232 c 0
 226 232 160 301 160 397 c 0
232 397 m 0
 232 359 232 323 245 296 c 0
 264 256 295 252 311 252 c 0
 374 252 397 326 397 384 c 0
 397 416 395 463 386 487 c 0
 376 515 353 543 318 543 c 0
 290 543 265 533 247 499 c 0
 232 472 232 437 232 397 c 0
EndSplineSet
EndChar
StartChar: uF26F7
Encoding: 993015 993015 1131
Width: 1000
Flags: MW
LayerCount: 2
Fore
SplineSet
49 300 m 0
 49 384 61 495 112 605 c 0
 171 732 261 800 271 800 c 0
 277 800 281 797 281 790 c 0
 281 787 281 785 268 773 c 0
 145 648 107 474 107 300 c 0
 107 223 115 137 139 54 c 0
 162 -28 202 -106 264 -168 c 0
 281 -185 281 -187 281 -190 c 0
 281 -197 277 -200 271 -200 c 0
 261 -200 175 -135 115 -12 c 0
 60 101 49 222 49 300 c 0
720 -190 m 0
 720 -187 720 -185 733 -173 c 0
 857 -47 894 129 894 300 c 0
 894 509 837 668 739 767 c 0
 720 785 720 787 720 790 c 0
 720 796 724 800 730 800 c 0
 740 800 826 735 886 612 c 0
 941 499 952 378 952 300 c 0
 952 216 940 105 889 -5 c 0
 830 -132 740 -200 730 -200 c 0
 724 -200 720 -196 720 -190 c 0
424 104 m 1
 424 93 424 86 430 82 c 1
 436 78 447 76 469 76 c 1
 531 76 l 1
 551 76 563 76 569 80 c 1
 576 84 576 93 576 104 c 1
 576 509 l 1
 576 520 576 528 569 532 c 1
 563 536 551 537 531 537 c 1
 469 537 l 1
 445 537 435 535 429 530 c 1
 425 526 424 519 424 509 c 1
 424 104 l 1
278 50 m 1
 278 76 l 1
 293 76 l 1
 313 76 341 76 347 80 c 1
 354 84 354 93 354 104 c 1
 354 509 l 1
 354 520 354 528 347 532 c 1
 341 536 313 537 293 537 c 1
 278 537 l 1
 278 563 l 1
 303 561 361 560 389 560 c 0
 417 560 583 560 611 560 c 0
 639 560 697 561 722 563 c 1
 722 537 l 1
 707 537 l 1
 683 537 657 535 651 530 c 1
 647 526 646 519 646 509 c 1
 646 104 l 1
 646 93 646 86 652 82 c 1
 658 78 685 76 707 76 c 1
 722 76 l 1
 722 50 l 1
 697 52 639 52 611 52 c 0
 583 52 417 52 389 52 c 0
 361 52 303 52 278 50 c 1
EndSplineSet
EndChar
StartChar: uF26FC
Encoding: 993020 993020 1136
Width: 1000
Flags: MW
LayerCount: 2
Fore
SplineSet
49 300 m 0
 49 384 61 495 112 605 c 0
 171 732 261 800 271 800 c 0
 277 800 281 797 281 790 c 0
 281 787 281 785 268 773 c 0
 145 648 107 474 107 300 c 0
 107 223 115 137 139 54 c 0
 162 -28 202 -106 264 -168 c 0
 281 -185 281 -187 281 -190 c 0
 281 -197 277 -200 271 -200 c 0
 261 -200 175 -135 115 -12 c 0
 60 101 49 222 49 300 c 0
720 -190 m 0
 720 -187 720 -185 733 -173 c 0
 857 -47 894 129 894 300 c 0
 894 509 837 668 739 767 c 0
 720 785 720 787 720 790 c 0
 720 796 724 800 730 800 c 0
 740 800 826 735 886 612 c 0
 941 499 952 378 952 300 c 0
 952 216 940 105 889 -5 c 0
 830 -132 740 -200 730 -200 c 0
 724 -200 720 -196 720 -190 c 0
598 104 m 1
 598 95 599 88 605 83 c 1
 612 78 629 76 638 76 c 1
 647 76 665 78 672 83 c 1
 678 88 679 94 679 104 c 1
 679 509 l 1
 679 519 678 525 671 530 c 1
 664 535 647 537 638 537 c 1
 628 537 611 534 604 528 c 1
 598 523 598 517 598 509 c 1
 598 104 l 1
186 540 m 1
 186 564 l 1
 203 562 235 562 254 562 c 0
 274 562 309 562 327 564 c 1
 327 540 l 1
 325 540 286 540 286 536 c 1
 286 536 286 536 287 534 c 1
 373 160 l 1
 454 516 l 2
 455 519 456 522 456 526 c 0
 456 536 425 540 418 540 c 1
 418 564 l 1
 436 562 457 562 475 562 c 0
 488 562 680 560 708 560 c 0
 736 560 789 561 814 563 c 1
 814 537 l 1
 799 537 l 1
 778 537 753 536 747 532 c 1
 740 528 740 520 740 509 c 1
 740 104 l 1
 740 91 740 84 749 80 c 1
 756 77 780 76 799 76 c 1
 814 76 l 1
 814 50 l 1
 789 52 736 52 708 52 c 0
 680 52 597 52 569 52 c 0
 541 52 488 52 463 50 c 1
 463 76 l 1
 478 76 l 1
 498 76 523 76 529 80 c 1
 537 84 537 92 537 104 c 1
 537 509 l 1
 537 518 537 524 534 528 c 1
 527 533 518 536 500 536 c 1
 492 536 490 533 486 531 c 0
 483 529 480 525 479 518 c 2
 373 60 l 2
 369 43 364 42 356 42 c 0
 344 42 341 47 338 61 c 2
 227 535 l 1
 226 540 190 540 186 540 c 1
EndSplineSet
EndChar
StartChar: uF2703
Encoding: 993027 993027 1143
Width: 1000
Flags: MW
LayerCount: 2
Fore
SplineSet
49 300 m 0
 49 384 61 495 112 605 c 0
 171 732 261 800 271 800 c 0
 277 800 281 797 281 790 c 0
 281 787 281 785 268 773 c 0
 145 648 107 474 107 300 c 0
 107 223 115 137 139 54 c 0
 162 -28 202 -106 264 -168 c 0
 281 -185 281 -187 281 -190 c 0
 281 -197 277 -200 271 -200 c 0
 261 -200 175 -135 115 -12 c 0
 60 101 49 222 49 300 c 0
720 -190 m 0
 720 -187 720 -185 733 -173 c 0
 857 -47 894 129 894 300 c 0
 894 509 837 668 739 767 c 0
 720 785 720 787 720 790 c 0
 720 796 724 800 730 800 c 0
 740 800 826 735 886 612 c 0
 941 499 952 378 952 300 c 0
 952 216 940 105 889 -5 c 0
 830 -132 740 -200 730 -200 c 0
 724 -200 720 -196 720 -190 c 0
337 371 m 1
 429 97 l 1
 433 83 443 77 456 77 c 1
 462 77 470 78 473 80 c 1
 480 84 480 93 480 104 c 1
 480 509 l 1
 480 520 480 528 473 532 c 1
 470 534 463 535 457 536 c 1
 456 536 457 536 456 536 c 1
 439 535 422 534 410 530 c 0
 388 522 380 511 375 495 c 2
 337 371 l 1
161 50 m 1
 161 76 l 1
 169 76 172 76 178 77 c 1
 194 79 194 78 203 84 c 0
 219 93 225 109 228 118 c 2
 285 306 l 1
 216 516 l 1
 209 535 202 537 181 537 c 1
 171 537 l 1
 171 563 l 1
 197 561 212 560 235 560 c 0
 263 560 285 561 310 563 c 1
 310 537 l 1
 292 536 287 530 287 523 c 1
 287 521 290 512 291 510 c 1
 321 420 l 1
 342 492 l 2
 344 500 348 509 348 515 c 1
 348 530 347 536 327 537 c 1
 327 563 l 1
 354 561 366 560 394 560 c 0
 414 560 587 560 619 560 c 0
 646 560 679 561 704 563 c 1
 704 537 l 1
 690 537 664 536 664 525 c 1
 664 521 665 518 667 509 c 1
 718 203 l 1
 767 491 l 2
 768 495 770 510 770 515 c 0
 770 530 767 536 737 537 c 1
 737 563 l 1
 754 562 778 560 797 560 c 0
 815 560 818 561 839 563 c 1
 839 537 l 1
 835 537 828 537 825 536 c 1
 799 533 798 517 794 494 c 2
 716 51 l 2
 714 39 709 36 697 36 c 0
 686 36 681 39 677 53 c 2
 593 514 l 1
 591 528 582 535 571 535 c 1
 564 535 558 533 555 530 c 1
 551 526 550 519 550 509 c 1
 550 104 l 1
 550 93 550 86 556 82 c 1
 562 78 584 76 606 76 c 1
 620 76 l 1
 620 50 l 1
 595 52 543 52 515 52 c 0
 487 52 439 52 410 52 c 0
 382 52 351 52 326 50 c 1
 326 76 l 1
 350 77 357 82 357 89 c 1
 357 91 355 98 354 100 c 1
 301 257 l 1
 260 121 l 2
 257 113 253 102 253 96 c 1
 254 84 262 76 285 76 c 1
 285 50 l 1
 260 52 235 52 209 52 c 0
 185 52 187 51 161 50 c 1
EndSplineSet
EndChar
StartChar: uF2709
Encoding: 993033 993033 1149
Width: 1000
Flags: MW
LayerCount: 2
Fore
SplineSet
49 300 m 0
 49 384 61 495 112 605 c 0
 171 732 261 800 271 800 c 0
 277 800 281 797 281 790 c 0
 281 787 281 785 268 773 c 0
 145 648 107 474 107 300 c 0
 107 223 115 137 139 54 c 0
 162 -28 202 -106 264 -168 c 0
 281 -185 281 -187 281 -190 c 0
 281 -197 277 -200 271 -200 c 0
 261 -200 175 -135 115 -12 c 0
 60 101 49 222 49 300 c 0
720 -190 m 0
 720 -187 720 -185 733 -173 c 0
 857 -47 894 129 894 300 c 0
 894 509 837 668 739 767 c 0
 720 785 720 787 720 790 c 0
 720 796 724 800 730 800 c 0
 740 800 826 735 886 612 c 0
 941 499 952 378 952 300 c 0
 952 216 940 105 889 -5 c 0
 830 -132 740 -200 730 -200 c 0
 724 -200 720 -196 720 -190 c 0
325 350 m 1
 325 375 l 1
 348 374 375 373 394 373 c 0
 407 373 452 374 473 375 c 1
 473 350 l 1
 463 350 433 350 433 334 c 1
 433 333 434 332 437 324 c 1
 517 115 l 1
 590 306 l 2
 593 314 594 316 594 322 c 0
 594 335 584 349 561 350 c 1
 561 375 l 1
 573 374 606 373 623 373 c 0
 639 373 659 373 675 375 c 1
 675 350 l 1
 629 349 620 322 614 306 c 2
 518 58 l 2
 514 49 510 43 500 43 c 0
 491 43 488 46 483 58 c 2
 378 327 l 1
 375 336 372 342 366 345 c 1
 360 348 343 350 325 350 c 1
EndSplineSet
EndChar
StartChar: uF270C
Encoding: 993036 993036 1152
Width: 1000
Flags: MW
LayerCount: 2
Fore
SplineSet
49 300 m 0
 49 384 61 495 112 605 c 0
 171 732 261 800 271 800 c 0
 277 800 281 797 281 790 c 0
 281 787 281 785 268 773 c 0
 145 648 107 474 107 300 c 0
 107 223 115 137 139 54 c 0
 162 -28 202 -106 264 -168 c 0
 281 -185 281 -187 281 -190 c 0
 281 -197 277 -200 271 -200 c 0
 261 -200 175 -135 115 -12 c 0
 60 101 49 222 49 300 c 0
720 -190 m 0
 720 -187 720 -185 733 -173 c 0
 857 -47 894 129 894 300 c 0
 894 509 837 668 739 767 c 0
 720 785 720 787 720 790 c 0
 720 796 724 800 730 800 c 0
 740 800 826 735 886 612 c 0
 941 499 952 378 952 300 c 0
 952 216 940 105 889 -5 c 0
 830 -132 740 -200 730 -200 c 0
 724 -200 720 -196 720 -190 c 0
159 350 m 1
 159 375 l 1
 182 374 193 373 212 373 c 0
 225 373 265 374 286 375 c 1
 286 350 l 1
 276 350 249 350 249 334 c 1
 249 333 250 332 252 324 c 1
 299 133 l 1
 342 306 l 2
 344 314 346 316 346 322 c 0
 346 335 338 349 315 350 c 1
 315 375 l 1
 327 374 358 373 375 373 c 0
 391 373 394 373 410 375 c 1
 410 350 l 1
 369 349 369 322 365 306 c 2
 302 58 l 2
 299 48 294 43 284 43 c 0
 275 43 272 46 268 58 c 2
 196 327 l 1
 194 337 189 342 183 345 c 1
 177 348 177 350 159 350 c 1
430 50 m 1
 430 76 l 1
 451 76 458 75 464 80 c 1
 468 84 470 91 470 103 c 1
 470 310 l 2
 470 345 476 349 433 349 c 1
 433 375 l 1
 522 383 l 1
 522 102 l 1
 522 91 522 85 526 81 c 1
 531 76 536 76 556 76 c 1
 556 50 l 1
 532 51 519 52 495 52 c 0
 476 52 452 51 430 50 c 1
444 512 m 0
 444 534 461 556 484 556 c 0
 506 556 525 538 525 512 c 0
 525 486 506 469 484 469 c 0
 461 469 444 489 444 512 c 0
573 50 m 1
 573 76 l 1
 594 76 601 75 607 80 c 1
 611 84 613 91 613 103 c 1
 613 310 l 2
 613 345 619 349 576 349 c 1
 576 375 l 1
 665 383 l 1
 665 102 l 1
 665 91 665 85 669 81 c 1
 674 76 679 76 699 76 c 1
 699 50 l 1
 675 51 662 52 638 52 c 0
 619 52 595 51 573 50 c 1
587 512 m 0
 587 534 604 556 627 556 c 0
 649 556 668 538 668 512 c 0
 668 486 649 469 627 469 c 0
 604 469 587 489 587 512 c 0
716 50 m 1
 716 76 l 1
 737 76 744 75 750 80 c 1
 754 84 755 91 755 103 c 1
 755 310 l 2
 755 345 761 349 719 349 c 1
 719 375 l 1
 807 383 l 1
 807 102 l 1
 807 91 808 85 812 81 c 1
 817 76 821 76 841 76 c 1
 841 50 l 1
 817 51 805 52 781 52 c 0
 762 52 738 51 716 50 c 1
730 512 m 0
 730 534 747 556 770 556 c 0
 792 556 811 538 811 512 c 0
 811 486 792 469 770 469 c 0
 747 469 730 489 730 512 c 0
EndSplineSet
EndChar
StartChar: uF270E
Encoding: 993038 993038 1154
Width: 1000
Flags: MW
LayerCount: 2
Fore
SplineSet
49 300 m 0
 49 384 61 495 112 605 c 0
 171 732 261 800 271 800 c 0
 277 800 281 797 281 790 c 0
 281 787 281 785 268 773 c 0
 145 648 107 474 107 300 c 0
 107 223 115 137 139 54 c 0
 162 -28 202 -106 264 -168 c 0
 281 -185 281 -187 281 -190 c 0
 281 -197 277 -200 271 -200 c 0
 261 -200 175 -135 115 -12 c 0
 60 101 49 222 49 300 c 0
720 -190 m 0
 720 -187 720 -185 733 -173 c 0
 857 -47 894 129 894 300 c 0
 894 509 837 668 739 767 c 0
 720 785 720 787 720 790 c 0
 720 796 724 800 730 800 c 0
 740 800 826 735 886 612 c 0
 941 499 952 378 952 300 c 0
 952 216 940 105 889 -5 c 0
 830 -132 740 -200 730 -200 c 0
 724 -200 720 -196 720 -190 c 0
319 50 m 1
 319 76 l 1
 337 76 376 76 405 114 c 1
 476 208 l 1
 399 313 l 1
 387 330 380 339 373 344 c 1
 364 350 344 350 323 350 c 1
 323 375 l 1
 343 374 376 373 392 373 c 0
 405 373 451 374 469 375 c 1
 469 350 l 1
 458 349 444 344 444 335 c 1
 444 331 444 330 449 324 c 1
 506 246 l 1
 553 307 l 2
 556 311 561 320 562 330 c 1
 560 341 555 349 541 350 c 1
 541 375 l 1
 552 374 589 373 609 373 c 0
 624 373 649 373 668 375 c 1
 668 350 l 1
 630 349 606 339 587 315 c 1
 574 299 536 251 519 228 c 1
 617 94 l 1
 630 77 651 76 681 76 c 1
 681 50 l 1
 660 51 631 52 611 52 c 0
 594 52 554 51 534 50 c 1
 534 76 l 1
 549 77 560 86 560 91 c 1
 560 95 552 103 548 110 c 1
 490 190 l 1
 465 159 437 124 430 111 c 1
 426 104 425 100 425 96 c 0
 425 86 432 78 447 76 c 1
 447 50 l 1
 431 51 399 52 379 52 c 0
 364 52 338 52 319 50 c 1
EndSplineSet
EndChar
StartChar: uF2710
Encoding: 993040 993040 1156
Width: 1000
Flags: MW
LayerCount: 2
Fore
SplineSet
49 300 m 0
 49 384 61 495 112 605 c 0
 171 732 261 800 271 800 c 0
 277 800 281 797 281 790 c 0
 281 787 281 785 268 773 c 0
 145 648 107 474 107 300 c 0
 107 223 115 137 139 54 c 0
 162 -28 202 -106 264 -168 c 0
 281 -185 281 -187 281 -190 c 0
 281 -197 277 -200 271 -200 c 0
 261 -200 175 -135 115 -12 c 0
 60 101 49 222 49 300 c 0
720 -190 m 0
 720 -187 720 -185 733 -173 c 0
 857 -47 894 129 894 300 c 0
 894 509 837 668 739 767 c 0
 720 785 720 787 720 790 c 0
 720 796 724 800 730 800 c 0
 740 800 826 735 886 612 c 0
 941 499 952 378 952 300 c 0
 952 216 940 105 889 -5 c 0
 830 -132 740 -200 730 -200 c 0
 724 -200 720 -196 720 -190 c 0
168 50 m 1
 168 76 l 1
 186 76 224 76 253 114 c 1
 307 208 l 1
 247 313 l 1
 236 331 227 339 220 344 c 1
 211 350 193 350 172 350 c 1
 172 375 l 1
 192 374 223 373 239 373 c 0
 252 373 298 374 316 375 c 1
 316 350 l 1
 305 349 292 344 292 335 c 1
 292 331 291 330 296 324 c 1
 335 258 l 1
 366 312 l 2
 369 316 375 326 376 336 c 1
 374 347 368 349 354 350 c 1
 354 375 l 1
 365 374 403 373 423 373 c 0
 438 373 461 373 480 375 c 1
 480 350 l 1
 442 349 420 338 401 315 c 1
 388 299 351 232 351 232 c 1
 432 94 l 1
 446 77 463 76 493 76 c 1
 493 50 l 1
 472 51 445 52 425 52 c 0
 408 52 368 51 348 50 c 1
 348 76 l 1
 363 77 373 86 373 91 c 1
 373 95 367 104 362 110 c 1
 321 182 l 1
 321 182 284 124 277 111 c 1
 273 104 273 100 273 96 c 0
 273 86 279 78 294 76 c 1
 294 50 l 1
 278 51 247 52 227 52 c 0
 212 52 187 52 168 50 c 1
508 50 m 1
 508 76 l 1
 529 76 550 75 556 80 c 1
 560 84 561 91 561 103 c 1
 561 310 l 2
 561 345 555 349 510 349 c 1
 510 375 l 1
 613 383 l 1
 613 102 l 1
 613 91 614 85 618 81 c 1
 623 76 641 76 661 76 c 1
 661 50 l 1
 637 51 610 52 586 52 c 0
 567 52 530 51 508 50 c 1
536 512 m 0
 536 534 553 556 576 556 c 0
 598 556 617 538 617 512 c 0
 617 486 598 469 576 469 c 0
 553 469 536 489 536 512 c 0
678 50 m 1
 678 76 l 1
 699 76 720 75 726 80 c 1
 730 84 732 91 732 103 c 1
 732 310 l 2
 732 345 726 349 681 349 c 1
 681 375 l 1
 784 383 l 1
 784 102 l 1
 784 91 785 85 789 81 c 1
 794 76 812 76 832 76 c 1
 832 50 l 1
 808 51 781 52 757 52 c 0
 738 52 700 51 678 50 c 1
706 512 m 0
 706 534 724 556 747 556 c 0
 769 556 788 538 788 512 c 0
 788 486 769 469 747 469 c 0
 724 469 706 489 706 512 c 0
EndSplineSet
EndChar
StartChar: uF2711
Encoding: 993041 993041 1157
Width: 1000
Flags: MW
LayerCount: 2
Fore
SplineSet
49 300 m 0
 49 384 61 495 112 605 c 0
 171 732 261 800 271 800 c 0
 277 800 281 797 281 790 c 0
 281 787 281 785 268 773 c 0
 145 648 107 474 107 300 c 0
 107 223 115 137 139 54 c 0
 162 -28 202 -106 264 -168 c 0
 281 -185 281 -187 281 -190 c 0
 281 -197 277 -200 271 -200 c 0
 261 -200 175 -135 115 -12 c 0
 60 101 49 222 49 300 c 0
720 -190 m 0
 720 -187 720 -185 733 -173 c 0
 857 -47 894 129 894 300 c 0
 894 509 837 668 739 767 c 0
 720 785 720 787 720 790 c 0
 720 796 724 800 730 800 c 0
 740 800 826 735 886 612 c 0
 941 499 952 378 952 300 c 0
 952 216 940 105 889 -5 c 0
 830 -132 740 -200 730 -200 c 0
 724 -200 720 -196 720 -190 c 0
156 50 m 1
 156 76 l 1
 174 76 186 76 214 114 c 1
 264 208 l 1
 208 313 l 1
 197 331 188 339 181 344 c 1
 172 350 181 350 160 350 c 1
 160 375 l 1
 180 374 184 373 200 373 c 0
 213 373 255 374 273 375 c 1
 273 350 l 1
 262 349 252 344 252 335 c 1
 252 331 251 330 256 324 c 1
 291 263 l 1
 318 312 l 2
 321 316 328 326 328 336 c 1
 328 346 323 349 309 350 c 1
 309 375 l 1
 320 374 354 373 374 373 c 0
 389 373 386 373 405 375 c 1
 405 350 l 1
 371 349 371 339 353 315 c 1
 340 299 307 233 307 233 c 1
 383 94 l 1
 397 77 388 76 418 76 c 1
 418 50 l 1
 397 51 397 52 377 52 c 0
 360 52 324 51 304 50 c 1
 304 76 l 1
 319 77 326 86 326 91 c 1
 326 95 320 104 315 110 c 1
 278 179 l 1
 278 179 246 124 239 111 c 1
 236 105 235 100 235 96 c 0
 235 86 238 78 252 76 c 1
 252 50 l 1
 236 51 208 52 188 52 c 0
 173 52 175 52 156 50 c 1
433 50 m 1
 433 76 l 1
 454 76 461 75 467 80 c 1
 471 84 472 91 472 103 c 1
 472 310 l 2
 472 345 479 349 436 349 c 1
 436 375 l 1
 524 383 l 1
 524 102 l 1
 524 91 525 85 529 81 c 1
 534 76 538 76 558 76 c 1
 558 50 l 1
 534 51 521 52 497 52 c 0
 478 52 455 51 433 50 c 1
447 512 m 0
 447 534 464 556 487 556 c 0
 509 556 528 538 528 512 c 0
 528 486 509 469 487 469 c 0
 464 469 447 489 447 512 c 0
576 50 m 1
 576 76 l 1
 597 76 603 75 609 80 c 1
 613 84 615 91 615 103 c 1
 615 310 l 2
 615 345 621 349 578 349 c 1
 578 375 l 1
 667 383 l 1
 667 102 l 1
 667 91 668 85 672 81 c 1
 677 76 681 76 701 76 c 1
 701 50 l 1
 677 51 664 52 640 52 c 0
 621 52 598 51 576 50 c 1
590 512 m 0
 590 534 607 556 630 556 c 0
 652 556 671 538 671 512 c 0
 671 486 652 469 630 469 c 0
 607 469 590 489 590 512 c 0
718 50 m 1
 718 76 l 1
 739 76 746 75 752 80 c 1
 756 84 758 91 758 103 c 1
 758 310 l 2
 758 345 764 349 721 349 c 1
 721 375 l 1
 810 383 l 1
 810 102 l 1
 810 91 810 85 814 81 c 1
 819 76 824 76 844 76 c 1
 844 50 l 1
 820 51 807 52 783 52 c 0
 764 52 740 51 718 50 c 1
732 512 m 0
 732 534 749 556 772 556 c 0
 794 556 814 538 814 512 c 0
 814 486 794 469 772 469 c 0
 749 469 732 489 732 512 c 0
EndSplineSet
EndChar
StartChar: uF2718
Encoding: 993048 993048 1164
Width: 1000
Flags: MW
LayerCount: 2
Fore
SplineSet
49 300 m 0
 49 384 61 495 112 605 c 0
 171 732 261 800 271 800 c 0
 277 800 281 797 281 790 c 0
 281 787 281 785 268 773 c 0
 145 648 107 474 107 300 c 0
 107 223 115 137 139 54 c 0
 162 -28 202 -106 264 -168 c 0
 281 -185 281 -187 281 -190 c 0
 281 -197 277 -200 271 -200 c 0
 261 -200 175 -135 115 -12 c 0
 60 101 49 222 49 300 c 0
720 -190 m 0
 720 -187 720 -185 733 -173 c 0
 857 -47 894 129 894 300 c 0
 894 509 837 668 739 767 c 0
 720 785 720 787 720 790 c 0
 720 796 724 800 730 800 c 0
 740 800 826 735 886 612 c 0
 941 499 952 378 952 300 c 0
 952 216 940 105 889 -5 c 0
 830 -132 740 -200 730 -200 c 0
 724 -200 720 -196 720 -190 c 0
262 35 m 1
 262 61 l 1
 276 61 l 1
 297 61 327 62 333 66 c 1
 339 70 340 78 340 88 c 1
 340 492 l 1
 340 502 340 509 334 513 c 1
 328 517 298 519 276 519 c 1
 262 519 l 1
 262 545 l 1
 695 545 l 1
 717 373 l 1
 693 373 l 1
 681 474 661 519 545 519 c 2
 444 519 l 1
 418 519 417 515 417 496 c 1
 417 313 l 1
 477 313 l 2
 550 313 558 339 558 401 c 1
 582 401 l 1
 582 199 l 1
 558 199 l 1
 558 261 550 286 477 286 c 2
 417 286 l 1
 417 84 l 1
 417 65 418 61 444 61 c 1
 547 61 l 2
 679 61 697 118 715 231 c 1
 738 231 l 1
 706 35 l 1
 262 35 l 1
EndSplineSet
EndChar
StartChar: uF2723
Encoding: 993059 993059 1175
Width: 1000
Flags: MW
LayerCount: 2
Fore
SplineSet
49 300 m 0
 49 384 61 495 112 605 c 0
 171 732 261 800 271 800 c 0
 277 800 281 797 281 790 c 0
 281 787 281 785 268 773 c 0
 145 648 107 474 107 300 c 0
 107 223 115 137 139 54 c 0
 162 -28 202 -106 264 -168 c 0
 281 -185 281 -187 281 -190 c 0
 281 -197 277 -200 271 -200 c 0
 261 -200 175 -135 115 -12 c 0
 60 101 49 222 49 300 c 0
720 -190 m 0
 720 -187 720 -185 733 -173 c 0
 857 -47 894 129 894 300 c 0
 894 509 837 668 739 767 c 0
 720 785 720 787 720 790 c 0
 720 796 724 800 730 800 c 0
 740 800 826 735 886 612 c 0
 941 499 952 378 952 300 c 0
 952 216 940 105 889 -5 c 0
 830 -132 740 -200 730 -200 c 0
 724 -200 720 -196 720 -190 c 0
271 35 m 1
 271 62 l 1
 284 62 l 1
 306 62 336 63 342 67 c 1
 348 71 348 78 348 88 c 1
 348 496 l 1
 348 506 348 513 342 517 c 1
 336 521 305 522 284 522 c 1
 271 522 l 1
 271 548 l 1
 547 548 l 2
 655 548 729 483 729 407 c 0
 729 329 648 270 554 270 c 2
 426 270 l 1
 426 88 l 1
 426 79 425 73 429 69 c 1
 434 63 465 62 490 62 c 1
 503 62 l 1
 503 35 l 1
 477 37 415 38 386 38 c 0
 357 38 297 37 271 35 c 1
422 292 m 1
 525 292 l 2
 643 292 643 367 643 407 c 0
 643 448 642 522 525 522 c 2
 450 522 l 1
 424 522 422 518 422 499 c 1
 422 292 l 1
EndSplineSet
EndChar
StartChar: uF2724
Encoding: 993060 993060 1176
Width: 1000
Flags: MW
LayerCount: 2
Fore
SplineSet
49 300 m 0
 49 384 61 495 112 605 c 0
 171 732 261 800 271 800 c 0
 277 800 281 797 281 790 c 0
 281 787 281 785 268 773 c 0
 145 648 107 474 107 300 c 0
 107 223 115 137 139 54 c 0
 162 -28 202 -106 264 -168 c 0
 281 -185 281 -187 281 -190 c 0
 281 -197 277 -200 271 -200 c 0
 261 -200 175 -135 115 -12 c 0
 60 101 49 222 49 300 c 0
720 -190 m 0
 720 -187 720 -185 733 -173 c 0
 857 -47 894 129 894 300 c 0
 894 509 837 668 739 767 c 0
 720 785 720 787 720 790 c 0
 720 796 724 800 730 800 c 0
 740 800 826 735 886 612 c 0
 941 499 952 378 952 300 c 0
 952 216 940 105 889 -5 c 0
 830 -132 740 -200 730 -200 c 0
 724 -200 720 -196 720 -190 c 0
242 318 m 0
 242 473 353 591 497 591 c 0
 641 591 754 473 754 318 c 0
 754 213 697 113 600 71 c 1
 621 24 642 5 672 5 c 0
 699 5 736 23 740 60 c 0
 741 67 740 73 748 73 c 0
 758 73 758 64 758 56 c 0
 758 15 740 -82 664 -82 c 0
 594 -82 583 -14 569 60 c 1
 545 53 519 49 498 49 c 0
 352 49 242 166 242 318 c 0
325 318 m 0
 325 174 389 104 442 82 c 1
 441 84 434 98 434 114 c 0
 434 146 460 176 498 176 c 0
 522 176 542 165 556 150 c 0
 569 136 578 118 586 100 c 1
 664 156 670 264 670 318 c 0
 670 380 660 434 638 476 c 0
 602 544 541 570 497 570 c 0
 454 570 392 546 355 472 c 1
 335 430 325 374 325 318 c 0
454 114 m 0
 454 104 459 71 498 71 c 0
 515 71 539 74 563 86 c 1
 559 108 552 126 542 138 c 0
 531 151 516 156 498 156 c 0
 470 156 454 136 454 114 c 0
EndSplineSet
EndChar
StartChar: uF2725
Encoding: 993061 993061 1177
Width: 1000
Flags: MW
LayerCount: 2
Fore
SplineSet
49 300 m 0
 49 384 61 495 112 605 c 0
 171 732 261 800 271 800 c 0
 277 800 281 797 281 790 c 0
 281 787 281 785 268 773 c 0
 145 648 107 474 107 300 c 0
 107 223 115 137 139 54 c 0
 162 -28 202 -106 264 -168 c 0
 281 -185 281 -187 281 -190 c 0
 281 -197 277 -200 271 -200 c 0
 261 -200 175 -135 115 -12 c 0
 60 101 49 222 49 300 c 0
720 -190 m 0
 720 -187 720 -185 733 -173 c 0
 857 -47 894 129 894 300 c 0
 894 509 837 668 739 767 c 0
 720 785 720 787 720 790 c 0
 720 796 724 800 730 800 c 0
 740 800 826 735 886 612 c 0
 941 499 952 378 952 300 c 0
 952 216 940 105 889 -5 c 0
 830 -132 740 -200 730 -200 c 0
 724 -200 720 -196 720 -190 c 0
247 33 m 1
 247 60 l 1
 261 60 l 1
 283 60 314 61 320 65 c 1
 326 69 326 76 326 86 c 1
 326 493 l 1
 326 503 325 511 319 515 c 1
 313 519 282 520 261 520 c 1
 247 520 l 1
 247 546 l 1
 496 546 l 2
 614 546 698 483 698 410 c 0
 698 354 644 307 568 288 c 1
 607 274 645 250 658 201 c 1
 658 200 667 142 667 140 c 1
 675 80 683 38 722 38 c 0
 742 38 766 52 770 100 c 0
 771 106 772 114 782 114 c 0
 792 114 793 108 793 101 c 0
 793 82 782 18 718 18 c 0
 694 18 650 24 618 48 c 1
 582 76 582 107 582 156 c 0
 582 207 581 227 554 254 c 0
 529 280 498 280 486 280 c 2
 399 280 l 1
 399 86 l 1
 399 77 400 70 404 66 c 1
 409 61 440 60 464 60 c 1
 478 60 l 1
 478 33 l 1
 451 35 393 36 363 36 c 0
 333 36 274 35 247 33 c 1
399 299 m 1
 484 299 l 2
 598 299 612 360 612 410 c 0
 612 503 549 520 468 520 c 1
 457 520 418 520 412 518 c 1
 400 516 399 511 399 498 c 1
 399 299 l 1
EndSplineSet
EndChar
StartChar: uF2727
Encoding: 993063 993063 1179
Width: 1000
Flags: MW
LayerCount: 2
Fore
SplineSet
49 300 m 0
 49 384 61 495 112 605 c 0
 171 732 261 800 271 800 c 0
 277 800 281 797 281 790 c 0
 281 787 281 785 268 773 c 0
 145 648 107 474 107 300 c 0
 107 223 115 137 139 54 c 0
 162 -28 202 -106 264 -168 c 0
 281 -185 281 -187 281 -190 c 0
 281 -197 277 -200 271 -200 c 0
 261 -200 175 -135 115 -12 c 0
 60 101 49 222 49 300 c 0
720 -190 m 0
 720 -187 720 -185 733 -173 c 0
 857 -47 894 129 894 300 c 0
 894 509 837 668 739 767 c 0
 720 785 720 787 720 790 c 0
 720 796 724 800 730 800 c 0
 740 800 826 735 886 612 c 0
 941 499 952 378 952 300 c 0
 952 216 940 105 889 -5 c 0
 830 -132 740 -200 730 -200 c 0
 724 -200 720 -196 720 -190 c 0
251 370 m 1
 264 542 l 1
 736 542 l 1
 749 370 l 1
 727 370 l 1
 717 482 707 516 595 516 c 1
 585 516 554 517 548 515 c 1
 538 513 538 504 538 493 c 1
 538 88 l 1
 538 78 539 70 547 66 c 1
 555 62 598 61 626 61 c 1
 648 61 l 1
 648 35 l 1
 615 37 536 37 500 37 c 0
 464 37 385 37 352 35 c 1
 352 61 l 1
 374 61 l 1
 406 61 450 63 457 68 c 1
 463 72 462 79 462 88 c 1
 462 493 l 1
 462 506 462 513 450 515 c 1
 444 517 415 516 405 516 c 1
 293 516 282 482 273 370 c 1
 251 370 l 1
EndSplineSet
EndChar
StartChar: uF27AA
Encoding: 993194 993194 1202
Width: 1000
Flags: MW
LayerCount: 2
Fore
SplineSet
550 0 m 1
 550 7 550 12 550 16 c 6
 550 26 553 29 561 37 c 2
 753 251 l 2
 808 313 858 392 858 472 c 0
 858 554 815 635 724 635 c 0
 666 635 612 598 589 533 c 1
 592 534 594 534 602 534 c 0
 637 534 655 508 655 482 c 0
 655 441 620 429 603 429 c 0
 600 429 550 429 550 485 c 0
 550 574 624 666 737 666 c 0
 859 666 949 586 949 472 c 0
 949 372 889 318 733 180 c 1
 627 77 l 1
 807 77 l 2
 829 77 895 77 902 85 c 1
 912 100 919 144 924 174 c 1
 949 174 l 1
 921 0 l 1
 550 0 l 1
184 250 m 4
 184 334 196 445 247 555 c 4
 306 682 396 750 406 750 c 4
 412 750 416 747 416 740 c 4
 416 737 416 735 403 723 c 4
 280 598 242 424 242 250 c 4
 242 173 250 87 274 4 c 4
 297 -78 337 -156 399 -218 c 4
 416 -235 416 -237 416 -240 c 4
 416 -247 412 -250 406 -250 c 4
 396 -250 310 -185 250 -62 c 4
 195 51 184 172 184 250 c 4
EndSplineSet
EndChar
StartChar: uF27AB
Encoding: 993195 993195 1203
Width: 1000
Flags: MW
LayerCount: 2
Fore
SplineSet
542 135 m 0
 542 179 574 193 598 193 c 0
 627 193 654 173 654 137 c 0
 654 99 623 77 588 82 c 1
 623 23 698 6 741 6 c 0
 785 6 854 35 854 171 c 0
 854 269 817 337 735 337 c 2
 691 337 l 2
 674 337 667 337 667 348 c 0
 667 358 674 359 682 360 c 0
 689 360 713 362 721 363 c 0
 746 364 780 367 810 415 c 1
 836 459 838 517 838 529 c 0
 838 619 783 641 742 641 c 0
 706 641 640 628 609 579 c 1
 624 579 671 579 671 529 c 0
 671 500 651 478 620 478 c 0
 591 478 569 497 569 530 c 0
 569 606 645 666 746 666 c 0
 842 666 930 610 930 528 c 0
 930 449 872 379 790 352 c 1
 894 331 957 253 957 171 c 0
 957 69 866 -22 744 -22 c 0
 635 -22 542 44 542 135 c 0
184 250 m 4
 184 334 196 445 247 555 c 4
 306 682 396 750 406 750 c 4
 412 750 416 747 416 740 c 4
 416 737 416 735 403 723 c 4
 280 598 242 424 242 250 c 4
 242 173 250 87 274 4 c 4
 297 -78 337 -156 399 -218 c 4
 416 -235 416 -237 416 -240 c 4
 416 -247 412 -250 406 -250 c 4
 396 -250 310 -185 250 -62 c 4
 195 51 184 172 184 250 c 4
EndSplineSet
EndChar
StartChar: uF27AC
Encoding: 993196 993196 1204
Width: 1000
Flags: MW
LayerCount: 2
Fore
SplineSet
528 165 m 1
 528 196 l 1
 835 665 l 2
 843 677 846 677 855 677 c 0
 871 677 871 671 871 651 c 2
 871 196 l 1
 971 196 l 1
 971 165 l 1
 871 165 l 1
 871 78 l 2
 871 42 873 31 947 31 c 2
 968 31 l 1
 968 0 l 1
 927 3 874 3 832 3 c 0
 790 3 738 3 697 0 c 1
 697 31 l 1
 718 31 l 2
 792 31 794 42 794 78 c 2
 794 165 l 1
 528 165 l 1
556 196 m 1
 800 196 l 1
 800 569 l 1
 556 196 l 1
184 250 m 4
 184 334 196 445 247 555 c 4
 306 682 396 750 406 750 c 4
 412 750 416 747 416 740 c 4
 416 737 416 735 403 723 c 4
 280 598 242 424 242 250 c 4
 242 173 250 87 274 4 c 4
 297 -78 337 -156 399 -218 c 4
 416 -235 416 -237 416 -240 c 4
 416 -247 412 -250 406 -250 c 4
 396 -250 310 -185 250 -62 c 4
 195 51 184 172 184 250 c 4
EndSplineSet
EndChar
StartChar: uF27B1
Encoding: 993201 993201 1209
Width: 1000
Flags: MW
LayerCount: 2
Fore
SplineSet
542 441 m 0
 542 516 565 558 606 603 c 1
 649 648 698 666 753 666 c 0
 842 666 957 598 957 329 c 0
 957 114 835 -22 706 -22 c 0
 621 -22 567 19 567 86 c 0
 567 125 597 134 613 134 c 0
 635 134 659 119 659 88 c 0
 659 71 651 42 607 42 c 1
 634 8 688 6 705 6 c 0
 739 6 789 22 825 83 c 4
 850 125 867 190 867 286 c 2
 867 318 l 1
 844 260 803 218 742 218 c 0
 630 218 542 316 542 441 c 0
632 440 m 0
 632 391 632 341 650 304 c 0
 681 241 727 241 743 241 c 0
 831 241 865 338 865 421 c 0
 865 467 861 530 849 562 c 0
 832 607 799 641 753 641 c 0
 718 641 680 628 653 578 c 0
 632 541 632 494 632 440 c 0
184 250 m 4
 184 334 196 445 247 555 c 4
 306 682 396 750 406 750 c 4
 412 750 416 747 416 740 c 4
 416 737 416 735 403 723 c 4
 280 598 242 424 242 250 c 4
 242 173 250 87 274 4 c 4
 297 -78 337 -156 399 -218 c 4
 416 -235 416 -237 416 -240 c 4
 416 -247 412 -250 406 -250 c 4
 396 -250 310 -185 250 -62 c 4
 195 51 184 172 184 250 c 4
EndSplineSet
EndChar
StartChar: uF27B3
Encoding: 993203 993203 1211
Width: 1000
Flags: MW
LayerCount: 2
Fore
SplineSet
584 -240 m 4
 584 -237 584 -235 597 -223 c 4
 721 -97 758 79 758 250 c 4
 758 459 701 618 603 717 c 4
 584 735 584 737 584 740 c 4
 584 746 588 750 594 750 c 4
 604 750 690 685 750 562 c 4
 805 449 816 328 816 250 c 4
 816 166 804 55 753 -55 c 4
 694 -182 604 -250 594 -250 c 4
 588 -250 584 -246 584 -240 c 4
89 571 m 1
 89 602 l 5
 89 602 l 1
 125 602 207 606 264 659 c 0
 266 661 269 664 271 666 c 1
 294 666 294 664 294 640 c 2
 294 79 l 2
 294 42 297 31 387 31 c 2
 419 31 l 1
 419 0 l 1
 384 3 297 3 257 3 c 0
 217 3 130 3 95 0 c 1
 95 31 l 1
 127 31 l 2
 217 31 220 43 220 79 c 2
 220 597 l 1
 173 574 113 571 89 571 c 1
 89 571 l 1
EndSplineSet
EndChar
StartChar: uF27B5
Encoding: 993205 993205 1213
Width: 1000
Flags: MW
LayerCount: 2
Fore
SplineSet
584 -240 m 4
 584 -237 584 -235 597 -223 c 4
 721 -97 758 79 758 250 c 4
 758 459 701 618 603 717 c 4
 584 735 584 737 584 740 c 4
 584 746 588 750 594 750 c 4
 604 750 690 685 750 562 c 4
 805 449 816 328 816 250 c 4
 816 166 804 55 753 -55 c 4
 694 -182 604 -250 594 -250 c 4
 588 -250 584 -246 584 -240 c 4
42 135 m 0
 42 179 74 193 98 193 c 0
 127 193 154 173 154 137 c 0
 154 99 123 77 88 82 c 1
 123 23 198 6 241 6 c 0
 285 6 354 35 354 171 c 0
 354 269 317 337 235 337 c 2
 191 337 l 2
 174 337 167 337 167 348 c 0
 167 358 174 359 182 360 c 0
 189 360 213 362 221 363 c 0
 246 364 280 367 310 415 c 1
 336 459 338 517 338 529 c 0
 338 619 283 641 242 641 c 0
 206 641 140 628 109 579 c 1
 124 579 171 579 171 529 c 0
 171 500 151 478 120 478 c 0
 91 478 69 497 69 530 c 0
 69 606 145 666 246 666 c 0
 342 666 430 610 430 528 c 0
 430 449 372 379 290 352 c 1
 394 331 457 253 457 171 c 0
 457 69 366 -22 244 -22 c 0
 135 -22 42 44 42 135 c 0
EndSplineSet
EndChar
StartChar: uF2809
Encoding: 993289 993289 47
Width: 1000
Flags: MW
LayerCount: 2
Fore
SplineSet
545 410 m 1
 570 574 l 1
 592 574 l 1
 594 565 594 558 614 554 c 1
 627 552 668 550 697 550 c 2
 867 550 l 1
 867 532 867 530 860 521 c 2
 759 381 l 2
 729 339 718 279 714 254 c 0
 708 215 706 174 706 134 c 2
 706 96 l 2
 706 78 698 52 670 52 c 0
 644 52 634 77 634 96 c 0
 634 181 664 285 731 382 c 1
 743 401 797 474 803 483 c 1
 658 483 l 2
 648 483 592 482 586 478 c 0
 578 471 570 433 567 410 c 1
 545 410 l 1
160 169 m 0
 160 203 184 216 204 216 c 0
 228 216 248 199 248 170 c 0
 248 141 226 125 201 126 c 1
 229 88 280 76 308 76 c 0
 350 76 388 112 388 197 c 0
 388 262 368 318 304 318 c 2
 272 318 l 2
 259 318 254 318 254 328 c 0
 254 335 258 337 264 338 c 0
 268 338 283 339 294 340 c 0
 314 341 338 346 357 378 c 1
 377 410 377 454 377 462 c 0
 377 519 346 543 309 543 c 0
 284 543 239 535 216 502 c 1
 225 502 261 500 261 460 c 0
 261 436 244 418 220 418 c 0
 197 418 180 434 180 461 c 0
 180 519 236 564 312 564 c 0
 389 564 451 522 451 461 c 0
 451 401 407 350 349 331 c 1
 431 313 471 254 471 197 c 0
 471 123 408 52 310 52 c 0
 228 52 160 101 160 169 c 0
50 300 m 0
 50 555 246 770 500 770 c 0
 741 770 950 566 950 300 c 0
 950 46 754 -170 500 -170 c 0
 259 -170 50 34 50 300 c 0
95 299 m 0
 95 67 276 -125 499 -125 c 0
 721 -125 905 62 905 300 c 0
 905 533 725 725 501 725 c 0
 282 725 95 542 95 299 c 0
EndSplineSet
EndChar
StartChar: uF2814
Encoding: 993300 993300 58
Width: 1000
Flags: MW
LayerCount: 2
Fore
SplineSet
530 182 m 0
 530 252 585 292 632 316 c 1
 614 328 589 346 581 356 c 0
 552 389 550 421 550 437 c 0
 550 507 607 564 686 564 c 0
 756 564 821 524 821 453 c 0
 821 405 788 367 736 339 c 1
 776 314 790 306 805 289 c 0
 831 259 841 227 841 196 c 0
 841 116 775 52 685 52 c 0
 605 52 530 99 530 182 c 0
572 182 m 0
 572 121 622 76 686 76 c 0
 742 76 799 108 799 166 c 0
 799 210 767 230 744 245 c 1
 735 251 658 299 652 303 c 1
 598 273 572 230 572 182 c 0
587 470 m 0
 587 454 594 432 622 414 c 2
 716 353 l 1
 757 378 784 411 784 453 c 0
 784 506 740 543 685 543 c 0
 639 543 587 518 587 470 c 0
144 189 m 1
 144 215 l 1
 374 561 l 2
 380 571 381 571 390 571 c 0
 404 571 404 566 404 550 c 2
 404 215 l 1
 476 215 l 1
 476 189 l 1
 404 189 l 1
 404 119 l 1
 404 99 421 93 463 93 c 1
 475 93 l 1
 475 67 l 1
 446 69 402 69 372 69 c 0
 341 69 298 69 268 67 c 1
 268 93 l 1
 280 93 l 1
 322 93 341 99 341 119 c 1
 341 189 l 1
 144 189 l 1
168 215 m 1
 346 215 l 1
 346 483 l 1
 168 215 l 1
50 300 m 0
 50 555 246 770 500 770 c 0
 741 770 950 566 950 300 c 0
 950 46 754 -170 500 -170 c 0
 259 -170 50 34 50 300 c 0
95 299 m 0
 95 67 276 -125 499 -125 c 0
 721 -125 905 62 905 300 c 0
 905 533 725 725 501 725 c 0
 282 725 95 542 95 299 c 0
EndSplineSet
EndChar
StartChar: uF2828
Encoding: 993320 993320 78
Width: 1000
Flags: MW
LayerCount: 2
Fore
SplineSet
531 181 m 0
 531 251 586 292 633 316 c 1
 615 328 591 344 583 354 c 0
 554 387 552 420 552 436 c 0
 552 506 609 563 688 563 c 0
 758 563 822 523 822 452 c 0
 822 404 790 366 738 338 c 1
 778 313 792 305 807 288 c 0
 833 258 843 226 843 195 c 0
 843 115 777 51 687 51 c 0
 607 51 531 98 531 181 c 0
574 181 m 0
 574 120 624 75 688 75 c 0
 744 75 800 107 800 165 c 0
 800 209 769 229 746 244 c 1
 737 250 660 298 654 302 c 1
 600 272 574 229 574 181 c 0
589 469 m 0
 589 453 596 430 624 412 c 2
 718 352 l 1
 759 377 785 409 785 451 c 0
 785 504 742 541 687 541 c 0
 641 541 589 517 589 469 c 0
156 303 m 0
 156 475 260 563 354 563 c 0
 418 563 449 524 449 479 c 0
 449 450 428 440 412 440 c 0
 394 440 377 454 377 478 c 0
 377 509 402 513 416 514 c 1
 400 538 371 541 355 541 c 0
 329 541 288 527 261 483 c 0
 244 456 229 410 229 331 c 2
 229 314 l 1
 247 355 278 384 320 384 c 0
 402 384 468 317 468 219 c 0
 468 120 399 51 314 51 c 0
 270 51 222 70 190 130 c 1
 168 172 156 230 156 303 c 0
230 232 m 0
 230 218 231 159 244 127 c 0
 248 116 269 75 313 75 c 0
 334 75 365 82 383 122 c 0
 395 148 395 184 395 220 c 0
 395 258 396 294 383 321 c 0
 364 361 333 365 317 365 c 0
 257 365 230 299 230 232 c 0
50 300 m 0
 50 555 246 770 500 770 c 0
 741 770 950 566 950 300 c 0
 950 46 754 -170 500 -170 c 0
 259 -170 50 34 50 300 c 0
95 299 m 0
 95 67 276 -125 499 -125 c 0
 721 -125 905 62 905 300 c 0
 905 533 725 725 501 725 c 0
 282 725 95 542 95 299 c 0
EndSplineSet
EndChar
StartChar: uF2836
Encoding: 993334 993334 92
Width: 1000
Flags: MW
LayerCount: 2
Fore
SplineSet
536 65 m 1
 536 69 536 76 536 78 c 2
 536 88 539 89 545 96 c 2
 686 255 l 2
 728 303 762 360 762 418 c 0
 762 478 730 537 665 537 c 0
 626 537 591 513 573 472 c 1
 575 472 577 472 582 472 c 0
 605 470 619 453 619 430 c 0
 619 397 593 387 578 387 c 0
 572 387 536 390 536 432 c 0
 536 499 593 563 677 563 c 0
 769 563 836 504 836 418 c 0
 836 344 792 306 686 212 c 1
 679 206 610 139 602 132 c 1
 727 132 l 2
 741 132 791 132 797 138 c 1
 805 148 810 185 814 205 c 1
 836 205 l 1
 815 65 l 1
 536 65 l 1
155 181 m 0
 155 251 210 292 257 316 c 1
 239 328 215 344 207 354 c 0
 178 387 176 420 176 436 c 0
 176 506 233 563 312 563 c 0
 382 563 446 523 446 452 c 0
 446 404 414 366 362 338 c 1
 402 313 416 305 431 288 c 0
 457 258 467 226 467 195 c 0
 467 115 401 51 311 51 c 0
 231 51 155 98 155 181 c 0
198 181 m 0
 198 120 248 75 312 75 c 0
 368 75 424 107 424 165 c 0
 424 209 393 229 370 244 c 1
 361 250 284 298 278 302 c 1
 224 272 198 229 198 181 c 0
213 469 m 0
 213 453 220 430 248 412 c 2
 342 352 l 1
 383 377 409 409 409 451 c 0
 409 504 366 541 311 541 c 0
 265 541 213 517 213 469 c 0
50 300 m 0
 50 555 246 770 500 770 c 0
 741 770 950 566 950 300 c 0
 950 46 754 -170 500 -170 c 0
 259 -170 50 34 50 300 c 0
95 299 m 0
 95 67 276 -125 499 -125 c 0
 721 -125 905 62 905 300 c 0
 905 533 725 725 501 725 c 0
 282 725 95 542 95 299 c 0
EndSplineSet
EndChar
StartChar: uF283F
Encoding: 993343 993343 101
Width: 1000
Flags: MW
LayerCount: 2
Fore
SplineSet
560 489 m 1
 560 515 l 1
 563 515 l 1
 587 515 649 517 694 558 c 0
 697 561 697 561 701 563 c 1
 718 563 719 560 719 542 c 2
 719 119 l 1
 719 98 743 92 794 92 c 1
 812 92 l 1
 812 65 l 1
 786 67 718 68 688 68 c 0
 658 68 590 67 564 65 c 1
 564 92 l 1
 582 92 l 1
 633 92 658 99 658 119 c 1
 658 507 l 1
 622 491 579 489 563 489 c 1
 560 489 l 1
152 396 m 0
 152 451 169 486 200 518 c 1
 231 550 268 563 310 563 c 0
 399 563 464 476 464 312 c 0
 464 143 370 51 276 51 c 0
 210 51 170 85 170 135 c 0
 170 164 191 174 207 174 c 0
 225 174 243 160 243 136 c 0
 243 118 232 99 205 99 c 1
 225 76 261 75 274 75 c 0
 305 75 340 92 363 134 c 0
 380 164 390 211 390 279 c 2
 390 301 l 1
 371 255 341 231 301 231 c 0
 218 231 152 300 152 396 c 0
225 395 m 0
 225 357 225 321 238 294 c 0
 257 254 286 250 302 250 c 0
 365 250 390 324 390 382 c 0
 390 414 387 461 378 485 c 0
 368 513 345 541 310 541 c 0
 282 541 258 532 240 498 c 0
 225 471 225 435 225 395 c 0
50 300 m 0
 50 555 246 770 500 770 c 0
 741 770 950 566 950 300 c 0
 950 46 754 -170 500 -170 c 0
 259 -170 50 34 50 300 c 0
95 299 m 0
 95 67 276 -125 499 -125 c 0
 721 -125 905 62 905 300 c 0
 905 533 725 725 501 725 c 0
 282 725 95 542 95 299 c 0
EndSplineSet
EndChar
StartChar: uF284E
Encoding: 993358 993358 116
Width: 1000
Flags: MW
LayerCount: 2
Fore
SplineSet
392 337 m 1
 392 363 l 1
 450 363 l 1
 450 448 l 2
 450 529 518 566 576 566 c 0
 620 566 648 539 648 510 c 0
 648 489 634 474 612 474 c 0
 592 474 576 489 576 510 c 0
 576 528 588 538 598 542 c 1
 588 546 578 546 576 546 c 0
 546 546 505 518 505 448 c 2
 505 363 l 1
 594 363 l 1
 594 337 l 1
 508 337 l 1
 508 91 l 1
 508 81 508 73 514 69 c 1
 520 66 546 64 566 64 c 1
 578 64 l 1
 578 38 l 1
 549 40 511 40 481 40 c 0
 457 40 421 39 393 38 c 1
 393 64 l 1
 413 64 438 64 444 68 c 1
 450 71 450 78 450 90 c 1
 450 337 l 1
 392 337 l 1
50 300 m 0
 50 555 246 770 500 770 c 0
 741 770 950 566 950 300 c 0
 950 46 754 -170 500 -170 c 0
 259 -170 50 34 50 300 c 0
95 299 m 0
 95 67 276 -125 499 -125 c 0
 721 -125 905 62 905 300 c 0
 905 533 725 725 501 725 c 0
 282 725 95 542 95 299 c 0
EndSplineSet
EndChar
StartChar: uF284F
Encoding: 993359 993359 117
Width: 1000
Flags: MW
LayerCount: 2
Fore
SplineSet
322 123 m 0
 322 157 354 186 390 196 c 1
 365 213 357 243 357 263 c 0
 357 287 368 312 381 327 c 1
 361 343 345 372 345 404 c 0
 345 460 393 514 473 514 c 0
 499 514 530 508 558 487 c 1
 590 517 624 522 638 522 c 0
 668 522 678 497 678 483 c 0
 678 466 665 458 654 458 c 0
 640 458 629 468 629 482 c 0
 629 490 633 498 639 501 c 1
 637 502 634 502 632 502 c 0
 619 502 595 498 570 476 c 1
 587 460 602 434 602 404 c 0
 602 348 553 294 473 294 c 0
 458 294 424 296 394 316 c 1
 383 303 384 288 384 284 c 0
 384 262 396 238 422 234 c 0
 427 233 461 234 480 234 c 0
 532 234 576 233 616 212 c 0
 657 190 666 149 666 124 c 0
 666 68 593 27 494 27 c 0
 388 27 322 73 322 123 c 0
368 123 m 0
 368 85 416 48 496 48 c 0
 576 48 622 86 622 123 c 0
 622 183 537 182 483 182 c 2
 429 182 l 1
 402 180 368 160 368 123 c 0
407 404 m 0
 407 383 408 314 473 314 c 0
 503 314 520 332 527 342 c 0
 538 360 538 384 538 404 c 0
 538 425 538 494 473 494 c 0
 444 494 427 477 420 467 c 0
 408 449 407 424 407 404 c 0
50 300 m 0
 50 555 246 770 500 770 c 0
 741 770 950 566 950 300 c 0
 950 46 754 -170 500 -170 c 0
 259 -170 50 34 50 300 c 0
95 299 m 0
 95 67 276 -125 499 -125 c 0
 721 -125 905 62 905 300 c 0
 905 533 725 725 501 725 c 0
 282 725 95 542 95 299 c 0
EndSplineSet
EndChar
StartChar: uF285D
Encoding: 993373 993373 131
Width: 1000
Flags: MW
LayerCount: 2
Fore
SplineSet
305 404 m 1
 305 430 l 1
 422 437 l 1
 422 186 l 2
 422 162 423 143 437 130 c 0
 447 121 462 116 487 116 c 0
 542 116 578 164 578 228 c 2
 578 364 l 2
 578 399 571 404 521 404 c 1
 521 430 l 1
 638 437 l 1
 638 169 l 2
 638 134 645 130 695 130 c 1
 695 104 l 1
 581 97 l 1
 581 162 l 1
 556 113 517 97 481 97 c 0
 449 97 425 102 407 111 c 0
 368 131 362 173 362 216 c 2
 362 344 l 2
 362 402 360 404 305 404 c 1
50 300 m 0
 50 555 246 770 500 770 c 0
 741 770 950 566 950 300 c 0
 950 46 754 -170 500 -170 c 0
 259 -170 50 34 50 300 c 0
95 299 m 0
 95 67 276 -125 499 -125 c 0
 721 -125 905 62 905 300 c 0
 905 533 725 725 501 725 c 0
 282 725 95 542 95 299 c 0
EndSplineSet
EndChar
StartChar: uF285F
Encoding: 993375 993375 133
Width: 1000
Flags: MW
LayerCount: 2
Fore
SplineSet
235 402 m 1
 235 429 l 1
 262 427 298 427 306 427 c 0
 326 427 368 428 392 429 c 1
 392 402 l 1
 381 402 348 402 348 387 c 1
 348 385 347 385 350 378 c 1
 423 178 l 1
 487 351 l 1
 487 351 488 352 488 353 c 1
 484 364 478 382 471 394 c 1
 465 402 445 402 424 402 c 1
 424 429 l 1
 444 427 469 427 493 427 c 0
 512 427 551 428 573 429 c 1
 573 402 l 1
 562 402 529 402 529 387 c 1
 529 384 530 384 532 377 c 1
 609 168 l 1
 680 360 l 2
 683 368 684 369 684 373 c 0
 684 391 662 401 640 402 c 1
 640 429 l 1
 654 428 688 427 710 427 c 0
 726 427 749 427 765 429 c 1
 765 402 l 1
 735 401 718 393 706 362 c 2
 613 112 l 2
 609 103 608 96 596 96 c 0
 584 96 581 103 577 112 c 2
 500 320 l 1
 423 112 l 2
 419 101 416 96 404 96 c 0
 392 96 391 103 387 114 c 2
 287 383 l 1
 280 401 263 402 235 402 c 1
50 300 m 0
 50 555 246 770 500 770 c 0
 741 770 950 566 950 300 c 0
 950 46 754 -170 500 -170 c 0
 259 -170 50 34 50 300 c 0
95 299 m 0
 95 67 276 -125 499 -125 c 0
 721 -125 905 62 905 300 c 0
 905 533 725 725 501 725 c 0
 282 725 95 542 95 299 c 0
EndSplineSet
EndChar
StartChar: uF2865
Encoding: 993381 993381 139
Width: 1000
Flags: MW
LayerCount: 2
Fore
SplineSet
263 292 m 0
 263 445 382 562 534 562 c 0
 601 562 643 532 675 502 c 1
 716 554 l 2
 722 562 724 562 728 562 c 0
 738 562 737 557 737 544 c 2
 737 370 l 2
 737 353 737 351 723 351 c 0
 711 351 711 354 709 365 c 0
 694 471 626 536 544 536 c 0
 512 536 445 527 398 467 c 1
 365 426 350 365 350 292 c 0
 350 216 365 161 393 123 c 1
 438 59 509 47 546 47 c 0
 626 47 708 105 714 210 c 0
 715 219 718 223 726 223 c 0
 737 223 737 219 737 209 c 0
 737 122 660 21 534 21 c 0
 382 21 263 137 263 292 c 0
50 300 m 0
 50 555 246 770 500 770 c 0
 741 770 950 566 950 300 c 0
 950 46 754 -170 500 -170 c 0
 259 -170 50 34 50 300 c 0
95 299 m 0
 95 67 276 -125 499 -125 c 0
 721 -125 905 62 905 300 c 0
 905 533 725 725 501 725 c 0
 282 725 95 542 95 299 c 0
EndSplineSet
EndChar
StartChar: uF2866
Encoding: 993382 993382 140
Width: 1000
Flags: MW
LayerCount: 2
Fore
SplineSet
238 35 m 1
 238 62 l 1
 252 62 l 1
 273 62 303 62 309 66 c 1
 315 70 316 78 316 88 c 1
 316 496 l 1
 316 506 315 513 309 517 c 1
 303 521 273 522 252 522 c 1
 238 522 l 1
 238 548 l 1
 524 548 l 2
 657 548 762 435 762 287 c 0
 762 141 656 35 524 35 c 2
 238 35 l 1
390 84 m 1
 390 65 391 62 417 62 c 1
 502 62 l 2
 570 62 619 97 639 125 c 0
 665 161 678 205 678 288 c 0
 678 349 671 411 641 453 c 0
 603 506 549 522 502 522 c 2
 417 522 l 1
 391 522 390 518 390 499 c 1
 390 84 l 1
50 300 m 0
 50 555 246 770 500 770 c 0
 741 770 950 566 950 300 c 0
 950 46 754 -170 500 -170 c 0
 259 -170 50 34 50 300 c 0
95 299 m 0
 95 67 276 -125 499 -125 c 0
 721 -125 905 62 905 300 c 0
 905 533 725 725 501 725 c 0
 282 725 95 542 95 299 c 0
EndSplineSet
EndChar
StartChar: uF2871
Encoding: 993393 993393 151
Width: 1000
Flags: MW
LayerCount: 2
Fore
SplineSet
244 290 m 0
 244 445 356 562 500 562 c 0
 644 562 756 445 756 290 c 0
 756 138 645 21 500 21 c 0
 357 21 244 136 244 290 c 0
331 300 m 0
 331 227 343 171 367 129 c 0
 402 67 456 43 500 43 c 0
 540 43 592 65 628 122 c 0
 656 166 669 226 669 300 c 0
 669 372 654 429 628 469 c 0
 593 522 540 541 500 541 c 0
 460 541 406 522 370 466 c 1
 344 425 331 368 331 300 c 0
50 300 m 0
 50 555 246 770 500 770 c 0
 741 770 950 566 950 300 c 0
 950 46 754 -170 500 -170 c 0
 259 -170 50 34 50 300 c 0
95 299 m 0
 95 67 276 -125 499 -125 c 0
 721 -125 905 62 905 300 c 0
 905 533 725 725 501 725 c 0
 282 725 95 542 95 299 c 0
EndSplineSet
EndChar
StartChar: uF2872
Encoding: 993394 993394 152
Width: 1000
Flags: MW
LayerCount: 2
Fore
SplineSet
271 35 m 1
 271 62 l 1
 284 62 l 1
 306 62 336 63 342 67 c 1
 348 71 348 78 348 88 c 1
 348 496 l 1
 348 506 348 513 342 517 c 1
 336 521 305 522 284 522 c 1
 271 522 l 1
 271 548 l 1
 547 548 l 2
 655 548 729 483 729 407 c 0
 729 329 648 270 554 270 c 2
 426 270 l 1
 426 88 l 1
 426 79 425 73 429 69 c 1
 434 63 465 62 490 62 c 1
 503 62 l 1
 503 35 l 1
 477 37 415 38 386 38 c 0
 357 38 297 37 271 35 c 1
422 292 m 1
 525 292 l 2
 643 292 643 367 643 407 c 0
 643 448 642 522 525 522 c 2
 450 522 l 1
 424 522 422 518 422 499 c 1
 422 292 l 1
50 300 m 0
 50 555 246 770 500 770 c 0
 741 770 950 566 950 300 c 0
 950 46 754 -170 500 -170 c 0
 259 -170 50 34 50 300 c 0
95 299 m 0
 95 67 276 -125 499 -125 c 0
 721 -125 905 62 905 300 c 0
 905 533 725 725 501 725 c 0
 282 725 95 542 95 299 c 0
EndSplineSet
EndChar
StartChar: uF2873
Encoding: 993395 993395 153
Width: 1000
Flags: MW
LayerCount: 2
Fore
SplineSet
242 318 m 0
 242 473 353 591 497 591 c 0
 641 591 754 473 754 318 c 0
 754 213 697 113 600 71 c 1
 621 24 642 5 672 5 c 0
 699 5 736 23 740 60 c 0
 741 67 740 73 748 73 c 0
 758 73 758 64 758 56 c 0
 758 15 740 -82 664 -82 c 0
 594 -82 583 -14 569 60 c 1
 545 53 519 49 498 49 c 0
 352 49 242 166 242 318 c 0
325 318 m 0
 325 174 389 104 442 82 c 1
 441 84 434 98 434 114 c 0
 434 146 460 176 498 176 c 0
 522 176 542 165 556 150 c 0
 569 136 578 118 586 100 c 1
 664 156 670 264 670 318 c 0
 670 380 660 434 638 476 c 0
 602 544 541 570 497 570 c 0
 454 570 392 546 355 472 c 1
 335 430 325 374 325 318 c 0
454 114 m 0
 454 104 459 71 498 71 c 0
 515 71 539 74 563 86 c 1
 559 108 552 126 542 138 c 0
 531 151 516 156 498 156 c 0
 470 156 454 136 454 114 c 0
50 300 m 0
 50 555 246 770 500 770 c 0
 741 770 950 566 950 300 c 0
 950 46 754 -170 500 -170 c 0
 259 -170 50 34 50 300 c 0
95 299 m 0
 95 67 276 -125 499 -125 c 0
 721 -125 905 62 905 300 c 0
 905 533 725 725 501 725 c 0
 282 725 95 542 95 299 c 0
EndSplineSet
EndChar
StartChar: uF2907
Encoding: 993543 993543 174
Width: 1000
Flags: MW
LayerCount: 2
Fore
SplineSet
50 300 m 0
 50 555 246 770 500 770 c 0
 741 770 950 566 950 300 c 0
 950 46 754 -170 500 -170 c 0
 259 -170 50 34 50 300 c 0
305 305 m 0
 305 251 307 177 344 120 c 0
 375 67 438 51 499 51 c 0
 563 51 628 68 660 128 c 0
 692 181 695 248 695 305 c 0
 695 363 692 433 658 489 c 0
 626 549 554 563 501 563 c 0
 430 563 368 542 338 482 c 1
 308 428 305 362 305 305 c 0
376 315 m 0
 376 365 376 414 382 454 c 0
 395 538 473 544 499 544 c 0
 536 544 599 530 614 466 c 0
 624 428 624 366 624 315 c 0
 624 263 624 206 616 160 c 0
 604 89 544 70 499 70 c 0
 457 70 398 88 384 156 c 0
 376 200 376 272 376 315 c 0
EndSplineSet
EndChar
StartChar: uF290D
Encoding: 993549 993549 180
Width: 1000
Flags: MW
LayerCount: 2
Fore
SplineSet
50 300 m 0
 50 555 246 770 500 770 c 0
 741 770 950 566 950 300 c 0
 950 46 754 -170 500 -170 c 0
 259 -170 50 34 50 300 c 0
153 305 m 0
 153 251 155 177 190 120 c 0
 220 67 269 51 310 51 c 0
 353 51 406 68 436 128 c 0
 466 181 468 248 468 305 c 0
 468 363 465 433 433 489 c 0
 402 549 347 563 311 563 c 0
 263 563 213 542 184 482 c 1
 155 428 153 362 153 305 c 0
220 315 m 0
 220 365 220 414 226 454 c 0
 238 538 292 544 310 544 c 0
 335 544 379 530 393 466 c 0
 402 428 401 366 401 315 c 0
 401 263 401 206 394 160 c 0
 384 89 340 70 310 70 c 0
 282 70 240 88 228 156 c 0
 220 200 220 272 220 315 c 0
536 186 m 0
 536 122 588 51 671 51 c 0
 762 51 835 122 835 216 c 0
 835 304 777 379 692 379 c 0
 660 379 628 369 600 343 c 1
 600 478 l 1
 616 474 635 469 659 469 c 0
 752 469 806 542 806 554 c 0
 806 558 804 563 798 563 c 0
 797 563 796 563 791 561 c 0
 770 552 734 539 690 539 c 0
 655 539 620 546 590 560 c 0
 584 562 583 562 581 562 c 0
 573 562 573 556 573 544 c 2
 573 322 l 2
 573 308 573 302 584 302 c 0
 590 302 592 305 595 309 c 0
 607 327 638 359 690 359 c 0
 725 359 743 331 749 317 c 0
 761 290 762 258 762 220 c 0
 762 192 762 149 743 118 c 1
 727 92 701 75 669 75 c 0
 624 75 582 106 565 150 c 1
 567 149 571 149 577 149 c 0
 601 150 613 168 613 188 c 0
 613 212 598 229 575 229 c 0
 565 229 536 223 536 186 c 0
EndSplineSet
EndChar
StartChar: uF292A
Encoding: 993578 993578 209
Width: 1000
Flags: MW
LayerCount: 2
Fore
SplineSet
50 300 m 0
 50 555 246 770 500 770 c 0
 741 770 950 566 950 300 c 0
 950 46 754 -170 500 -170 c 0
 259 -170 50 34 50 300 c 0
158 168 m 0
 158 100 227 52 309 52 c 0
 407 52 469 122 469 196 c 0
 469 253 429 313 347 331 c 1
 405 350 449 400 449 460 c 0
 449 521 387 564 310 564 c 0
 234 564 178 518 178 460 c 0
 178 433 196 418 219 418 c 0
 243 418 259 436 259 460 c 0
 259 500 223 501 214 501 c 1
 237 534 282 543 307 543 c 0
 344 543 375 519 375 462 c 0
 375 454 375 410 355 378 c 1
 336 346 312 341 292 340 c 0
 281 339 266 338 262 338 c 0
 256 337 252 335 252 328 c 0
 252 318 257 318 270 318 c 2
 302 318 l 2
 366 318 386 261 386 196 c 0
 386 111 348 76 306 76 c 0
 278 76 228 87 200 125 c 1
 225 124 246 141 246 170 c 0
 246 199 226 216 202 216 c 0
 182 216 158 202 158 168 c 0
523 189 m 1
 719 189 l 1
 719 119 l 1
 719 99 700 93 658 93 c 1
 646 93 l 1
 646 67 l 1
 676 69 720 69 751 69 c 0
 781 69 825 69 854 67 c 1
 854 93 l 1
 842 93 l 1
 800 93 783 99 783 119 c 1
 783 189 l 1
 855 189 l 1
 855 215 l 1
 783 215 l 1
 783 550 l 2
 783 566 783 571 769 571 c 0
 760 571 758 571 752 561 c 2
 523 215 l 1
 523 189 l 1
547 215 m 1
 725 483 l 1
 725 215 l 1
 547 215 l 1
EndSplineSet
EndChar
StartChar: uF292F
Encoding: 993583 993583 214
Width: 1000
Flags: MW
LayerCount: 2
Fore
SplineSet
50 300 m 0
 50 555 246 770 500 770 c 0
 741 770 950 566 950 300 c 0
 950 46 754 -170 500 -170 c 0
 259 -170 50 34 50 300 c 0
156 168 m 0
 156 100 225 51 307 51 c 0
 405 51 468 122 468 196 c 0
 468 253 427 311 345 329 c 1
 403 348 447 399 447 459 c 0
 447 520 385 563 308 563 c 0
 232 563 177 518 177 460 c 0
 177 433 194 417 217 417 c 0
 241 417 257 434 257 458 c 0
 257 498 222 500 213 500 c 1
 236 533 280 541 305 541 c 0
 342 541 373 517 373 460 c 0
 373 452 373 409 353 377 c 1
 334 345 311 340 291 339 c 0
 280 338 264 336 260 336 c 0
 254 335 250 334 250 327 c 0
 250 317 255 317 268 317 c 2
 300 317 l 2
 364 317 385 261 385 196 c 0
 385 111 346 75 304 75 c 0
 276 75 226 86 198 124 c 1
 223 123 244 140 244 169 c 0
 244 198 224 214 200 214 c 0
 180 214 156 202 156 168 c 0
531 396 m 0
 531 300 597 231 680 231 c 0
 720 231 751 255 770 301 c 1
 770 279 l 2
 770 211 760 164 743 134 c 0
 720 92 685 75 654 75 c 0
 641 75 605 76 585 99 c 1
 612 99 622 118 622 136 c 0
 622 160 605 174 587 174 c 0
 571 174 550 164 550 135 c 0
 550 85 588 51 654 51 c 0
 748 51 843 143 843 312 c 0
 843 476 779 563 690 563 c 0
 648 563 610 550 579 518 c 1
 548 486 531 451 531 396 c 0
604 395 m 0
 604 435 604 471 619 498 c 0
 637 532 662 541 690 541 c 0
 725 541 748 513 758 485 c 0
 767 461 769 414 769 382 c 0
 769 324 745 250 682 250 c 0
 666 250 635 254 616 294 c 0
 603 321 604 357 604 395 c 0
EndSplineSet
EndChar
StartChar: uF2930
Encoding: 993584 993584 215
Width: 1000
Flags: MW
LayerCount: 2
Fore
SplineSet
50 300 m 0
 50 555 246 770 500 770 c 0
 741 770 950 566 950 300 c 0
 950 46 754 -170 500 -170 c 0
 259 -170 50 34 50 300 c 0
144 189 m 1
 341 189 l 1
 341 119 l 1
 341 99 322 93 280 93 c 1
 268 93 l 1
 268 67 l 1
 298 69 341 69 372 69 c 0
 402 69 446 69 475 67 c 1
 475 93 l 1
 464 93 l 1
 422 93 405 99 405 119 c 1
 405 189 l 1
 477 189 l 1
 477 215 l 1
 405 215 l 1
 405 550 l 2
 405 566 405 571 391 571 c 0
 382 571 380 571 374 561 c 2
 144 215 l 1
 144 189 l 1
169 215 m 1
 346 483 l 1
 346 215 l 1
 169 215 l 1
528 306 m 0
 528 252 531 178 566 121 c 0
 596 68 644 52 685 52 c 0
 728 52 781 69 811 129 c 0
 841 182 844 249 844 306 c 0
 844 364 841 434 809 490 c 0
 778 550 722 564 686 564 c 0
 638 564 589 543 560 483 c 1
 531 429 528 363 528 306 c 0
596 316 m 0
 596 366 595 414 601 454 c 0
 613 538 667 545 685 545 c 0
 710 545 754 531 768 467 c 0
 777 429 776 367 776 316 c 0
 776 264 776 208 769 162 c 0
 759 91 715 71 685 71 c 0
 657 71 615 90 603 158 c 0
 595 202 596 273 596 316 c 0
EndSplineSet
EndChar
StartChar: uF2937
Encoding: 993591 993591 222
Width: 1000
Flags: MW
LayerCount: 2
Fore
SplineSet
50 300 m 0
 50 555 246 770 500 770 c 0
 741 770 950 566 950 300 c 0
 950 46 754 -170 500 -170 c 0
 259 -170 50 34 50 300 c 0
148 190 m 1
 344 190 l 1
 344 120 l 1
 344 100 325 93 283 93 c 1
 271 93 l 1
 271 67 l 1
 301 69 345 69 376 69 c 0
 406 69 450 69 479 67 c 1
 479 93 l 1
 467 93 l 1
 425 93 408 100 408 120 c 1
 408 190 l 1
 480 190 l 1
 480 216 l 1
 408 216 l 1
 408 550 l 2
 408 566 408 571 394 571 c 0
 385 571 384 572 378 562 c 2
 148 216 l 1
 148 190 l 1
172 216 m 1
 350 484 l 1
 350 216 l 1
 172 216 l 1
544 410 m 1
 565 410 l 1
 568 433 576 472 584 479 c 0
 590 483 647 483 657 483 c 2
 801 483 l 1
 795 474 741 402 729 383 c 1
 662 286 632 182 632 97 c 0
 632 78 642 52 668 52 c 0
 696 52 705 79 705 97 c 2
 705 134 l 2
 705 174 706 215 712 254 c 0
 716 279 727 339 757 381 c 2
 859 522 l 2
 866 531 865 532 865 550 c 1
 696 550 l 2
 667 550 626 553 613 555 c 1
 593 559 592 565 590 574 c 1
 568 574 l 1
 544 410 l 1
EndSplineSet
EndChar
StartChar: uF2940
Encoding: 993600 993600 231
Width: 1000
Flags: MW
LayerCount: 2
Fore
SplineSet
50 300 m 0
 50 555 246 770 500 770 c 0
 741 770 950 566 950 300 c 0
 950 46 754 -170 500 -170 c 0
 259 -170 50 34 50 300 c 0
163 186 m 0
 163 122 215 51 298 51 c 0
 389 51 463 122 463 216 c 0
 463 304 404 379 319 379 c 0
 287 379 254 369 226 343 c 1
 226 478 l 1
 242 474 262 469 286 469 c 0
 379 469 433 542 433 554 c 0
 433 558 432 563 426 563 c 0
 425 563 424 563 419 561 c 0
 398 552 362 539 318 539 c 0
 283 539 247 546 217 560 c 0
 211 562 210 562 208 562 c 0
 200 562 200 556 200 544 c 2
 200 322 l 2
 200 308 201 302 212 302 c 0
 218 302 220 305 223 309 c 0
 235 327 266 359 318 359 c 0
 353 359 370 331 376 317 c 0
 388 290 390 258 390 220 c 0
 390 192 390 149 371 118 c 1
 355 92 328 75 296 75 c 0
 251 75 209 106 192 150 c 1
 194 149 198 149 204 149 c 0
 228 150 241 168 241 188 c 0
 241 212 225 229 202 229 c 0
 192 229 163 223 163 186 c 0
532 303 m 0
 532 230 544 172 566 130 c 1
 598 70 646 51 690 51 c 0
 775 51 844 120 844 219 c 0
 844 317 778 384 696 384 c 0
 654 384 623 355 605 314 c 1
 605 331 l 2
 605 410 620 456 637 483 c 0
 664 527 705 541 731 541 c 0
 747 541 776 538 792 514 c 1
 778 513 753 509 753 478 c 0
 753 454 770 440 788 440 c 0
 804 440 825 450 825 479 c 0
 825 524 794 563 730 563 c 0
 636 563 532 475 532 303 c 0
606 232 m 0
 606 299 633 365 693 365 c 0
 709 365 740 361 759 321 c 0
 772 294 771 258 771 220 c 0
 771 184 771 148 759 122 c 0
 741 82 710 75 689 75 c 0
 645 75 624 116 620 127 c 0
 607 159 606 218 606 232 c 0
EndSplineSet
EndChar
StartChar: uF294F
Encoding: 993615 993615 246
Width: 1000
Flags: MW
LayerCount: 2
Fore
SplineSet
50 300 m 0
 50 555 246 770 500 770 c 0
 741 770 950 566 950 300 c 0
 950 46 754 -170 500 -170 c 0
 259 -170 50 34 50 300 c 0
164 410 m 1
 186 410 l 1
 189 433 196 471 204 478 c 0
 210 482 267 483 277 483 c 2
 421 483 l 1
 415 474 361 401 349 382 c 1
 282 285 253 181 253 96 c 0
 253 77 262 52 288 52 c 0
 316 52 325 78 325 96 c 2
 325 134 l 2
 325 174 327 215 333 254 c 0
 337 279 348 339 378 381 c 2
 480 521 l 2
 487 530 486 532 486 550 c 1
 316 550 l 2
 287 550 246 552 233 554 c 1
 213 558 212 565 210 574 c 1
 189 574 l 1
 164 410 l 1
562 490 m 1
 564 490 l 1
 580 490 624 493 660 509 c 1
 660 120 l 1
 660 100 635 93 584 93 c 1
 566 93 l 1
 566 67 l 1
 592 69 660 69 690 69 c 0
 720 69 788 69 814 67 c 1
 814 93 l 1
 796 93 l 1
 745 93 720 99 720 120 c 1
 720 544 l 2
 720 562 720 564 703 564 c 1
 699 562 699 562 696 559 c 0
 651 518 588 516 564 516 c 1
 562 516 l 1
 562 490 l 1
EndSplineSet
EndChar
StartChar: uF2959
Encoding: 993625 993625 256
Width: 1000
Flags: MW
LayerCount: 2
Fore
SplineSet
50 300 m 0
 50 555 246 770 500 770 c 0
 741 770 950 566 950 300 c 0
 950 46 754 -170 500 -170 c 0
 259 -170 50 34 50 300 c 0
152 181 m 0
 152 98 227 51 307 51 c 0
 397 51 464 115 464 195 c 0
 464 226 453 258 427 288 c 0
 412 305 398 313 358 338 c 1
 410 366 443 404 443 452 c 0
 443 523 378 563 308 563 c 0
 229 563 172 506 172 436 c 0
 172 420 175 387 204 354 c 0
 212 344 236 328 254 316 c 1
 207 292 152 251 152 181 c 0
194 181 m 0
 194 229 220 272 274 302 c 1
 280 298 357 250 366 244 c 1
 389 229 421 209 421 165 c 0
 421 107 364 75 308 75 c 0
 244 75 194 120 194 181 c 0
210 469 m 0
 210 517 261 541 307 541 c 0
 362 541 406 504 406 451 c 0
 406 409 380 377 339 352 c 1
 244 412 l 2
 216 430 210 453 210 469 c 0
560 489 m 1
 563 489 l 1
 579 489 622 491 658 507 c 1
 658 119 l 1
 658 99 633 92 582 92 c 1
 564 92 l 1
 564 65 l 1
 590 67 658 68 688 68 c 0
 718 68 786 67 812 65 c 1
 812 92 l 1
 794 92 l 1
 743 92 719 98 719 119 c 1
 719 542 l 2
 719 560 718 563 701 563 c 1
 697 561 697 561 694 558 c 0
 649 517 587 515 563 515 c 1
 560 515 l 1
 560 489 l 1
EndSplineSet
EndChar
StartChar: uF295B
Encoding: 993627 993627 258
Width: 1000
Flags: MW
LayerCount: 2
Fore
SplineSet
50 300 m 0
 50 555 246 770 500 770 c 0
 741 770 950 566 950 300 c 0
 950 46 754 -170 500 -170 c 0
 259 -170 50 34 50 300 c 0
156 181 m 0
 156 98 232 51 312 51 c 0
 402 51 468 115 468 195 c 0
 468 226 458 258 432 288 c 0
 417 305 403 313 363 338 c 1
 415 366 447 404 447 452 c 0
 447 523 382 563 312 563 c 0
 233 563 177 506 177 436 c 0
 177 420 179 387 208 354 c 0
 216 344 240 328 258 316 c 1
 211 292 156 251 156 181 c 0
199 181 m 0
 199 229 225 272 279 302 c 1
 285 298 361 250 370 244 c 1
 393 229 426 209 426 165 c 0
 426 107 368 75 312 75 c 0
 248 75 199 120 199 181 c 0
214 469 m 0
 214 517 266 541 312 541 c 0
 367 541 410 504 410 451 c 0
 410 409 384 377 343 352 c 1
 249 412 l 2
 221 430 214 453 214 469 c 0
531 168 m 0
 531 100 600 51 682 51 c 0
 780 51 843 122 843 196 c 0
 843 253 802 311 720 329 c 1
 778 348 822 399 822 459 c 0
 822 520 760 563 683 563 c 0
 607 563 552 518 552 460 c 0
 552 433 569 417 592 417 c 0
 616 417 632 434 632 458 c 0
 632 498 597 500 588 500 c 1
 611 533 655 541 680 541 c 0
 717 541 748 517 748 460 c 0
 748 452 748 409 728 377 c 1
 709 345 686 340 666 339 c 0
 655 338 640 336 636 336 c 0
 630 335 625 334 625 327 c 0
 625 317 630 317 643 317 c 2
 675 317 l 2
 739 317 760 261 760 196 c 0
 760 111 722 75 680 75 c 0
 652 75 601 86 573 124 c 1
 598 123 619 140 619 169 c 0
 619 198 599 214 575 214 c 0
 555 214 531 202 531 168 c 0
EndSplineSet
EndChar
StartChar: uF295E
Encoding: 993630 993630 261
Width: 1000
Flags: MW
LayerCount: 2
Fore
SplineSet
50 300 m 0
 50 555 246 770 500 770 c 0
 741 770 950 566 950 300 c 0
 950 46 754 -170 500 -170 c 0
 259 -170 50 34 50 300 c 0
156 181 m 0
 156 98 232 51 312 51 c 0
 402 51 468 115 468 195 c 0
 468 226 458 258 432 288 c 0
 417 305 403 313 363 338 c 1
 415 366 447 404 447 452 c 0
 447 523 382 563 312 563 c 0
 233 563 177 506 177 436 c 0
 177 420 179 387 208 354 c 0
 216 344 240 328 258 316 c 1
 211 292 156 251 156 181 c 0
199 181 m 0
 199 229 225 272 279 302 c 1
 285 298 361 250 370 244 c 1
 393 229 426 209 426 165 c 0
 426 107 368 75 312 75 c 0
 248 75 199 120 199 181 c 0
214 469 m 0
 214 517 266 541 312 541 c 0
 367 541 410 504 410 451 c 0
 410 409 384 377 343 352 c 1
 249 412 l 2
 221 430 214 453 214 469 c 0
531 303 m 0
 531 230 543 172 565 130 c 1
 597 70 644 51 688 51 c 0
 773 51 843 120 843 219 c 0
 843 317 776 384 694 384 c 0
 652 384 622 355 604 314 c 1
 604 331 l 2
 604 410 619 456 636 483 c 0
 663 527 704 541 730 541 c 0
 746 541 776 538 792 514 c 1
 778 513 752 509 752 478 c 0
 752 454 770 440 788 440 c 0
 804 440 824 450 824 479 c 0
 824 524 793 563 729 563 c 0
 635 563 531 475 531 303 c 0
606 232 m 0
 606 299 632 365 692 365 c 0
 708 365 739 361 758 321 c 0
 771 294 770 258 770 220 c 0
 770 184 770 148 758 122 c 0
 740 82 709 75 688 75 c 0
 644 75 622 116 618 127 c 0
 605 159 606 218 606 232 c 0
EndSplineSet
EndChar
StartChar: uF2961
Encoding: 993633 993633 264
Width: 1000
Flags: MW
LayerCount: 2
Fore
SplineSet
50 300 m 0
 50 555 246 770 500 770 c 0
 741 770 950 566 950 300 c 0
 950 46 754 -170 500 -170 c 0
 259 -170 50 34 50 300 c 0
156 181 m 0
 156 98 232 51 312 51 c 0
 402 51 468 115 468 195 c 0
 468 226 458 258 432 288 c 0
 417 305 403 313 363 338 c 1
 415 366 447 404 447 452 c 0
 447 523 382 563 312 563 c 0
 233 563 177 506 177 436 c 0
 177 420 179 387 208 354 c 0
 216 344 240 328 258 316 c 1
 211 292 156 251 156 181 c 0
199 181 m 0
 199 229 225 272 279 302 c 1
 285 298 361 250 370 244 c 1
 393 229 426 209 426 165 c 0
 426 107 368 75 312 75 c 0
 248 75 199 120 199 181 c 0
214 469 m 0
 214 517 266 541 312 541 c 0
 367 541 410 504 410 451 c 0
 410 409 384 377 343 352 c 1
 249 412 l 2
 221 430 214 453 214 469 c 0
531 396 m 0
 531 300 597 231 680 231 c 0
 720 231 751 255 770 301 c 1
 770 279 l 2
 770 211 760 164 743 134 c 0
 720 92 685 75 654 75 c 0
 641 75 605 76 585 99 c 1
 612 99 622 118 622 136 c 0
 622 160 605 174 587 174 c 0
 571 174 550 164 550 135 c 0
 550 85 588 51 654 51 c 0
 748 51 843 143 843 312 c 0
 843 476 779 563 690 563 c 0
 648 563 610 550 579 518 c 1
 548 486 531 451 531 396 c 0
604 395 m 0
 604 435 604 471 619 498 c 0
 637 532 662 541 690 541 c 0
 725 541 748 513 758 485 c 0
 767 461 769 414 769 382 c 0
 769 324 745 250 682 250 c 0
 666 250 635 254 616 294 c 0
 603 321 604 357 604 395 c 0
EndSplineSet
EndChar
StartChar: uF2964
Encoding: 993636 993636 267
Width: 1000
Flags: MW
LayerCount: 2
Fore
SplineSet
50 300 m 0
 50 555 246 770 500 770 c 0
 741 770 950 566 950 300 c 0
 950 46 754 -170 500 -170 c 0
 259 -170 50 34 50 300 c 0
155 396 m 0
 155 300 221 231 304 231 c 0
 344 231 375 255 394 301 c 1
 394 279 l 2
 394 211 384 164 367 134 c 0
 344 92 309 75 278 75 c 0
 265 75 229 76 209 99 c 1
 236 99 246 118 246 136 c 0
 246 160 229 174 211 174 c 0
 195 174 174 164 174 135 c 0
 174 85 212 51 278 51 c 0
 372 51 467 143 467 312 c 0
 467 476 403 563 314 563 c 0
 272 563 234 550 203 518 c 1
 172 486 155 451 155 396 c 0
228 395 m 0
 228 435 228 471 243 498 c 0
 261 532 286 541 314 541 c 0
 349 541 372 513 382 485 c 0
 391 461 393 414 393 382 c 0
 393 324 369 250 306 250 c 0
 290 250 259 254 240 294 c 0
 227 321 228 357 228 395 c 0
536 65 m 1
 815 65 l 1
 836 205 l 1
 814 205 l 1
 810 185 805 148 797 138 c 1
 791 132 741 132 727 132 c 2
 602 132 l 1
 610 139 679 206 686 212 c 1
 792 306 836 344 836 418 c 0
 836 504 769 563 677 563 c 0
 593 563 536 499 536 432 c 0
 536 390 572 387 578 387 c 0
 593 387 619 397 619 430 c 0
 619 453 605 470 582 472 c 0
 577 472 575 472 573 472 c 1
 591 513 626 537 665 537 c 0
 730 537 762 478 762 418 c 0
 762 360 728 303 686 255 c 2
 545 96 l 2
 539 89 536 88 536 78 c 2
 536 76 536 69 536 65 c 1
EndSplineSet
EndChar
StartChar: uF2965
Encoding: 993637 993637 268
Width: 1000
Flags: MW
LayerCount: 2
Fore
SplineSet
50 300 m 0
 50 555 246 770 500 770 c 0
 741 770 950 566 950 300 c 0
 950 46 754 -170 500 -170 c 0
 259 -170 50 34 50 300 c 0
156 396 m 0
 156 300 222 231 305 231 c 0
 345 231 376 255 395 301 c 1
 395 279 l 2
 395 211 385 164 368 134 c 0
 345 92 310 75 279 75 c 0
 266 75 230 76 210 99 c 1
 237 99 247 118 247 136 c 0
 247 160 230 174 212 174 c 0
 196 174 175 164 175 135 c 0
 175 85 214 51 280 51 c 0
 374 51 468 143 468 312 c 0
 468 476 404 563 315 563 c 0
 273 563 235 550 204 518 c 1
 173 486 156 451 156 396 c 0
229 395 m 0
 229 435 229 471 244 498 c 0
 262 532 287 541 315 541 c 0
 350 541 373 513 383 485 c 0
 392 461 394 414 394 382 c 0
 394 324 370 250 307 250 c 0
 291 250 261 254 242 294 c 0
 229 321 229 357 229 395 c 0
531 168 m 0
 531 100 600 51 682 51 c 0
 780 51 843 122 843 196 c 0
 843 253 802 311 720 329 c 1
 778 348 822 399 822 459 c 0
 822 520 760 563 683 563 c 0
 607 563 552 518 552 460 c 0
 552 433 569 417 592 417 c 0
 616 417 632 434 632 458 c 0
 632 498 597 500 588 500 c 1
 611 533 655 541 680 541 c 0
 717 541 748 517 748 460 c 0
 748 452 748 409 728 377 c 1
 709 345 686 340 666 339 c 0
 655 338 640 336 636 336 c 0
 630 335 625 334 625 327 c 0
 625 317 630 317 643 317 c 2
 675 317 l 2
 739 317 760 261 760 196 c 0
 760 111 722 75 680 75 c 0
 652 75 601 86 573 124 c 1
 598 123 619 140 619 169 c 0
 619 198 599 214 575 214 c 0
 555 214 531 202 531 168 c 0
EndSplineSet
EndChar
StartChar: uF296A
Encoding: 993642 993642 273
Width: 1000
Flags: MW
LayerCount: 2
Fore
SplineSet
50 300 m 0
 50 555 246 770 500 770 c 0
 741 770 950 566 950 300 c 0
 950 46 754 -170 500 -170 c 0
 259 -170 50 34 50 300 c 0
156 396 m 0
 156 300 222 231 305 231 c 0
 345 231 376 255 395 301 c 1
 395 279 l 2
 395 211 385 164 368 134 c 0
 345 92 310 75 279 75 c 0
 266 75 230 76 210 99 c 1
 237 99 247 118 247 136 c 0
 247 160 230 174 212 174 c 0
 196 174 175 164 175 135 c 0
 175 85 214 51 280 51 c 0
 374 51 468 143 468 312 c 0
 468 476 404 563 315 563 c 0
 273 563 235 550 204 518 c 1
 173 486 156 451 156 396 c 0
229 395 m 0
 229 435 229 471 244 498 c 0
 262 532 287 541 315 541 c 0
 350 541 373 513 383 485 c 0
 392 461 394 414 394 382 c 0
 394 324 370 250 307 250 c 0
 291 250 261 254 242 294 c 0
 229 321 229 357 229 395 c 0
531 181 m 0
 531 98 607 51 687 51 c 0
 777 51 843 115 843 195 c 0
 843 226 833 258 807 288 c 0
 792 305 778 313 738 338 c 1
 790 366 822 404 822 452 c 0
 822 523 758 563 688 563 c 0
 609 563 552 506 552 436 c 0
 552 420 554 387 583 354 c 0
 591 344 615 328 633 316 c 1
 586 292 531 251 531 181 c 0
574 181 m 0
 574 229 600 272 654 302 c 1
 660 298 737 250 746 244 c 1
 769 229 800 209 800 165 c 0
 800 107 744 75 688 75 c 0
 624 75 574 120 574 181 c 0
589 469 m 0
 589 517 641 541 687 541 c 0
 742 541 785 504 785 451 c 0
 785 409 759 377 718 352 c 1
 624 412 l 2
 596 430 589 453 589 469 c 0
EndSplineSet
EndChar
StartChar: uF2970
Encoding: 993648 993648 279
Width: 1000
Flags: MW
LayerCount: 2
Fore
SplineSet
50 300 m 0
 50 555 246 770 500 770 c 0
 741 770 950 566 950 300 c 0
 950 46 754 -170 500 -170 c 0
 259 -170 50 34 50 300 c 0
309 198 m 0
 309 102 380 28 472 28 c 0
 520 28 555 52 575 75 c 1
 575 28 l 1
 691 35 l 1
 691 62 l 1
 641 62 634 66 634 101 c 2
 634 556 l 1
 520 548 l 1
 520 522 l 1
 570 522 576 518 576 483 c 2
 576 325 l 1
 550 353 517 369 481 369 c 0
 387 369 309 297 309 198 c 0
379 198 m 0
 379 228 380 271 402 304 c 0
 420 329 449 349 485 349 c 0
 515 349 547 335 568 304 c 1
 574 294 575 294 575 284 c 1
 575 121 l 1
 575 111 574 110 568 100 c 1
 549 70 516 48 478 48 c 0
 443 48 417 67 400 93 c 0
 380 124 379 167 379 198 c 0
EndSplineSet
EndChar
StartChar: uF2979
Encoding: 993657 993657 288
Width: 1000
Flags: MW
LayerCount: 2
Fore
SplineSet
50 300 m 0
 50 555 246 770 500 770 c 0
 741 770 950 566 950 300 c 0
 950 46 754 -170 500 -170 c 0
 259 -170 50 34 50 300 c 0
198 105 m 1
 223 106 262 108 284 108 c 0
 306 108 346 106 371 105 c 1
 371 132 l 1
 353 132 329 131 323 134 c 1
 316 137 314 144 314 157 c 1
 314 300 l 2
 314 379 370 419 418 419 c 0
 460 419 470 386 470 339 c 2
 470 157 l 1
 470 147 468 141 465 138 c 1
 459 132 436 132 414 132 c 1
 414 105 l 1
 439 106 478 108 500 108 c 0
 522 108 561 106 586 105 c 1
 586 132 l 1
 566 132 544 132 538 135 c 1
 532 138 530 145 530 157 c 1
 530 300 l 2
 530 379 586 419 634 419 c 0
 676 419 686 386 686 339 c 2
 686 157 l 1
 686 144 684 138 678 135 c 1
 672 132 648 132 629 132 c 1
 629 105 l 1
 654 106 694 108 716 108 c 0
 738 108 777 106 802 105 c 1
 802 132 l 1
 773 132 747 133 746 149 c 1
 746 304 l 2
 746 362 745 387 723 411 c 0
 711 425 683 439 640 439 c 0
 576 439 543 395 528 365 c 1
 517 431 457 439 425 439 c 0
 367 439 330 405 308 359 c 1
 308 439 l 1
 198 430 l 1
 198 404 l 1
 248 404 254 401 254 366 c 2
 254 157 l 1
 254 145 253 139 247 136 c 1
 241 132 218 132 198 132 c 1
 198 105 l 1
EndSplineSet
EndChar
StartChar: uF297C
Encoding: 993660 993660 291
Width: 1000
Flags: MW
LayerCount: 2
Fore
SplineSet
50 300 m 0
 50 555 246 770 500 770 c 0
 741 770 950 566 950 300 c 0
 950 46 754 -170 500 -170 c 0
 259 -170 50 34 50 300 c 0
309 62 m 1
 309 36 l 1
 334 37 374 38 396 38 c 0
 418 38 457 37 482 36 c 1
 482 62 l 1
 461 62 438 62 432 66 c 1
 427 69 425 76 425 87 c 1
 425 216 l 1
 425 222 l 1
 436 206 469 174 519 174 c 0
 614 174 691 245 691 344 c 0
 691 440 620 514 530 514 c 0
 472 514 440 484 424 468 c 1
 424 514 l 1
 309 506 l 1
 309 480 l 1
 360 480 366 478 366 446 c 2
 366 87 l 1
 366 77 364 71 361 68 c 1
 355 62 331 62 309 62 c 1
425 267 m 2
 425 433 l 1
 425 437 426 437 428 439 c 1
 452 475 490 493 522 493 c 0
 576 493 621 431 621 344 c 0
 621 249 569 193 515 193 c 0
 490 193 460 205 436 238 c 0
 426 252 425 252 425 267 c 2
EndSplineSet
EndChar
StartChar: uF297D
Encoding: 993661 993661 292
Width: 1000
Flags: MW
LayerCount: 2
Fore
SplineSet
50 300 m 0
 50 555 246 770 500 770 c 0
 741 770 950 566 950 300 c 0
 950 46 754 -170 500 -170 c 0
 259 -170 50 34 50 300 c 0
309 344 m 0
 309 247 381 174 472 174 c 0
 520 174 555 201 575 225 c 1
 575 87 l 1
 575 75 574 69 568 66 c 1
 562 62 538 62 518 62 c 1
 518 36 l 1
 543 37 582 38 604 38 c 0
 626 38 666 37 691 36 c 1
 691 62 l 1
 673 62 649 61 643 64 c 1
 636 67 634 74 634 87 c 1
 634 514 l 1
 615 514 l 1
 583 448 l 1
 569 473 535 514 479 514 c 0
 386 514 309 444 309 344 c 0
379 344 m 0
 379 437 432 493 485 493 c 0
 544 493 576 430 576 390 c 2
 576 284 l 2
 576 262 567 247 552 229 c 0
 537 211 510 193 478 193 c 0
 425 193 379 254 379 344 c 0
EndSplineSet
EndChar
StartChar: uF2982
Encoding: 993666 993666 297
Width: 1000
Flags: MW
LayerCount: 2
Fore
SplineSet
50 300 m 0
 50 555 246 770 500 770 c 0
 741 770 950 566 950 300 c 0
 950 46 754 -170 500 -170 c 0
 259 -170 50 34 50 300 c 0
311 402 m 1
 329 402 349 401 355 398 c 1
 361 395 365 390 368 382 c 1
 482 111 l 2
 487 99 490 96 500 96 c 0
 511 96 515 101 519 111 c 2
 624 361 l 2
 630 376 639 401 689 402 c 1
 689 429 l 1
 671 427 651 427 633 427 c 0
 615 427 580 428 566 429 c 1
 566 402 l 1
 590 401 602 388 602 376 c 0
 602 370 601 368 598 360 c 2
 518 170 l 1
 432 378 l 1
 429 386 428 386 428 388 c 1
 428 403 462 402 472 402 c 1
 472 429 l 1
 449 428 399 427 386 427 c 0
 366 427 335 427 311 429 c 1
 311 402 l 1
EndSplineSet
EndChar
StartChar: uF2989
Encoding: 993673 993673 304
Width: 1000
Flags: MW
LayerCount: 2
Fore
SplineSet
50 300 m 0
 50 555 246 770 500 770 c 0
 741 770 950 566 950 300 c 0
 950 46 754 -170 500 -170 c 0
 259 -170 50 34 50 300 c 0
263 292 m 0
 263 137 382 21 534 21 c 0
 660 21 737 122 737 209 c 0
 737 219 737 223 726 223 c 0
 718 223 715 219 714 210 c 0
 708 105 626 47 546 47 c 0
 509 47 438 59 393 123 c 1
 365 161 350 216 350 292 c 0
 350 365 365 426 398 467 c 1
 445 527 512 536 544 536 c 0
 626 536 694 471 709 365 c 0
 711 354 711 351 723 351 c 0
 737 351 737 353 737 370 c 2
 737 544 l 2
 737 557 738 562 728 562 c 0
 724 562 722 562 716 554 c 2
 675 502 l 1
 643 532 601 562 534 562 c 0
 382 562 263 445 263 292 c 0
EndSplineSet
EndChar
StartChar: uF298D
Encoding: 993677 993677 308
Width: 1000
Flags: MW
LayerCount: 2
Fore
SplineSet
50 300 m 0
 50 555 246 770 500 770 c 0
 741 770 950 566 950 300 c 0
 950 46 754 -170 500 -170 c 0
 259 -170 50 34 50 300 c 0
236 292 m 0
 236 139 353 21 508 21 c 0
 556 21 619 37 648 81 c 1
 661 64 695 36 702 36 c 0
 710 36 710 43 710 54 c 2
 710 190 l 1
 710 200 710 207 714 210 c 1
 718 214 744 215 764 215 c 1
 764 241 l 1
 736 240 690 238 666 238 c 0
 632 238 566 239 536 241 c 1
 536 215 l 1
 554 215 l 1
 575 215 615 214 623 211 c 1
 633 207 634 200 634 188 c 1
 634 133 l 2
 634 115 630 95 616 82 c 0
 590 51 540 47 522 47 c 0
 482 47 411 62 366 124 c 0
 338 163 323 216 323 292 c 0
 323 380 344 435 374 472 c 1
 416 524 479 536 517 536 c 0
 597 536 667 471 682 365 c 0
 684 354 684 351 696 351 c 0
 710 351 710 353 710 370 c 2
 710 544 l 2
 710 557 711 562 701 562 c 0
 697 562 695 562 689 554 c 2
 648 502 l 1
 616 531 571 562 506 562 c 0
 355 562 236 446 236 292 c 0
EndSplineSet
EndChar
StartChar: uF2990
Encoding: 993680 993680 311
Width: 1000
Flags: MW
LayerCount: 2
Fore
SplineSet
50 300 m 0
 50 555 246 770 500 770 c 0
 741 770 950 566 950 300 c 0
 950 46 754 -170 500 -170 c 0
 259 -170 50 34 50 300 c 0
334 118 m 0
 334 107 336 97 340 88 c 0
 356 47 402 18 460 18 c 0
 539 18 596 66 606 124 c 0
 607 130 608 133 608 155 c 2
 608 497 l 1
 608 506 609 511 612 514 c 1
 618 520 644 520 666 520 c 1
 666 546 l 1
 635 544 598 544 564 544 c 0
 530 544 462 544 432 546 c 1
 432 520 l 1
 452 520 l 1
 477 520 517 518 525 515 c 1
 534 511 534 503 534 493 c 1
 534 144 l 2
 534 89 506 38 458 38 c 0
 452 38 406 38 380 74 c 1
 409 74 425 93 425 118 c 0
 425 148 402 164 380 164 c 0
 361 164 334 152 334 118 c 0
EndSplineSet
EndChar
StartChar: uF2991
Encoding: 993681 993681 312
Width: 1000
Flags: MW
LayerCount: 2
Fore
SplineSet
50 300 m 0
 50 555 246 770 500 770 c 0
 741 770 950 566 950 300 c 0
 950 46 754 -170 500 -170 c 0
 259 -170 50 34 50 300 c 0
226 35 m 1
 252 37 313 38 342 38 c 0
 371 38 434 37 460 35 c 1
 460 62 l 1
 446 62 l 1
 421 62 390 63 385 69 c 1
 381 73 381 79 381 88 c 1
 381 226 l 1
 465 304 l 1
 606 102 l 2
 610 96 615 88 615 80 c 1
 611 62 586 62 568 62 c 1
 568 35 l 1
 595 37 652 38 682 38 c 0
 709 38 743 37 774 35 c 1
 774 62 l 1
 770 62 761 62 758 62 c 1
 725 63 713 68 696 93 c 2
 516 350 l 1
 663 485 l 2
 671 492 703 515 746 521 c 1
 750 522 759 522 764 522 c 1
 764 548 l 1
 742 546 712 546 696 546 c 0
 669 546 623 546 597 548 c 1
 597 522 l 1
 622 521 629 509 634 503 c 0
 637 493 630 487 627 483 c 1
 381 257 l 1
 381 496 l 1
 381 506 382 512 387 516 c 1
 393 520 423 522 446 522 c 1
 460 522 l 1
 460 548 l 1
 434 546 371 546 342 546 c 0
 313 546 252 546 226 548 c 1
 226 522 l 1
 240 522 l 1
 261 522 292 521 298 517 c 1
 304 513 304 506 304 496 c 1
 304 88 l 1
 304 78 304 70 298 66 c 1
 292 62 261 62 240 62 c 1
 226 62 l 1
 226 35 l 1
EndSplineSet
EndChar
StartChar: uF2995
Encoding: 993685 993685 316
Width: 1000
Flags: MW
LayerCount: 2
Fore
SplineSet
50 300 m 0
 50 555 246 770 500 770 c 0
 741 770 950 566 950 300 c 0
 950 46 754 -170 500 -170 c 0
 259 -170 50 34 50 300 c 0
244 290 m 0
 244 136 357 21 500 21 c 0
 645 21 756 138 756 290 c 0
 756 445 644 562 500 562 c 0
 356 562 244 445 244 290 c 0
331 300 m 0
 331 368 344 425 370 466 c 1
 406 522 460 541 500 541 c 0
 540 541 593 522 628 469 c 0
 654 429 669 372 669 300 c 0
 669 226 656 166 628 122 c 0
 592 65 540 43 500 43 c 0
 456 43 402 67 367 129 c 0
 343 171 331 227 331 300 c 0
EndSplineSet
EndChar
StartChar: uF2996
Encoding: 993686 993686 317
Width: 1000
Flags: MW
LayerCount: 2
Fore
SplineSet
50 300 m 0
 50 555 246 770 500 770 c 0
 741 770 950 566 950 300 c 0
 950 46 754 -170 500 -170 c 0
 259 -170 50 34 50 300 c 0
271 35 m 1
 297 37 357 38 386 38 c 0
 415 38 477 37 503 35 c 1
 503 62 l 1
 490 62 l 1
 465 62 434 63 429 69 c 1
 425 73 426 79 426 88 c 1
 426 270 l 1
 554 270 l 2
 648 270 729 329 729 407 c 0
 729 483 655 548 547 548 c 2
 271 548 l 1
 271 522 l 1
 284 522 l 1
 305 522 336 521 342 517 c 1
 348 513 348 506 348 496 c 1
 348 88 l 1
 348 78 348 71 342 67 c 1
 336 63 306 62 284 62 c 1
 271 62 l 1
 271 35 l 1
422 292 m 1
 422 499 l 1
 422 518 424 522 450 522 c 1
 525 522 l 2
 642 522 643 448 643 407 c 0
 643 367 643 292 525 292 c 2
 422 292 l 1
EndSplineSet
EndChar
StartChar: uF2997
Encoding: 993687 993687 318
Width: 1000
Flags: MW
LayerCount: 2
Fore
SplineSet
50 300 m 0
 50 555 246 770 500 770 c 0
 741 770 950 566 950 300 c 0
 950 46 754 -170 500 -170 c 0
 259 -170 50 34 50 300 c 0
242 318 m 0
 242 166 352 49 498 49 c 0
 519 49 545 53 569 60 c 1
 583 -14 594 -82 664 -82 c 0
 740 -82 758 15 758 56 c 0
 758 64 758 73 748 73 c 0
 740 73 741 67 740 60 c 0
 736 23 699 5 672 5 c 0
 642 5 621 24 600 71 c 1
 697 113 754 213 754 318 c 0
 754 473 641 591 497 591 c 0
 353 591 242 473 242 318 c 0
325 318 m 0
 325 374 335 430 355 472 c 1
 392 546 454 570 497 570 c 0
 541 570 602 544 638 476 c 0
 660 434 670 380 670 318 c 0
 670 264 664 156 586 100 c 1
 578 118 569 136 556 150 c 0
 542 165 522 176 498 176 c 0
 460 176 434 146 434 114 c 0
 434 98 441 84 442 82 c 1
 389 104 325 174 325 318 c 0
454 114 m 0
 454 136 470 156 498 156 c 0
 516 156 531 151 542 138 c 0
 552 126 559 108 563 86 c 1
 539 74 515 71 498 71 c 0
 459 71 454 104 454 114 c 0
EndSplineSet
EndChar
StartChar: uF2998
Encoding: 993688 993688 319
Width: 1000
Flags: MW
LayerCount: 2
Fore
SplineSet
50 300 m 0
 50 555 246 770 500 770 c 0
 741 770 950 566 950 300 c 0
 950 46 754 -170 500 -170 c 0
 259 -170 50 34 50 300 c 0
247 33 m 1
 274 35 333 36 363 36 c 0
 393 36 451 35 478 33 c 1
 478 60 l 1
 464 60 l 1
 440 60 409 61 404 66 c 1
 400 70 399 77 399 86 c 1
 399 280 l 1
 486 280 l 2
 498 280 529 280 554 254 c 0
 581 227 582 207 582 156 c 0
 582 107 582 76 618 48 c 1
 650 24 694 18 718 18 c 0
 782 18 793 82 793 101 c 0
 793 108 792 114 782 114 c 0
 772 114 771 106 770 100 c 0
 766 52 742 38 722 38 c 0
 683 38 675 80 667 140 c 1
 667 142 658 200 658 201 c 1
 645 250 607 274 568 288 c 1
 644 307 698 354 698 410 c 0
 698 483 614 546 496 546 c 2
 247 546 l 1
 247 520 l 1
 261 520 l 1
 282 520 313 519 319 515 c 1
 325 511 326 503 326 493 c 1
 326 86 l 1
 326 76 326 69 320 65 c 1
 314 61 283 60 261 60 c 1
 247 60 l 1
 247 33 l 1
399 299 m 1
 399 498 l 1
 399 511 400 516 412 518 c 1
 418 520 457 520 468 520 c 1
 549 520 612 503 612 410 c 0
 612 360 598 299 484 299 c 2
 399 299 l 1
EndSplineSet
EndChar
StartChar: uF299C
Encoding: 993692 993692 323
Width: 1000
Flags: MW
LayerCount: 2
Fore
SplineSet
50 300 m 0
 50 555 246 770 500 770 c 0
 741 770 950 566 950 300 c 0
 950 46 754 -170 500 -170 c 0
 259 -170 50 34 50 300 c 0
223 520 m 1
 260 520 287 519 295 498 c 1
 478 37 l 2
 483 23 487 19 500 19 c 0
 513 19 516 22 521 34 c 2
 696 478 l 2
 704 499 718 516 762 519 c 1
 765 519 773 520 777 520 c 1
 777 546 l 1
 753 544 721 544 701 544 c 0
 677 544 634 545 612 546 c 1
 612 520 l 1
 643 519 670 504 670 489 c 0
 670 484 668 480 666 476 c 2
 525 120 l 1
 377 493 l 1
 374 501 374 502 374 504 c 1
 374 520 424 520 438 520 c 1
 438 546 l 1
 411 544 354 544 325 544 c 0
 291 544 250 545 223 546 c 1
 223 520 l 1
EndSplineSet
EndChar
StartChar: uF299E
Encoding: 993694 993694 325
Width: 1000
Flags: MW
LayerCount: 2
Fore
SplineSet
50 300 m 0
 50 555 246 770 500 770 c 0
 741 770 950 566 950 300 c 0
 950 46 754 -170 500 -170 c 0
 259 -170 50 34 50 300 c 0
228 35 m 1
 256 36 288 38 315 38 c 0
 343 38 389 37 416 35 c 1
 416 62 l 1
 387 63 369 78 363 90 c 1
 363 96 366 99 370 105 c 2
 481 265 l 1
 602 84 l 1
 604 82 605 80 605 78 c 1
 605 71 577 63 553 62 c 1
 553 35 l 1
 580 37 639 38 669 38 c 0
 701 38 742 37 772 35 c 1
 772 62 l 1
 762 62 l 1
 733 62 702 65 690 82 c 1
 524 327 l 1
 633 482 l 2
 643 495 652 506 676 514 c 0
 689 518 702 519 720 521 c 1
 724 522 734 522 740 522 c 1
 740 548 l 1
 710 547 674 546 652 546 c 0
 622 546 581 546 552 548 c 1
 552 522 l 1
 578 521 598 509 604 494 c 1
 604 488 601 485 597 479 c 2
 509 351 l 1
 409 497 l 1
 407 499 405 503 405 505 c 1
 405 512 434 521 458 522 c 1
 458 548 l 1
 431 546 371 546 341 546 c 0
 316 546 265 546 237 548 c 1
 237 522 l 1
 248 522 l 1
 279 522 308 518 318 502 c 1
 464 289 l 1
 334 102 l 2
 328 94 321 83 300 74 c 0
 288 68 273 66 254 64 c 1
 248 63 236 62 228 62 c 1
 228 35 l 1
EndSplineSet
EndChar
StartChar: uF2A0C
Encoding: 993804 993804 329
Width: 1000
Flags: MW
LayerCount: 2
Fore
SplineSet
95 725 m 1
 95 -125 l 1
 905 -125 l 1
 905 725 l 1
 95 725 l 1
50 770 m 1
 950 770 l 1
 950 -170 l 1
 50 -170 l 1
 50 770 l 1
305 305 m 0
 305 362 308 428 338 482 c 1
 368 542 430 563 501 563 c 0
 554 563 626 549 658 489 c 0
 692 433 695 363 695 305 c 0
 695 248 692 181 660 128 c 0
 628 68 563 51 499 51 c 0
 438 51 375 67 344 120 c 0
 307 177 305 251 305 305 c 0
376 315 m 0
 376 272 376 200 384 156 c 0
 398 88 457 70 499 70 c 0
 544 70 604 89 616 160 c 0
 624 206 624 263 624 315 c 0
 624 366 624 428 614 466 c 0
 599 530 536 544 499 544 c 0
 473 544 395 538 382 454 c 0
 376 414 376 365 376 315 c 0
EndSplineSet
EndChar
StartChar: uF2A12
Encoding: 993810 993810 335
Width: 1000
Flags: MW
LayerCount: 2
Fore
SplineSet
95 725 m 1
 95 -125 l 1
 905 -125 l 1
 905 725 l 1
 95 725 l 1
50 770 m 1
 950 770 l 1
 950 -170 l 1
 50 -170 l 1
 50 770 l 1
306 168 m 0
 306 202 330 214 352 214 c 0
 377 214 397 198 397 169 c 0
 397 140 376 123 350 124 c 1
 378 86 446 75 488 75 c 0
 550 75 607 111 607 196 c 0
 607 261 575 317 481 317 c 2
 433 317 l 2
 414 317 408 317 408 327 c 0
 408 334 413 335 422 336 c 0
 429 336 450 338 466 339 c 0
 496 340 531 345 560 377 c 1
 588 409 590 452 590 460 c 0
 590 517 543 541 489 541 c 0
 458 541 409 535 380 514 c 0
 374 510 370 506 366 500 c 1
 375 500 416 498 416 458 c 0
 416 434 395 417 369 417 c 0
 345 417 328 433 328 460 c 0
 328 486 339 509 362 527 c 0
 389 549 433 563 493 563 c 0
 605 563 672 520 672 459 c 0
 672 399 626 348 548 329 c 1
 652 311 694 253 694 196 c 0
 694 122 629 51 491 51 c 0
 424 51 374 67 343 95 c 0
 319 114 306 139 306 168 c 0
EndSplineSet
EndChar
StartChar: uF2A1A
Encoding: 993818 993818 343
Width: 1000
Flags: MW
LayerCount: 2
Fore
SplineSet
95 725 m 1
 95 -125 l 1
 905 -125 l 1
 905 725 l 1
 95 725 l 1
50 770 m 1
 950 770 l 1
 950 -170 l 1
 50 -170 l 1
 50 770 l 1
304 410 m 1
 328 574 l 1
 351 574 l 1
 353 565 354 558 374 554 c 1
 387 552 439 550 483 550 c 2
 696 550 l 1
 696 532 692 529 684 521 c 2
 564 381 l 2
 524 334 510 291 504 267 c 0
 489 223 484 174 484 134 c 2
 484 96 l 2
 484 86 482 71 472 62 c 0
 466 56 457 52 447 52 c 0
 437 52 428 56 422 62 c 0
 412 71 409 86 409 96 c 0
 409 206 462 298 542 398 c 2
 610 483 l 1
 429 483 l 2
 415 483 351 482 345 478 c 0
 337 471 330 433 326 410 c 1
 304 410 l 1
EndSplineSet
EndChar
StartChar: uF2A1C
Encoding: 993820 993820 345
Width: 1000
Flags: MW
LayerCount: 2
Fore
SplineSet
95 725 m 1
 95 -125 l 1
 905 -125 l 1
 905 725 l 1
 95 725 l 1
50 770 m 1
 950 770 l 1
 950 -170 l 1
 50 -170 l 1
 50 770 l 1
288 181 m 0
 288 251 355 292 421 316 c 1
 394 328 358 344 346 354 c 0
 311 387 308 420 308 436 c 0
 308 506 385 563 501 563 c 0
 604 563 692 523 692 452 c 0
 692 404 651 366 575 338 c 1
 635 313 655 305 676 288 c 0
 702 258 712 226 712 195 c 0
 712 115 632 51 499 51 c 0
 380 51 288 98 288 181 c 0
332 181 m 0
 332 120 405 75 501 75 c 0
 583 75 668 107 668 165 c 0
 668 209 621 229 587 244 c 1
 574 250 458 298 450 302 c 1
 370 272 332 229 332 181 c 0
354 469 m 0
 354 453 363 430 406 412 c 2
 546 352 l 1
 607 377 646 409 646 451 c 0
 646 504 580 541 499 541 c 0
 429 541 354 517 354 469 c 0
EndSplineSet
EndChar
StartChar: uF2A1E
Encoding: 993822 993822 347
Width: 1000
Flags: MW
LayerCount: 2
Fore
SplineSet
95 725 m 1
 95 -125 l 1
 905 -125 l 1
 905 725 l 1
 95 725 l 1
50 770 m 1
 950 770 l 1
 950 -170 l 1
 50 -170 l 1
 50 770 l 1
300 396 m 0
 300 451 318 486 350 518 c 1
 387 550 442 563 504 563 c 0
 628 563 700 476 700 312 c 0
 700 143 590 51 445 51 c 0
 406 51 376 59 356 71 c 0
 332 85 320 108 320 135 c 0
 320 164 342 174 358 174 c 0
 377 174 395 160 395 136 c 0
 395 118 384 99 357 99 c 1
 361 94 367 91 373 88 c 0
 396 76 429 75 444 75 c 0
 490 75 545 92 581 134 c 0
 606 164 623 211 623 279 c 2
 623 301 l 1
 595 255 550 231 490 231 c 0
 369 231 300 300 300 396 c 0
377 395 m 0
 377 357 378 321 396 294 c 0
 424 254 468 250 492 250 c 0
 586 250 622 324 622 382 c 0
 622 414 618 461 605 485 c 0
 589 513 557 541 504 541 c 0
 463 541 424 532 398 498 c 0
 376 471 377 435 377 395 c 0
EndSplineSet
EndChar
StartChar: uF2A1F
Encoding: 993823 993823 348
Width: 1000
Flags: MW
LayerCount: 2
Fore
SplineSet
95 725 m 1
 95 -125 l 1
 905 -125 l 1
 905 725 l 1
 95 725 l 1
50 770 m 1
 950 770 l 1
 950 -170 l 1
 50 -170 l 1
 50 770 l 1
531 396 m 0
 531 451 548 486 579 518 c 1
 610 550 647 563 689 563 c 0
 778 563 842 476 842 312 c 0
 842 143 748 51 654 51 c 0
 588 51 550 85 550 135 c 0
 550 164 570 174 586 174 c 0
 604 174 622 160 622 136 c 0
 622 118 612 99 585 99 c 1
 605 76 640 75 653 75 c 0
 684 75 719 92 742 134 c 0
 759 164 770 211 770 279 c 2
 770 301 l 1
 751 255 720 231 680 231 c 0
 597 231 531 300 531 396 c 0
604 395 m 0
 604 357 603 321 616 294 c 0
 635 254 666 250 682 250 c 0
 745 250 768 324 768 382 c 0
 768 414 766 461 757 485 c 0
 747 513 724 541 689 541 c 0
 661 541 636 532 618 498 c 0
 603 471 604 435 604 395 c 0
154 305 m 0
 154 362 157 428 186 482 c 1
 215 542 264 563 312 563 c 0
 348 563 404 549 435 489 c 0
 467 433 470 363 470 305 c 0
 470 248 467 181 437 128 c 0
 407 68 354 51 311 51 c 0
 270 51 222 67 192 120 c 0
 157 177 154 251 154 305 c 0
222 315 m 0
 222 272 221 200 229 156 c 0
 241 88 283 70 311 70 c 0
 341 70 385 89 395 160 c 0
 402 206 402 263 402 315 c 0
 402 366 403 428 394 466 c 0
 380 530 336 544 311 544 c 0
 293 544 239 538 227 454 c 0
 221 414 222 365 222 315 c 0
EndSplineSet
EndChar
StartChar: uF2A26
Encoding: 993830 993830 355
Width: 1000
Flags: MW
LayerCount: 2
Fore
SplineSet
95 725 m 1
 95 -125 l 1
 905 -125 l 1
 905 725 l 1
 95 725 l 1
50 770 m 1
 950 770 l 1
 950 -170 l 1
 50 -170 l 1
 50 770 l 1
537 303 m 0
 537 475 640 563 734 563 c 0
 798 563 830 524 830 479 c 0
 830 450 809 440 793 440 c 0
 775 440 758 454 758 478 c 0
 758 509 783 513 797 514 c 1
 781 538 752 541 736 541 c 0
 710 541 669 527 642 483 c 0
 625 456 610 410 610 331 c 2
 610 314 l 1
 628 355 657 384 699 384 c 0
 781 384 848 317 848 219 c 0
 848 120 779 51 694 51 c 0
 650 51 602 70 570 130 c 1
 548 172 537 230 537 303 c 0
611 232 m 0
 611 218 611 159 624 127 c 0
 628 116 650 75 694 75 c 0
 715 75 746 82 764 122 c 0
 776 148 776 184 776 220 c 0
 776 258 777 294 764 321 c 0
 745 361 714 365 698 365 c 0
 638 365 611 299 611 232 c 0
194 489 m 1
 194 515 l 1
 198 515 l 1
 222 515 284 517 329 558 c 0
 332 561 332 561 336 563 c 1
 353 563 353 560 353 542 c 2
 353 119 l 1
 353 98 378 92 429 92 c 1
 447 92 l 1
 447 65 l 1
 421 67 354 68 324 68 c 0
 294 68 226 67 200 65 c 1
 200 92 l 1
 218 92 l 1
 269 92 293 99 293 119 c 1
 293 507 l 1
 257 491 214 489 198 489 c 1
 194 489 l 1
EndSplineSet
EndChar
StartChar: uF2A2C
Encoding: 993836 993836 361
Width: 1000
Flags: MW
LayerCount: 2
Fore
SplineSet
95 725 m 1
 95 -125 l 1
 905 -125 l 1
 905 725 l 1
 95 725 l 1
50 770 m 1
 950 770 l 1
 950 -170 l 1
 50 -170 l 1
 50 770 l 1
537 68 m 1
 537 72 537 78 537 80 c 2
 537 90 540 91 546 98 c 2
 687 258 l 2
 729 306 763 362 763 420 c 0
 763 480 731 540 666 540 c 0
 627 540 592 516 574 475 c 1
 576 475 577 475 582 475 c 0
 605 473 620 456 620 433 c 0
 620 400 594 390 579 390 c 0
 573 390 537 393 537 435 c 0
 537 502 594 566 678 566 c 0
 770 566 837 506 837 420 c 0
 837 346 792 308 686 214 c 1
 679 208 611 142 603 135 c 1
 728 135 l 2
 742 135 792 134 798 140 c 1
 806 150 811 188 815 208 c 1
 837 208 l 1
 816 68 l 1
 537 68 l 1
162 68 m 1
 162 72 162 78 162 80 c 2
 162 90 165 91 171 98 c 2
 312 258 l 2
 354 306 388 362 388 420 c 0
 388 480 356 540 291 540 c 0
 252 540 217 516 199 475 c 1
 201 475 203 475 208 475 c 0
 231 473 245 456 245 433 c 0
 245 400 219 390 204 390 c 0
 198 390 162 393 162 435 c 0
 162 502 219 566 303 566 c 0
 395 566 462 506 462 420 c 0
 462 346 418 308 312 214 c 1
 305 208 236 142 228 135 c 1
 353 135 l 2
 367 135 417 134 423 140 c 1
 431 150 436 188 440 208 c 1
 462 208 l 1
 441 68 l 1
 162 68 l 1
EndSplineSet
EndChar
StartChar: uF2A2E
Encoding: 993838 993838 363
Width: 1000
Flags: MW
LayerCount: 2
Fore
SplineSet
95 725 m 1
 95 -125 l 1
 905 -125 l 1
 905 725 l 1
 95 725 l 1
50 770 m 1
 950 770 l 1
 950 -170 l 1
 50 -170 l 1
 50 770 l 1
524 191 m 1
 524 218 l 1
 754 563 l 2
 760 573 761 572 770 572 c 0
 784 572 784 568 784 552 c 2
 784 218 l 1
 856 218 l 1
 856 191 l 1
 784 191 l 1
 784 122 l 1
 784 102 801 95 843 95 c 1
 855 95 l 1
 855 69 l 1
 826 71 782 71 752 71 c 0
 721 71 677 71 647 69 c 1
 647 95 l 1
 659 95 l 1
 701 95 720 102 720 122 c 1
 720 191 l 1
 524 191 l 1
548 218 m 1
 726 218 l 1
 726 485 l 1
 548 218 l 1
165 69 m 1
 165 73 165 80 165 82 c 2
 165 92 167 92 173 99 c 2
 314 258 l 2
 356 306 391 364 391 422 c 0
 391 482 359 540 294 540 c 0
 255 540 219 517 201 476 c 1
 203 476 205 476 210 476 c 0
 233 474 248 457 248 434 c 0
 248 401 222 390 207 390 c 0
 201 390 165 394 165 436 c 0
 165 503 221 566 305 566 c 0
 397 566 464 508 464 422 c 0
 464 348 420 310 314 216 c 1
 307 210 239 143 231 136 c 1
 356 136 l 2
 370 136 420 135 426 141 c 1
 434 151 439 188 443 208 c 1
 464 208 l 1
 444 69 l 1
 165 69 l 1
EndSplineSet
EndChar
StartChar: uF2A34
Encoding: 993844 993844 369
Width: 1000
Flags: MW
LayerCount: 2
Fore
SplineSet
95 725 m 1
 95 -125 l 1
 905 -125 l 1
 905 725 l 1
 95 725 l 1
50 770 m 1
 950 770 l 1
 950 -170 l 1
 50 -170 l 1
 50 770 l 1
530 305 m 0
 530 362 532 428 561 482 c 1
 590 542 640 563 688 563 c 0
 724 563 779 549 810 489 c 0
 842 433 845 363 845 305 c 0
 845 248 843 181 813 128 c 0
 783 68 730 51 687 51 c 0
 646 51 597 67 567 120 c 0
 532 177 530 251 530 305 c 0
598 315 m 0
 598 272 597 200 605 156 c 0
 617 88 659 70 687 70 c 0
 717 70 761 89 771 160 c 0
 778 206 778 263 778 315 c 0
 778 366 779 428 770 466 c 0
 756 530 712 544 687 544 c 0
 669 544 615 538 603 454 c 0
 597 414 598 365 598 315 c 0
157 168 m 0
 157 202 181 214 201 214 c 0
 225 214 245 198 245 169 c 0
 245 140 223 123 198 124 c 1
 226 86 277 75 305 75 c 0
 347 75 386 111 386 196 c 0
 386 261 365 317 301 317 c 2
 268 317 l 2
 255 317 250 317 250 327 c 0
 250 334 255 335 261 336 c 0
 265 336 280 338 291 339 c 0
 311 340 335 345 354 377 c 1
 374 409 374 452 374 460 c 0
 374 517 343 541 306 541 c 0
 281 541 236 533 213 500 c 1
 222 500 258 498 258 458 c 0
 258 434 241 417 217 417 c 0
 194 417 177 433 177 460 c 0
 177 518 233 563 309 563 c 0
 386 563 448 520 448 459 c 0
 448 399 404 348 346 329 c 1
 428 311 468 253 468 196 c 0
 468 122 405 51 307 51 c 0
 225 51 157 100 157 168 c 0
EndSplineSet
EndChar
StartChar: uF2A3D
Encoding: 993853 993853 378
Width: 1000
Flags: MW
LayerCount: 2
Fore
SplineSet
95 725 m 1
 95 -125 l 1
 905 -125 l 1
 905 725 l 1
 95 725 l 1
50 770 m 1
 950 770 l 1
 950 -170 l 1
 50 -170 l 1
 50 770 l 1
531 396 m 0
 531 451 548 486 579 518 c 1
 610 550 648 563 690 563 c 0
 779 563 843 476 843 312 c 0
 843 143 748 51 654 51 c 0
 588 51 550 85 550 135 c 0
 550 164 571 174 587 174 c 0
 605 174 622 160 622 136 c 0
 622 118 612 99 585 99 c 1
 605 76 641 75 654 75 c 0
 685 75 720 92 743 134 c 0
 760 164 770 211 770 279 c 2
 770 301 l 1
 751 255 720 231 680 231 c 0
 597 231 531 300 531 396 c 0
604 395 m 0
 604 357 603 321 616 294 c 0
 635 254 666 250 682 250 c 0
 745 250 769 324 769 382 c 0
 769 414 767 461 758 485 c 0
 748 513 725 541 690 541 c 0
 662 541 637 532 619 498 c 0
 604 471 604 435 604 395 c 0
156 168 m 0
 156 202 180 214 200 214 c 0
 224 214 244 198 244 169 c 0
 244 140 223 123 198 124 c 1
 226 86 276 75 304 75 c 0
 346 75 385 111 385 196 c 0
 385 261 364 317 300 317 c 2
 268 317 l 2
 255 317 250 317 250 327 c 0
 250 334 254 335 260 336 c 0
 264 336 280 338 291 339 c 0
 311 340 334 345 353 377 c 1
 373 409 373 452 373 460 c 0
 373 517 342 541 305 541 c 0
 280 541 236 533 213 500 c 1
 222 500 257 498 257 458 c 0
 257 434 241 417 217 417 c 0
 194 417 177 433 177 460 c 0
 177 518 232 563 308 563 c 0
 385 563 447 520 447 459 c 0
 447 399 403 348 345 329 c 1
 427 311 468 253 468 196 c 0
 468 122 405 51 307 51 c 0
 225 51 156 100 156 168 c 0
EndSplineSet
EndChar
StartChar: uF2A3E
Encoding: 993854 993854 379
Width: 1000
Flags: MW
LayerCount: 2
Fore
SplineSet
95 725 m 1
 95 -125 l 1
 905 -125 l 1
 905 725 l 1
 95 725 l 1
50 770 m 1
 950 770 l 1
 950 -170 l 1
 50 -170 l 1
 50 770 l 1
528 306 m 0
 528 363 531 429 560 483 c 1
 589 543 638 564 686 564 c 0
 722 564 778 550 809 490 c 0
 841 434 844 364 844 306 c 0
 844 249 841 182 811 129 c 0
 781 69 728 52 685 52 c 0
 644 52 596 68 566 121 c 0
 531 178 528 252 528 306 c 0
596 316 m 0
 596 273 595 202 603 158 c 0
 615 90 657 71 685 71 c 0
 715 71 759 91 769 162 c 0
 776 208 776 264 776 316 c 0
 776 367 777 429 768 467 c 0
 754 531 710 545 685 545 c 0
 667 545 613 538 601 454 c 0
 595 414 596 366 596 316 c 0
144 189 m 1
 144 215 l 1
 374 561 l 2
 380 571 382 571 391 571 c 0
 405 571 405 566 405 550 c 2
 405 215 l 1
 477 215 l 1
 477 189 l 1
 405 189 l 1
 405 119 l 1
 405 99 422 93 464 93 c 1
 475 93 l 1
 475 67 l 1
 446 69 402 69 372 69 c 0
 341 69 298 69 268 67 c 1
 268 93 l 1
 280 93 l 1
 322 93 341 99 341 119 c 1
 341 189 l 1
 144 189 l 1
169 215 m 1
 346 215 l 1
 346 483 l 1
 169 215 l 1
EndSplineSet
EndChar
StartChar: uF2A44
Encoding: 993860 993860 385
Width: 1000
Flags: MW
LayerCount: 2
Fore
SplineSet
95 725 m 1
 95 -125 l 1
 905 -125 l 1
 905 725 l 1
 95 725 l 1
50 770 m 1
 950 770 l 1
 950 -170 l 1
 50 -170 l 1
 50 770 l 1
530 304 m 0
 530 476 633 564 727 564 c 0
 791 564 822 525 822 480 c 0
 822 451 802 440 786 440 c 0
 768 440 750 454 750 478 c 0
 750 509 776 515 790 516 c 1
 774 540 744 543 728 543 c 0
 702 543 661 528 634 484 c 0
 617 457 602 411 602 332 c 2
 602 315 l 1
 620 356 650 385 692 385 c 0
 774 385 841 318 841 220 c 0
 841 121 771 52 686 52 c 0
 642 52 595 71 563 131 c 1
 541 173 530 231 530 304 c 0
604 233 m 0
 604 219 603 161 616 129 c 0
 620 118 642 76 686 76 c 0
 707 76 739 82 757 122 c 0
 769 148 768 185 768 221 c 0
 768 259 769 295 756 322 c 0
 737 362 706 366 690 366 c 0
 630 366 604 300 604 233 c 0
144 189 m 1
 144 215 l 1
 374 561 l 2
 380 571 381 571 390 571 c 0
 404 571 404 566 404 550 c 2
 404 215 l 1
 476 215 l 1
 476 189 l 1
 404 189 l 1
 404 119 l 1
 404 99 421 93 463 93 c 1
 475 93 l 1
 475 67 l 1
 446 69 402 69 372 69 c 0
 341 69 298 69 268 67 c 1
 268 93 l 1
 280 93 l 1
 322 93 341 99 341 119 c 1
 341 189 l 1
 144 189 l 1
168 215 m 1
 346 215 l 1
 346 483 l 1
 168 215 l 1
EndSplineSet
EndChar
StartChar: uF2A4D
Encoding: 993869 993869 394
Width: 1000
Flags: MW
LayerCount: 2
Fore
SplineSet
95 725 m 1
 95 -125 l 1
 905 -125 l 1
 905 725 l 1
 95 725 l 1
50 770 m 1
 950 770 l 1
 950 -170 l 1
 50 -170 l 1
 50 770 l 1
537 186 m 0
 537 223 566 229 576 229 c 0
 599 229 615 212 615 188 c 0
 615 168 602 150 578 149 c 0
 572 149 568 149 566 150 c 1
 583 106 625 75 670 75 c 0
 702 75 729 92 745 118 c 1
 764 149 764 192 764 220 c 0
 764 258 762 290 750 317 c 0
 744 331 727 359 692 359 c 0
 640 359 609 327 597 309 c 0
 594 305 592 302 586 302 c 0
 575 302 574 308 574 322 c 2
 574 544 l 2
 574 556 574 562 582 562 c 0
 584 562 585 562 591 560 c 0
 621 546 657 539 692 539 c 0
 736 539 772 552 793 561 c 0
 798 563 799 563 800 563 c 0
 806 563 807 558 807 554 c 0
 807 542 753 469 660 469 c 0
 636 469 616 474 600 478 c 1
 600 343 l 1
 628 369 661 379 693 379 c 0
 778 379 837 304 837 216 c 0
 837 122 763 51 672 51 c 0
 589 51 537 122 537 186 c 0
162 186 m 0
 162 223 191 229 201 229 c 0
 224 229 240 212 240 188 c 0
 240 168 227 150 203 149 c 0
 197 149 194 149 192 150 c 1
 209 106 251 75 296 75 c 0
 328 75 354 92 370 118 c 1
 389 149 389 192 389 220 c 0
 389 258 387 290 375 317 c 0
 369 331 351 359 316 359 c 0
 264 359 234 327 222 309 c 0
 219 305 217 302 211 302 c 0
 200 302 200 308 200 322 c 2
 200 544 l 2
 200 556 199 562 207 562 c 0
 209 562 210 562 216 560 c 0
 246 546 281 539 316 539 c 0
 360 539 397 552 418 561 c 0
 423 563 424 563 425 563 c 0
 431 563 432 558 432 554 c 0
 432 542 379 469 286 469 c 0
 262 469 242 474 226 478 c 1
 226 343 l 1
 254 369 286 379 318 379 c 0
 403 379 462 304 462 216 c 0
 462 122 388 51 297 51 c 0
 214 51 162 122 162 186 c 0
EndSplineSet
EndChar
StartChar: uF2A50
Encoding: 993872 993872 397
Width: 1000
Flags: MW
LayerCount: 2
Fore
SplineSet
95 725 m 1
 95 -125 l 1
 905 -125 l 1
 905 725 l 1
 95 725 l 1
50 770 m 1
 950 770 l 1
 950 -170 l 1
 50 -170 l 1
 50 770 l 1
532 181 m 0
 532 251 587 292 634 316 c 1
 616 328 592 344 584 354 c 0
 555 387 553 420 553 436 c 0
 553 506 609 563 688 563 c 0
 758 563 823 523 823 452 c 0
 823 404 791 366 739 338 c 1
 779 313 793 305 808 288 c 0
 834 258 844 226 844 195 c 0
 844 115 778 51 688 51 c 0
 608 51 532 98 532 181 c 0
575 181 m 0
 575 120 624 75 688 75 c 0
 744 75 802 107 802 165 c 0
 802 209 769 229 746 244 c 1
 737 250 661 298 655 302 c 1
 601 272 575 229 575 181 c 0
590 469 m 0
 590 453 597 430 625 412 c 2
 719 352 l 1
 760 377 786 409 786 451 c 0
 786 504 743 541 688 541 c 0
 642 541 590 517 590 469 c 0
163 186 m 0
 163 223 192 229 202 229 c 0
 225 229 241 212 241 188 c 0
 241 168 228 150 204 149 c 0
 198 149 194 149 192 150 c 1
 209 106 251 75 296 75 c 0
 328 75 355 92 371 118 c 1
 390 149 390 192 390 220 c 0
 390 258 388 290 376 317 c 0
 370 331 353 359 318 359 c 0
 266 359 235 327 223 309 c 0
 220 305 218 302 212 302 c 0
 201 302 200 308 200 322 c 2
 200 544 l 2
 200 556 200 562 208 562 c 0
 210 562 211 562 217 560 c 0
 247 546 283 539 318 539 c 0
 362 539 398 552 419 561 c 0
 424 563 425 563 426 563 c 0
 432 563 433 558 433 554 c 0
 433 542 379 469 286 469 c 0
 262 469 242 474 226 478 c 1
 226 343 l 1
 254 369 287 379 319 379 c 0
 404 379 463 304 463 216 c 0
 463 122 389 51 298 51 c 0
 215 51 163 122 163 186 c 0
EndSplineSet
EndChar
StartChar: uF2A51
Encoding: 993873 993873 398
Width: 1000
Flags: MW
LayerCount: 2
Fore
SplineSet
95 725 m 1
 95 -125 l 1
 905 -125 l 1
 905 725 l 1
 95 725 l 1
50 770 m 1
 950 770 l 1
 950 -170 l 1
 50 -170 l 1
 50 770 l 1
532 396 m 0
 532 451 549 486 580 518 c 1
 611 550 649 563 691 563 c 0
 780 563 844 476 844 312 c 0
 844 143 750 51 656 51 c 0
 590 51 551 85 551 135 c 0
 551 164 572 174 588 174 c 0
 606 174 623 160 623 136 c 0
 623 118 613 99 586 99 c 1
 606 76 642 75 655 75 c 0
 686 75 721 92 744 134 c 0
 761 164 771 211 771 279 c 2
 771 301 l 1
 752 255 721 231 681 231 c 0
 598 231 532 300 532 396 c 0
605 395 m 0
 605 357 605 321 618 294 c 0
 637 254 667 250 683 250 c 0
 746 250 770 324 770 382 c 0
 770 414 768 461 759 485 c 0
 749 513 726 541 691 541 c 0
 663 541 638 532 620 498 c 0
 605 471 605 435 605 395 c 0
163 186 m 0
 163 223 192 229 202 229 c 0
 225 229 241 212 241 188 c 0
 241 168 228 150 204 149 c 0
 198 149 194 149 192 150 c 1
 209 106 251 75 296 75 c 0
 328 75 355 92 371 118 c 1
 390 149 390 192 390 220 c 0
 390 258 388 290 376 317 c 0
 370 331 353 359 318 359 c 0
 266 359 235 327 223 309 c 0
 220 305 218 302 212 302 c 0
 201 302 200 308 200 322 c 2
 200 544 l 2
 200 556 200 562 208 562 c 0
 210 562 211 562 217 560 c 0
 247 546 283 539 318 539 c 0
 362 539 398 552 419 561 c 0
 424 563 425 563 426 563 c 0
 432 563 433 558 433 554 c 0
 433 542 379 469 286 469 c 0
 262 469 242 474 226 478 c 1
 226 343 l 1
 254 369 287 379 319 379 c 0
 404 379 463 304 463 216 c 0
 463 122 389 51 298 51 c 0
 215 51 163 122 163 186 c 0
EndSplineSet
EndChar
StartChar: uF2A58
Encoding: 993880 993880 405
Width: 1000
Flags: MW
LayerCount: 2
Fore
SplineSet
95 725 m 1
 95 -125 l 1
 905 -125 l 1
 905 725 l 1
 95 725 l 1
50 770 m 1
 950 770 l 1
 950 -170 l 1
 50 -170 l 1
 50 770 l 1
531 303 m 0
 531 475 635 563 729 563 c 0
 793 563 824 524 824 479 c 0
 824 450 804 440 788 440 c 0
 770 440 752 454 752 478 c 0
 752 509 778 513 792 514 c 1
 776 538 746 541 730 541 c 0
 704 541 663 527 636 483 c 0
 619 456 604 410 604 331 c 2
 604 314 l 1
 622 355 652 384 694 384 c 0
 776 384 843 317 843 219 c 0
 843 120 773 51 688 51 c 0
 644 51 597 70 565 130 c 1
 543 172 531 230 531 303 c 0
606 232 m 0
 606 218 605 159 618 127 c 0
 622 116 644 75 688 75 c 0
 709 75 740 82 758 122 c 0
 770 148 770 184 770 220 c 0
 770 258 771 294 758 321 c 0
 739 361 708 365 692 365 c 0
 632 365 606 299 606 232 c 0
156 303 m 0
 156 475 260 563 354 563 c 0
 418 563 449 524 449 479 c 0
 449 450 428 440 412 440 c 0
 394 440 377 454 377 478 c 0
 377 509 402 513 416 514 c 1
 400 538 371 541 355 541 c 0
 329 541 288 527 261 483 c 0
 244 456 229 410 229 331 c 2
 229 314 l 1
 247 355 278 384 320 384 c 0
 402 384 468 317 468 219 c 0
 468 120 399 51 314 51 c 0
 270 51 222 70 190 130 c 1
 168 172 156 230 156 303 c 0
230 232 m 0
 230 218 231 159 244 127 c 0
 248 116 269 75 313 75 c 0
 334 75 365 82 383 122 c 0
 395 148 395 184 395 220 c 0
 395 258 396 294 383 321 c 0
 364 361 333 365 317 365 c 0
 257 365 230 299 230 232 c 0
EndSplineSet
EndChar
StartChar: uF2A60
Encoding: 993888 993888 413
Width: 1000
Flags: MW
LayerCount: 2
Fore
SplineSet
95 725 m 1
 95 -125 l 1
 905 -125 l 1
 905 725 l 1
 95 725 l 1
50 770 m 1
 950 770 l 1
 950 -170 l 1
 50 -170 l 1
 50 770 l 1
524 190 m 1
 524 216 l 1
 754 562 l 2
 760 572 762 571 771 571 c 0
 785 571 785 566 785 550 c 2
 785 216 l 1
 857 216 l 1
 857 190 l 1
 785 190 l 1
 785 120 l 1
 785 100 802 93 844 93 c 1
 855 93 l 1
 855 67 l 1
 826 69 782 69 752 69 c 0
 721 69 678 69 648 67 c 1
 648 93 l 1
 660 93 l 1
 702 93 721 100 721 120 c 1
 721 190 l 1
 524 190 l 1
548 216 m 1
 726 216 l 1
 726 484 l 1
 548 216 l 1
170 410 m 1
 194 574 l 1
 216 574 l 1
 218 565 219 559 239 555 c 1
 252 553 293 550 322 550 c 2
 492 550 l 1
 492 532 492 531 485 522 c 2
 384 381 l 2
 354 339 343 279 339 254 c 0
 333 215 331 174 331 134 c 2
 331 97 l 2
 331 79 323 52 295 52 c 0
 269 52 258 78 258 97 c 0
 258 182 289 286 356 383 c 1
 368 402 422 474 428 483 c 1
 283 483 l 2
 273 483 216 483 210 479 c 0
 202 472 195 433 192 410 c 1
 170 410 l 1
EndSplineSet
EndChar
StartChar: uF2A61
Encoding: 993889 993889 414
Width: 1000
Flags: MW
LayerCount: 2
Fore
SplineSet
95 725 m 1
 95 -125 l 1
 905 -125 l 1
 905 725 l 1
 95 725 l 1
50 770 m 1
 950 770 l 1
 950 -170 l 1
 50 -170 l 1
 50 770 l 1
538 187 m 0
 538 224 567 230 577 230 c 0
 600 230 615 214 615 190 c 0
 615 170 603 151 579 150 c 0
 573 150 569 150 567 151 c 1
 584 107 626 76 671 76 c 0
 703 76 730 93 746 119 c 1
 765 150 765 195 765 223 c 0
 765 261 763 291 751 318 c 0
 745 332 727 361 692 361 c 0
 640 361 610 329 598 311 c 0
 595 307 593 304 587 304 c 0
 576 304 575 310 575 324 c 2
 575 545 l 2
 575 557 575 564 583 564 c 0
 585 564 586 563 592 561 c 0
 622 547 657 540 692 540 c 0
 736 540 773 553 794 562 c 0
 799 564 800 564 801 564 c 0
 807 564 808 559 808 555 c 0
 808 543 754 470 661 470 c 0
 637 470 618 476 602 480 c 1
 602 344 l 1
 630 370 662 380 694 380 c 0
 779 380 837 306 837 218 c 0
 837 124 764 52 673 52 c 0
 590 52 538 123 538 187 c 0
168 410 m 1
 192 574 l 1
 214 574 l 1
 216 565 217 558 237 554 c 1
 250 552 291 550 320 550 c 2
 489 550 l 1
 489 532 490 530 483 521 c 2
 381 381 l 2
 351 339 340 279 336 254 c 0
 330 215 329 174 329 134 c 2
 329 96 l 2
 329 78 320 52 292 52 c 0
 266 52 256 77 256 96 c 0
 256 181 286 285 353 382 c 1
 365 401 419 474 425 483 c 1
 281 483 l 2
 271 483 214 482 208 478 c 0
 200 471 192 433 189 410 c 1
 168 410 l 1
EndSplineSet
EndChar
StartChar: uF2A63
Encoding: 993891 993891 416
Width: 1000
Flags: MW
LayerCount: 2
Fore
SplineSet
95 725 m 1
 95 -125 l 1
 905 -125 l 1
 905 725 l 1
 95 725 l 1
50 770 m 1
 950 770 l 1
 950 -170 l 1
 50 -170 l 1
 50 770 l 1
547 410 m 1
 572 574 l 1
 593 574 l 1
 595 565 596 558 616 554 c 1
 629 552 670 550 699 550 c 2
 869 550 l 1
 869 532 869 530 862 521 c 2
 761 381 l 2
 731 339 720 279 716 254 c 0
 710 215 708 174 708 134 c 2
 708 96 l 2
 708 78 700 52 672 52 c 0
 646 52 636 77 636 96 c 0
 636 181 665 285 732 382 c 1
 744 401 798 474 804 483 c 1
 660 483 l 2
 650 483 594 482 588 478 c 0
 580 471 572 433 569 410 c 1
 547 410 l 1
172 410 m 1
 196 574 l 1
 218 574 l 1
 220 565 221 558 241 554 c 1
 254 552 295 550 324 550 c 2
 494 550 l 1
 494 532 494 530 487 521 c 2
 386 381 l 2
 356 339 344 279 340 254 c 0
 334 215 333 174 333 134 c 2
 333 96 l 2
 333 78 325 52 297 52 c 0
 271 52 260 77 260 96 c 0
 260 181 290 285 357 382 c 1
 369 401 423 474 429 483 c 1
 285 483 l 2
 275 483 218 482 212 478 c 0
 204 471 197 433 194 410 c 1
 172 410 l 1
EndSplineSet
EndChar
StartChar: uF2A65
Encoding: 993893 993893 418
Width: 1000
Flags: MW
LayerCount: 2
Fore
SplineSet
95 725 m 1
 95 -125 l 1
 905 -125 l 1
 905 725 l 1
 95 725 l 1
50 770 m 1
 950 770 l 1
 950 -170 l 1
 50 -170 l 1
 50 770 l 1
533 397 m 0
 533 452 550 488 581 520 c 1
 612 552 649 564 691 564 c 0
 780 564 844 478 844 314 c 0
 844 145 750 52 656 52 c 0
 590 52 552 87 552 137 c 0
 552 166 572 176 588 176 c 0
 606 176 624 162 624 138 c 0
 624 120 614 101 587 101 c 1
 607 78 642 76 655 76 c 0
 686 76 721 94 744 136 c 0
 761 166 772 213 772 281 c 2
 772 303 l 1
 753 257 722 232 682 232 c 0
 599 232 533 301 533 397 c 0
606 397 m 0
 606 359 605 323 618 296 c 0
 637 256 668 252 684 252 c 0
 747 252 770 326 770 384 c 0
 770 416 768 463 759 487 c 0
 749 515 726 543 691 543 c 0
 663 543 638 533 620 499 c 0
 605 472 606 437 606 397 c 0
169 410 m 1
 192 574 l 1
 214 574 l 1
 216 565 218 558 238 554 c 1
 251 552 291 550 320 550 c 2
 490 550 l 1
 490 532 491 530 484 521 c 2
 382 381 l 2
 352 339 341 279 337 254 c 0
 331 215 330 174 330 134 c 2
 330 96 l 2
 330 78 321 52 293 52 c 0
 267 52 258 77 258 96 c 0
 258 181 287 285 354 382 c 1
 366 401 420 474 426 483 c 1
 282 483 l 2
 272 483 215 482 209 478 c 0
 201 471 193 433 190 410 c 1
 169 410 l 1
EndSplineSet
EndChar
StartChar: uF2A69
Encoding: 993897 993897 422
Width: 1000
Flags: MW
LayerCount: 2
Fore
SplineSet
95 725 m 1
 95 -125 l 1
 905 -125 l 1
 905 725 l 1
 95 725 l 1
50 770 m 1
 950 770 l 1
 950 -170 l 1
 50 -170 l 1
 50 770 l 1
531 168 m 0
 531 202 555 214 575 214 c 0
 599 214 619 198 619 169 c 0
 619 140 598 123 573 124 c 1
 601 86 652 75 680 75 c 0
 722 75 760 111 760 196 c 0
 760 261 739 317 675 317 c 2
 643 317 l 2
 630 317 625 317 625 327 c 0
 625 334 630 335 636 336 c 0
 640 336 655 338 666 339 c 0
 686 340 709 345 728 377 c 1
 748 409 748 452 748 460 c 0
 748 517 717 541 680 541 c 0
 655 541 611 533 588 500 c 1
 597 500 632 498 632 458 c 0
 632 434 616 417 592 417 c 0
 569 417 552 433 552 460 c 0
 552 518 607 563 683 563 c 0
 760 563 822 520 822 459 c 0
 822 399 778 348 720 329 c 1
 802 311 843 253 843 196 c 0
 843 122 780 51 682 51 c 0
 600 51 531 100 531 168 c 0
156 181 m 0
 156 251 211 292 258 316 c 1
 240 328 216 344 208 354 c 0
 179 387 177 420 177 436 c 0
 177 506 233 563 312 563 c 0
 382 563 447 523 447 452 c 0
 447 404 415 366 363 338 c 1
 403 313 417 305 432 288 c 0
 458 258 468 226 468 195 c 0
 468 115 402 51 312 51 c 0
 232 51 156 98 156 181 c 0
199 181 m 0
 199 120 248 75 312 75 c 0
 368 75 426 107 426 165 c 0
 426 209 393 229 370 244 c 1
 361 250 285 298 279 302 c 1
 225 272 199 229 199 181 c 0
214 469 m 0
 214 453 221 430 249 412 c 2
 343 352 l 1
 384 377 410 409 410 451 c 0
 410 504 367 541 312 541 c 0
 266 541 214 517 214 469 c 0
EndSplineSet
EndChar
StartChar: uF2A6B
Encoding: 993899 993899 424
Width: 1000
Flags: MW
LayerCount: 2
Fore
SplineSet
95 725 m 1
 95 -125 l 1
 905 -125 l 1
 905 725 l 1
 95 725 l 1
50 770 m 1
 950 770 l 1
 950 -170 l 1
 50 -170 l 1
 50 770 l 1
536 186 m 0
 536 223 565 229 575 229 c 0
 598 229 614 212 614 188 c 0
 614 168 601 150 577 149 c 0
 571 149 568 149 566 150 c 1
 583 106 625 75 670 75 c 0
 702 75 728 92 744 118 c 1
 763 149 763 192 763 220 c 0
 763 258 761 290 749 317 c 0
 743 331 725 359 690 359 c 0
 638 359 608 327 596 309 c 0
 593 305 591 302 585 302 c 0
 574 302 574 308 574 322 c 2
 574 544 l 2
 574 556 573 562 581 562 c 0
 583 562 584 562 590 560 c 0
 620 546 655 539 690 539 c 0
 734 539 771 552 792 561 c 0
 797 563 798 563 799 563 c 0
 805 563 806 558 806 554 c 0
 806 542 753 469 660 469 c 0
 636 469 616 474 600 478 c 1
 600 343 l 1
 628 369 660 379 692 379 c 0
 777 379 836 304 836 216 c 0
 836 122 762 51 671 51 c 0
 588 51 536 122 536 186 c 0
155 181 m 0
 155 251 210 292 257 316 c 1
 239 328 215 344 207 354 c 0
 178 387 176 420 176 436 c 0
 176 506 233 563 312 563 c 0
 382 563 446 523 446 452 c 0
 446 404 414 366 362 338 c 1
 402 313 416 305 431 288 c 0
 457 258 467 226 467 195 c 0
 467 115 401 51 311 51 c 0
 231 51 155 98 155 181 c 0
198 181 m 0
 198 120 248 75 312 75 c 0
 368 75 424 107 424 165 c 0
 424 209 393 229 370 244 c 1
 361 250 284 298 278 302 c 1
 224 272 198 229 198 181 c 0
213 469 m 0
 213 453 220 430 248 412 c 2
 342 352 l 1
 383 377 409 409 409 451 c 0
 409 504 366 541 311 541 c 0
 265 541 213 517 213 469 c 0
EndSplineSet
EndChar
StartChar: uF2A6D
Encoding: 993901 993901 426
Width: 1000
Flags: MW
LayerCount: 2
Fore
SplineSet
95 725 m 1
 95 -125 l 1
 905 -125 l 1
 905 725 l 1
 95 725 l 1
50 770 m 1
 950 770 l 1
 950 -170 l 1
 50 -170 l 1
 50 770 l 1
545 410 m 1
 570 574 l 1
 592 574 l 1
 594 565 594 558 614 554 c 1
 627 552 668 550 697 550 c 2
 867 550 l 1
 867 532 867 530 860 521 c 2
 759 381 l 2
 729 339 718 279 714 254 c 0
 708 215 706 174 706 134 c 2
 706 96 l 2
 706 78 698 52 670 52 c 0
 644 52 634 77 634 96 c 0
 634 181 664 285 731 382 c 1
 743 401 797 474 803 483 c 1
 658 483 l 2
 648 483 592 482 586 478 c 0
 578 471 570 433 567 410 c 1
 545 410 l 1
160 182 m 0
 160 252 215 293 262 317 c 1
 244 329 219 347 211 357 c 0
 182 390 180 422 180 438 c 0
 180 508 237 564 316 564 c 0
 386 564 451 525 451 454 c 0
 451 406 418 368 366 340 c 1
 406 315 420 307 435 290 c 0
 461 260 471 228 471 197 c 0
 471 117 405 52 315 52 c 0
 235 52 160 99 160 182 c 0
202 182 m 0
 202 121 252 76 316 76 c 0
 372 76 430 108 430 166 c 0
 430 210 397 231 374 246 c 1
 365 252 288 300 282 304 c 1
 228 274 202 230 202 182 c 0
217 470 m 0
 217 454 225 432 253 414 c 2
 347 353 l 1
 388 378 414 411 414 453 c 0
 414 506 370 543 315 543 c 0
 269 543 217 518 217 470 c 0
EndSplineSet
EndChar
StartChar: uF2A7C
Encoding: 993916 993916 441
Width: 1000
Flags: MW
LayerCount: 2
Fore
SplineSet
95 725 m 1
 95 -125 l 1
 905 -125 l 1
 905 725 l 1
 95 725 l 1
50 770 m 1
 950 770 l 1
 950 -170 l 1
 50 -170 l 1
 50 770 l 1
309 522 m 1
 309 548 l 1
 424 556 l 1
 424 323 l 1
 438 337 471 369 528 369 c 0
 620 369 691 294 691 198 c 0
 691 99 614 28 519 28 c 0
 460 28 428 67 418 81 c 1
 403 55 389 36 388 35 c 1
 366 35 l 1
 366 483 l 2
 366 518 359 522 309 522 c 1
425 118 m 1
 425 108 426 106 434 94 c 1
 450 70 477 48 515 48 c 0
 551 48 580 69 598 94 c 1
 620 127 621 169 621 199 c 0
 621 230 619 272 600 303 c 0
 583 330 557 349 522 349 c 0
 498 349 459 339 432 301 c 1
 426 292 425 291 425 281 c 1
 425 118 l 1
EndSplineSet
EndChar
StartChar: uF2A7E
Encoding: 993918 993918 443
Width: 1000
Flags: MW
LayerCount: 2
Fore
SplineSet
95 725 m 1
 95 -125 l 1
 905 -125 l 1
 905 725 l 1
 95 725 l 1
50 770 m 1
 950 770 l 1
 950 -170 l 1
 50 -170 l 1
 50 770 l 1
309 198 m 0
 309 297 387 369 481 369 c 0
 517 369 550 353 576 325 c 1
 576 483 l 2
 576 518 570 522 520 522 c 1
 520 548 l 1
 634 556 l 1
 634 101 l 2
 634 66 641 62 691 62 c 1
 691 35 l 1
 575 28 l 1
 575 75 l 1
 555 52 520 28 472 28 c 0
 380 28 309 102 309 198 c 0
379 198 m 0
 379 167 380 124 400 93 c 0
 417 67 443 48 478 48 c 0
 516 48 549 70 568 100 c 1
 574 110 575 111 575 121 c 1
 575 284 l 1
 575 294 574 294 568 304 c 1
 547 335 515 349 485 349 c 0
 449 349 420 329 402 304 c 0
 380 271 379 228 379 198 c 0
EndSplineSet
EndChar
StartChar: uF2A84
Encoding: 993924 993924 449
Width: 1000
Flags: MW
LayerCount: 2
Fore
SplineSet
95 725 m 1
 95 -125 l 1
 905 -125 l 1
 905 725 l 1
 95 725 l 1
50 770 m 1
 950 770 l 1
 950 -170 l 1
 50 -170 l 1
 50 770 l 1
362 18 m 0
 362 40 377 56 400 56 c 0
 422 56 437 40 437 18 c 0
 437 0 425 -12 413 -17 c 1
 431 -25 445 -24 451 -24 c 0
 498 -24 506 37 506 72 c 2
 506 369 l 2
 506 389 504 401 488 405 c 0
 478 408 464 408 444 408 c 1
 444 434 l 1
 564 442 l 1
 564 72 l 2
 564 1 510 -44 452 -44 c 0
 404 -44 362 -22 362 18 c 0
474 571 m 0
 474 595 495 616 519 616 c 0
 543 616 564 595 564 571 c 0
 564 547 543 526 519 526 c 0
 495 526 474 547 474 571 c 0
EndSplineSet
EndChar
StartChar: uF2A87
Encoding: 993927 993927 452
Width: 1000
Flags: MW
LayerCount: 2
Fore
SplineSet
95 725 m 1
 95 -125 l 1
 905 -125 l 1
 905 725 l 1
 95 725 l 1
50 770 m 1
 950 770 l 1
 950 -170 l 1
 50 -170 l 1
 50 770 l 1
198 105 m 1
 198 132 l 1
 218 132 241 132 247 136 c 1
 253 139 254 145 254 157 c 1
 254 366 l 2
 254 401 248 404 198 404 c 1
 198 430 l 1
 308 439 l 1
 308 359 l 1
 330 405 367 439 425 439 c 0
 457 439 517 431 528 365 c 1
 543 395 576 439 640 439 c 0
 683 439 711 425 723 411 c 0
 745 387 746 362 746 304 c 2
 746 149 l 1
 747 133 773 132 802 132 c 1
 802 105 l 1
 777 106 738 108 716 108 c 0
 694 108 654 106 629 105 c 1
 629 132 l 1
 648 132 672 132 678 135 c 1
 684 138 686 144 686 157 c 1
 686 339 l 2
 686 386 676 419 634 419 c 0
 586 419 530 379 530 300 c 2
 530 157 l 1
 530 145 532 138 538 135 c 1
 544 132 566 132 586 132 c 1
 586 105 l 1
 561 106 522 108 500 108 c 0
 478 108 439 106 414 105 c 1
 414 132 l 1
 436 132 459 132 465 138 c 1
 468 141 470 147 470 157 c 1
 470 339 l 2
 470 386 460 419 418 419 c 0
 370 419 314 379 314 300 c 2
 314 157 l 1
 314 144 316 137 323 134 c 1
 329 131 353 132 371 132 c 1
 371 105 l 1
 346 106 306 108 284 108 c 0
 262 108 223 106 198 105 c 1
EndSplineSet
EndChar
StartChar: uF2A88
Encoding: 993928 993928 453
Width: 1000
Flags: MW
LayerCount: 2
Fore
SplineSet
95 725 m 1
 95 -125 l 1
 905 -125 l 1
 905 725 l 1
 95 725 l 1
50 770 m 1
 950 770 l 1
 950 -170 l 1
 50 -170 l 1
 50 770 l 1
305 105 m 1
 305 132 l 1
 326 132 350 132 356 136 c 1
 360 139 362 146 362 157 c 1
 362 366 l 2
 362 401 355 404 305 404 c 1
 305 430 l 1
 417 439 l 1
 417 359 l 1
 438 403 473 439 532 439 c 0
 575 439 601 425 613 411 c 0
 635 387 638 362 638 304 c 2
 638 149 l 1
 639 133 666 132 695 132 c 1
 695 105 l 1
 670 106 630 108 608 108 c 0
 586 108 546 106 521 105 c 1
 521 132 l 1
 543 132 567 132 573 138 c 1
 576 141 578 147 578 157 c 1
 578 339 l 2
 578 385 567 419 525 419 c 0
 477 419 422 379 422 300 c 2
 422 157 l 1
 422 146 423 139 428 136 c 1
 434 132 458 132 479 132 c 1
 479 105 l 1
 454 106 414 108 392 108 c 0
 370 108 330 106 305 105 c 1
EndSplineSet
EndChar
StartChar: uF2A8A
Encoding: 993930 993930 455
Width: 1000
Flags: MW
LayerCount: 2
Fore
SplineSet
95 725 m 1
 95 -125 l 1
 905 -125 l 1
 905 725 l 1
 95 725 l 1
50 770 m 1
 950 770 l 1
 950 -170 l 1
 50 -170 l 1
 50 770 l 1
309 62 m 1
 331 62 355 62 361 68 c 1
 364 71 366 77 366 87 c 1
 366 446 l 2
 366 478 360 480 309 480 c 1
 309 506 l 1
 424 514 l 1
 424 468 l 1
 440 484 472 514 530 514 c 0
 620 514 691 440 691 344 c 0
 691 245 614 174 519 174 c 0
 469 174 436 206 425 222 c 1
 425 216 l 1
 425 87 l 1
 425 76 427 69 432 66 c 1
 438 62 461 62 482 62 c 1
 482 36 l 1
 457 37 418 38 396 38 c 0
 374 38 334 37 309 36 c 1
 309 62 l 1
425 267 m 2
 425 252 426 252 436 238 c 0
 460 205 490 193 515 193 c 0
 569 193 621 249 621 344 c 0
 621 431 576 493 522 493 c 0
 490 493 452 475 428 439 c 1
 426 437 425 437 425 433 c 1
 425 267 l 2
EndSplineSet
EndChar
StartChar: uF2A8F
Encoding: 993935 993935 460
Width: 1000
Flags: MW
LayerCount: 2
Fore
SplineSet
95 725 m 1
 95 -125 l 1
 905 -125 l 1
 905 725 l 1
 95 725 l 1
50 770 m 1
 950 770 l 1
 950 -170 l 1
 50 -170 l 1
 50 770 l 1
305 404 m 1
 305 430 l 1
 422 437 l 1
 422 186 l 2
 422 162 423 143 437 130 c 0
 447 121 462 116 487 116 c 0
 542 116 578 164 578 228 c 2
 578 364 l 2
 578 399 571 404 521 404 c 1
 521 430 l 1
 638 437 l 1
 638 169 l 2
 638 134 645 130 695 130 c 1
 695 104 l 1
 581 97 l 1
 581 162 l 1
 556 113 517 97 481 97 c 0
 449 97 425 102 407 111 c 0
 368 131 362 173 362 216 c 2
 362 344 l 2
 362 402 360 404 305 404 c 1
EndSplineSet
EndChar
StartChar: uF2A90
Encoding: 993936 993936 461
Width: 1000
Flags: MW
LayerCount: 2
Fore
SplineSet
95 725 m 1
 95 -125 l 1
 905 -125 l 1
 905 725 l 1
 95 725 l 1
50 770 m 1
 950 770 l 1
 950 -170 l 1
 50 -170 l 1
 50 770 l 1
311 402 m 1
 311 429 l 1
 335 427 366 427 386 427 c 0
 399 427 449 428 472 429 c 1
 472 402 l 1
 462 402 428 403 428 388 c 1
 428 386 429 386 432 378 c 1
 518 170 l 1
 598 360 l 2
 601 368 602 370 602 376 c 0
 602 388 590 401 566 402 c 1
 566 429 l 1
 580 428 615 427 633 427 c 0
 651 427 671 427 689 429 c 1
 689 402 l 1
 639 401 630 376 624 361 c 2
 519 111 l 2
 515 101 511 96 500 96 c 0
 490 96 487 99 482 111 c 2
 368 382 l 1
 365 390 361 395 355 398 c 1
 349 401 329 402 311 402 c 1
EndSplineSet
EndChar
StartChar: uF2A91
Encoding: 993937 993937 462
Width: 1000
Flags: MW
LayerCount: 2
Fore
SplineSet
95 725 m 1
 95 -125 l 1
 905 -125 l 1
 905 725 l 1
 95 725 l 1
50 770 m 1
 950 770 l 1
 950 -170 l 1
 50 -170 l 1
 50 770 l 1
235 402 m 1
 235 429 l 1
 262 427 298 427 306 427 c 0
 326 427 368 428 392 429 c 1
 392 402 l 1
 381 402 348 402 348 387 c 1
 348 385 347 385 350 378 c 1
 423 178 l 1
 487 351 l 1
 487 351 488 352 488 353 c 1
 484 364 478 382 471 394 c 1
 465 402 445 402 424 402 c 1
 424 429 l 1
 444 427 469 427 493 427 c 0
 512 427 551 428 573 429 c 1
 573 402 l 1
 562 402 529 402 529 387 c 1
 529 384 530 384 532 377 c 1
 609 168 l 1
 680 360 l 2
 683 368 684 369 684 373 c 0
 684 391 662 401 640 402 c 1
 640 429 l 1
 654 428 688 427 710 427 c 0
 726 427 749 427 765 429 c 1
 765 402 l 1
 735 401 718 393 706 362 c 2
 613 112 l 2
 609 103 608 96 596 96 c 0
 584 96 581 103 577 112 c 2
 500 320 l 1
 423 112 l 2
 419 101 416 96 404 96 c 0
 392 96 391 103 387 114 c 2
 287 383 l 1
 280 401 263 402 235 402 c 1
EndSplineSet
EndChar
